<svg width="140" height="170" viewBox="0 0 140 170" fill="none" xmlns="http://www.w3.org/2000/svg">
<g opacity="0.8">
<path d="M1.1791 102.018L49.9624 74.3982L45.7203 72.0771L105.58 38.1901L150.357 62.793L143.758 -4.51678L208.803 34.4765L150.828 67.4351V67.203L94.0322 99.6974L51.8477 75.5587L3.30012 103.179L1.1791 102.018Z" fill="#CDCDCD"/>
<path d="M102.515 84.1463L96.3874 87.6279L89.3174 83.6821L95.4448 80.2006L102.515 84.1463Z" fill="#666666"/>
<path d="M89.3179 83.6822V94.1268L96.388 98.3047V87.6279L89.3179 83.6822Z" fill="#121212"/>
<path d="M102.515 84.1463V94.591L96.3881 98.3046V87.6279L102.515 84.1463Z" fill="#0A0A0A"/>
<path d="M61.5093 60.704L55.3819 64.4176L48.3119 60.2398L54.4392 56.7583L61.5093 60.704Z" fill="#666666"/>
<path d="M48.3121 60.2399V70.9166L55.3821 74.8623V64.4177L48.3121 60.2399Z" fill="#121212"/>
<path d="M61.5098 60.7041V71.3809L55.3825 74.8624V64.4178L61.5098 60.7041Z" fill="#0A0A0A"/>
<path d="M48.3116 -67.8808V68.1314L96.3878 95.5195V-40.4927L48.3116 -67.8808Z" fill="#5A5A5A"/>
<path d="M94.0321 -39.1002L50.6692 -63.7031V66.7387L94.0321 91.3416V-39.1002Z" fill="#282828"/>
<path d="M53.2615 -62.3104V65.5782L94.0321 88.7885V91.3416L50.6692 66.7387V-63.7031L53.2615 -62.3104Z" fill="#6F6F6F"/>
<path d="M156.955 -74.844V61.1682L96.3883 95.5194V-40.4928L156.955 -74.844Z" fill="#121212"/>
<path d="M153.42 61.1683V-59.9894L100.159 -29.8161V91.5737L153.42 61.1683Z" fill="#0A0A0A"/>
<path d="M152.477 60.9361V-59.5252L153.42 -59.9894V61.1683L100.159 91.5737V90.6453L152.477 60.9361Z" fill="#6F6F6F"/>
<path d="M53.261 -62.3104L50.6687 -63.7031V66.7387L53.261 65.5782V-62.3104Z" fill="#121212"/>
<path d="M48.312 -67.8808V68.1314L9.91821e-05 95.5196V-40.4927L48.312 -67.8808Z" fill="#5A5A5A"/>
<path d="M50.6691 -66.4881V69.5241L2.35715 96.9122V-39.1L50.6691 -66.4881Z" fill="#121212"/>
<path d="M6.12752 -37.0112V90.6453L13.1976 86.6996L33.465 75.0944L47.1337 67.435V-60.2215L37.9427 -55.1153L26.1593 -48.3843L6.12752 -37.0112Z" fill="#B9B9B9"/>
<path d="M6.12752 66.7388V79.9686L47.1337 11.0341V-2.19577L6.12752 66.7388Z" fill="#565656"/>
<path d="M6.12752 21.2466V43.9927L47.1337 -25.174V-48.1522L6.12752 21.2466Z" fill="#565656"/>
<path d="M13.1975 86.6997L33.465 75.0945L47.1337 52.3484V29.3703L13.1975 86.6997Z" fill="#565656"/>
<path d="M44.5414 66.5066V-58.8289L47.1337 -60.2215V67.435L6.12752 90.6453V88.5564L44.5414 66.5066Z" fill="#5A5A5A"/>
<path d="M2.35699 96.9121L0.000305891 95.5195V-40.4928L2.35699 -39.1002V96.9121Z" fill="#5A5A5A"/>
<path d="M44.5414 66.5066L47.1337 67.435L6.12752 90.6453V88.5564L44.5414 66.5066Z" fill="#6F6F6F"/>
<path d="M44.5414 44.6889L47.1338 45.6173L6.12755 68.8276V66.5065L44.5414 44.6889Z" fill="#6F6F6F"/>
<path d="M47.134 45.6173V47.9383L6.12779 71.1486V68.8276L47.134 45.6173Z" fill="#121212"/>
<path d="M44.5414 16.8366L47.1338 17.765L6.12755 40.9753V38.6543L44.5414 16.8366Z" fill="#6F6F6F"/>
<path d="M47.134 17.7652V19.8541L6.12779 43.0644V40.9755L47.134 17.7652Z" fill="#121212"/>
<path d="M44.5414 -11.2477L47.1338 -10.3193L6.12755 12.891V10.802L44.5414 -11.2477Z" fill="#6F6F6F"/>
<path d="M47.134 -10.3193V-7.99829L6.12779 15.212V12.891L47.134 -10.3193Z" fill="#121212"/>
<path d="M92.6177 24.264L54.2039 2.44629V10.802L92.6177 32.6196V24.264Z" fill="#626262"/>
<path d="M54.9109 3.6067V10.5698L91.9108 31.6911V24.7281L54.9109 3.6067Z" fill="#0A0A0A"/>
<path d="M55.8536 4.0709V9.87348L91.9108 30.5306V31.6911L54.9109 10.5698V3.6067L55.8536 4.0709Z" fill="#777777"/>
<path d="M55.8536 4.0709V9.87348L54.9109 10.5698V3.6067L55.8536 4.0709Z" fill="#121212"/>
<path d="M55.1466 2.21418L54.2039 2.44628L92.6178 24.2639L93.5605 23.7997L55.1466 2.21418Z" fill="#777777"/>
<path d="M92.618 32.6196L93.5607 32.1554V23.7997L92.618 24.2639V32.6196Z" fill="#121212"/>
<path d="M75.8859 15.444V21.4787L75.1789 21.9429V14.9798L75.8859 15.444Z" fill="#121212"/>
<path d="M74.2359 14.5155V21.4786L75.1786 21.9428V14.9797L74.2359 14.5155Z" fill="#626262"/>
<path d="M70.9369 12.6589V18.6935L70.2299 19.1577V12.1946L70.9369 12.6589Z" fill="#121212"/>
<path d="M69.287 11.7304V18.6935L70.2297 19.1577V12.1946L69.287 11.7304Z" fill="#626262"/>
<path d="M81.3062 18.4613V24.496L80.3636 24.9602V17.9971L81.3062 18.4613Z" fill="#121212"/>
<path d="M79.4211 17.5329V24.496L80.3637 24.9602V17.9971L79.4211 17.5329Z" fill="#626262"/>
<path d="M74.2354 14.5157V20.5504L70.936 18.6936V12.6589L74.2354 14.5157Z" fill="#E84646"/>
<path d="M74.2354 14.5157V17.7652L70.936 15.9084V12.6589L74.2354 14.5157Z" fill="#A1A1A1"/>
<path d="M75.8852 18.2292L75.1782 18.6934L79.4202 21.2466V20.3181L75.8852 18.2292Z" fill="#6F6F6F"/>
<path d="M75.1784 18.6935V19.1577L79.4204 21.7108V21.2466L75.1784 18.6935Z" fill="#626262"/>
<path d="M84.1338 23.3355L83.4268 23.5676L81.7771 22.6392L82.4841 22.4071L84.1338 23.3355Z" fill="#A1A1A1"/>
<path d="M81.7766 22.6393V24.2641L83.4263 25.4246V23.5677L81.7766 22.6393Z" fill="#878787"/>
<path d="M84.1338 23.3355V24.9602L83.4268 25.4244V23.5676L84.1338 23.3355Z" fill="#6E6E6E"/>
<path d="M84.1338 20.7824L83.4268 21.0145L81.7771 20.0861L82.4841 19.854L84.1338 20.7824Z" fill="#EA5858"/>
<path d="M81.7766 20.0862V21.7109L83.4263 22.8714V21.0146L81.7766 20.0862Z" fill="#E84646"/>
<path d="M84.1338 20.7825V22.4072L83.4268 22.8714V21.0146L84.1338 20.7825Z" fill="#E52F2F"/>
<path d="M91.6747 27.7455L90.9677 27.9776L89.318 27.0492L90.025 26.8171L91.6747 27.7455Z" fill="#DBDBDB"/>
<path d="M89.3175 27.0491V28.906L90.9672 29.8344V27.9776L89.3175 27.0491Z" fill="#C2C2C2"/>
<path d="M91.6747 27.7455V29.3702L90.9677 29.8344V27.9776L91.6747 27.7455Z" fill="#A1A1A1"/>
<path d="M91.6747 25.1924L90.9677 25.4245L89.318 24.4961L90.025 24.264L91.6747 25.1924Z" fill="#7E7E7E"/>
<path d="M89.3175 24.496V26.3528L90.9672 27.2813V25.4244L89.3175 24.496Z" fill="#6F6F6F"/>
<path d="M91.6747 25.1923V26.817L90.9677 27.2812V25.4244L91.6747 25.1923Z" fill="#5F5F5F"/>
<path d="M87.9045 25.4244L87.1975 25.8886L85.5478 24.9602L86.2548 24.496L87.9045 25.4244Z" fill="#B1B1B1"/>
<path d="M85.5479 24.9602V26.585L87.1975 27.5134V25.8886L85.5479 24.9602Z" fill="#A1A1A1"/>
<path d="M87.9046 25.4244V27.2812L87.1976 27.5133V25.8886L87.9046 25.4244Z" fill="#9A9A9A"/>
<path d="M87.9045 22.8713L87.1975 23.3355L85.5478 22.4071L86.2548 21.9429L87.9045 22.8713Z" fill="#B0B0B0"/>
<path d="M85.5479 22.4071V24.0318L87.1975 24.9602V23.3355L85.5479 22.4071Z" fill="#A6A6A6"/>
<path d="M87.9046 22.8714V24.7282L87.1976 24.9603V23.3356L87.9046 22.8714Z" fill="#8A8A8A"/>
<path d="M67.4015 15.9083V11.4984L57.5034 5.92789V10.1057L67.4015 15.9083Z" fill="#919191"/>
<path d="M92.6177 65.3462L54.2039 43.5286V64.6499L92.6177 86.2355V65.3462Z" fill="#626262"/>
<path d="M54.9109 44.689V64.1857L91.9108 85.307V65.8104L54.9109 44.689Z" fill="#0A0A0A"/>
<path d="M55.8536 45.1533V63.7215L91.9108 84.3786V85.307L54.9109 64.1857V44.689L55.8536 45.1533Z" fill="#777777"/>
<path d="M55.8536 45.1533V63.7215L54.9109 64.1857V44.689L55.8536 45.1533Z" fill="#121212"/>
<path d="M55.1466 43.2964L54.2039 43.5285L92.6178 65.3462L93.5605 65.1141L55.1466 43.2964Z" fill="#777777"/>
<path d="M92.618 86.2355L93.5607 86.0034V65.1141L92.618 65.3462V86.2355Z" fill="#121212"/>
<path d="M91.6747 81.3614L90.9677 81.8256L89.318 80.8972L90.025 80.433L91.6747 81.3614Z" fill="#BFBFBF"/>
<path d="M89.3175 80.8972V82.5219L90.9672 83.4503V81.8256L89.3175 80.8972Z" fill="#9E9E9E"/>
<path d="M91.6747 81.3613V83.2181L90.9677 83.4502V81.8255L91.6747 81.3613Z" fill="#777777"/>
<path d="M91.6747 78.8082L90.9677 79.2724L89.318 78.344L90.025 77.8798L91.6747 78.8082Z" fill="#BFBFBF"/>
<path d="M89.3175 78.3439V79.9686L90.9672 80.8971V79.2723L89.3175 78.3439Z" fill="#9E9E9E"/>
<path d="M91.6747 78.8083V80.6651L90.9677 80.8973V79.2725L91.6747 78.8083Z" fill="#777777"/>
<path d="M91.6747 76.255L90.9677 76.7192L89.318 75.5587L90.025 75.3266L91.6747 76.255Z" fill="#BFBFBF"/>
<path d="M89.3175 75.5587V77.4155L90.9672 78.3439V76.7192L89.3175 75.5587Z" fill="#9E9E9E"/>
<path d="M91.6747 76.255V77.8797L90.9677 78.3439V76.7192L91.6747 76.255Z" fill="#777777"/>
<path d="M91.6747 73.7019L90.9677 74.1661L89.318 73.0056L90.025 72.7735L91.6747 73.7019Z" fill="#BFBFBF"/>
<path d="M89.3175 73.0056V74.8624L90.9672 75.7908V74.1661L89.3175 73.0056Z" fill="#9E9E9E"/>
<path d="M91.6747 73.7018V75.3265L90.9677 75.7907V74.166L91.6747 73.7018Z" fill="#777777"/>
<path d="M91.6747 70.9166L90.9677 71.3808L89.318 70.4524L90.025 69.9882L91.6747 70.9166Z" fill="#BFBFBF"/>
<path d="M89.3175 70.4525V72.0772L90.9672 73.0056V71.3809L89.3175 70.4525Z" fill="#9E9E9E"/>
<path d="M91.6747 70.9167V72.7735L90.9677 73.0056V71.3809L91.6747 70.9167Z" fill="#777777"/>
<path d="M91.6747 68.3635L90.9677 68.8277L89.318 67.8992L90.025 67.435L91.6747 68.3635Z" fill="#BFBFBF"/>
<path d="M89.3175 67.8993V69.524L90.9672 70.4524V68.8277L89.3175 67.8993Z" fill="#9E9E9E"/>
<path d="M91.6747 68.3636V70.2204L90.9677 70.4525V68.8278L91.6747 68.3636Z" fill="#777777"/>
<path d="M91.6747 66.0425L90.9677 66.2746L89.318 65.3462L90.025 65.1141L91.6747 66.0425Z" fill="#BFBFBF"/>
<path d="M89.3175 65.3462V67.203L90.9672 68.1315V66.2746L89.3175 65.3462Z" fill="#9E9E9E"/>
<path d="M91.6747 66.0424V67.6671L90.9677 68.1313V66.2745L91.6747 66.0424Z" fill="#777777"/>
<path d="M88.1401 81.5933V65.3461L57.5033 47.9384V63.9535L88.1401 81.5933Z" fill="#919191"/>
<path d="M92.6177 55.5977L54.2039 33.78V42.1357L92.6177 63.9534V55.5977Z" fill="#626262"/>
<path d="M54.9109 34.7084V41.6715L91.9108 62.7928V55.8298L54.9109 34.7084Z" fill="#0A0A0A"/>
<path d="M55.8536 35.1726V41.2073L91.9108 61.8644V62.7928L54.9109 41.6715V34.7084L55.8536 35.1726Z" fill="#777777"/>
<path d="M55.8536 35.1726V41.2073L54.9109 41.6715V34.7084L55.8536 35.1726Z" fill="#121212"/>
<path d="M55.1466 33.3158L54.2039 33.78L92.6178 55.5977L93.5605 55.1335L55.1466 33.3158Z" fill="#777777"/>
<path d="M92.618 63.9534L93.5607 63.4892V55.1335L92.618 55.5977V63.9534Z" fill="#121212"/>
<path d="M84.1338 54.4373L83.4268 54.9015L81.7771 53.973L82.4841 53.5089L84.1338 54.4373Z" fill="#BFBFBF"/>
<path d="M81.7766 53.9731V55.5978L83.4263 56.5262V54.9015L81.7766 53.9731Z" fill="#9E9E9E"/>
<path d="M84.1338 54.4373V56.2941L83.4268 56.5262V54.9015L84.1338 54.4373Z" fill="#777777"/>
<path d="M84.1338 51.8841L83.4268 52.3483L81.7771 51.4199L82.4841 50.9557L84.1338 51.8841Z" fill="#BFBFBF"/>
<path d="M81.7766 51.4198V53.0446L83.4263 53.973V52.3483L81.7766 51.4198Z" fill="#9E9E9E"/>
<path d="M84.1338 51.8842V53.741L83.4268 53.9731V52.3484L84.1338 51.8842Z" fill="#777777"/>
<path d="M91.6747 58.8471L90.9677 59.3113L89.318 58.3829L90.025 57.9187L91.6747 58.8471Z" fill="#BFBFBF"/>
<path d="M89.3175 58.383V60.0077L90.9672 60.9361V59.3114L89.3175 58.383Z" fill="#9E9E9E"/>
<path d="M91.6747 58.8471V60.7039L90.9677 60.936V59.3113L91.6747 58.8471Z" fill="#777777"/>
<path d="M91.6747 56.294L90.9677 56.7582L89.318 55.8298L90.025 55.3656L91.6747 56.294Z" fill="#BFBFBF"/>
<path d="M89.3175 55.8299V57.4546L90.9672 58.383V56.7583L89.3175 55.8299Z" fill="#9E9E9E"/>
<path d="M91.6747 56.2939V58.1508L90.9677 58.3829V56.7582L91.6747 56.2939Z" fill="#777777"/>
<path d="M87.9045 56.7583L87.1975 57.2225L85.5478 56.062L86.2548 55.8299L87.9045 56.7583Z" fill="#BFBFBF"/>
<path d="M85.5479 56.062V57.9188L87.1975 58.8472V57.2225L85.5479 56.062Z" fill="#9E9E9E"/>
<path d="M87.9046 56.7582V58.3829L87.1976 58.8471V57.2224L87.9046 56.7582Z" fill="#777777"/>
<path d="M87.9045 54.2052L87.1975 54.4373L85.5478 53.5088L86.2548 53.2767L87.9045 54.2052Z" fill="#BFBFBF"/>
<path d="M85.5479 53.5088V55.3656L87.1975 56.294V54.4372L85.5479 53.5088Z" fill="#9E9E9E"/>
<path d="M87.9046 54.2051V55.8299L87.1976 56.2941V54.4372L87.9046 54.2051Z" fill="#777777"/>
<path d="M80.1271 54.4373V50.2595L57.5029 37.0296V41.4395L80.1271 54.4373Z" fill="#919191"/>
<path d="M92.6177 45.1532L54.2039 23.3356V31.6913L92.6177 53.5089V45.1532Z" fill="#626262"/>
<path d="M54.9109 24.496V31.4591L91.9108 52.3484V45.6174L54.9109 24.496Z" fill="#0A0A0A"/>
<path d="M55.8536 24.9602V30.7628L91.9108 51.4199V52.3484L54.9109 31.4591V24.496L55.8536 24.9602Z" fill="#777777"/>
<path d="M55.8536 24.9602V30.7628L54.9109 31.4591V24.496L55.8536 24.9602Z" fill="#121212"/>
<path d="M55.1466 22.8714L54.2039 23.3356L92.6178 45.1533L93.5605 44.6891L55.1466 22.8714Z" fill="#777777"/>
<path d="M92.618 53.509L93.5607 53.0448V44.689L92.618 45.1532V53.509Z" fill="#121212"/>
<path d="M84.1338 44.2248L83.4268 44.4569L81.7771 43.5285L82.4841 43.2963L84.1338 44.2248Z" fill="#BFBFBF"/>
<path d="M81.7766 43.5284V45.1531L83.4263 46.3136V44.4568L81.7766 43.5284Z" fill="#9E9E9E"/>
<path d="M84.1338 44.2248V45.8495L83.4268 46.3137V44.4569L84.1338 44.2248Z" fill="#777777"/>
<path d="M84.1338 41.6717L83.4268 41.9038L81.7771 40.9754L82.4841 40.7433L84.1338 41.6717Z" fill="#BFBFBF"/>
<path d="M81.7766 40.9754V42.6001L83.4263 43.7606V41.9038L81.7766 40.9754Z" fill="#9E9E9E"/>
<path d="M84.1338 41.6717V43.2964L83.4268 43.7606V41.9038L84.1338 41.6717Z" fill="#777777"/>
<path d="M91.6747 48.6348L90.9677 48.8669L89.318 47.9385L90.025 47.7064L91.6747 48.6348Z" fill="#BFBFBF"/>
<path d="M89.3175 47.9384V49.5631L90.9672 50.7236V48.8668L89.3175 47.9384Z" fill="#9E9E9E"/>
<path d="M91.6747 48.6348V50.2595L90.9677 50.7237V48.8669L91.6747 48.6348Z" fill="#777777"/>
<path d="M91.6747 46.0817L90.9677 46.3138L89.318 45.3854L90.025 45.1533L91.6747 46.0817Z" fill="#BFBFBF"/>
<path d="M89.3175 45.3854V47.0101L90.9672 48.1706V46.3138L89.3175 45.3854Z" fill="#9E9E9E"/>
<path d="M91.6747 46.0815V47.7062L90.9677 48.1704V46.3136L91.6747 46.0815Z" fill="#777777"/>
<path d="M87.9045 46.3138L87.1975 46.778L85.5478 45.8496L86.2548 45.3854L87.9045 46.3138Z" fill="#BFBFBF"/>
<path d="M85.5479 45.8496V47.4743L87.1975 48.4027V46.778L85.5479 45.8496Z" fill="#9E9E9E"/>
<path d="M87.9046 46.3137V48.1705L87.1976 48.4026V46.7779L87.9046 46.3137Z" fill="#777777"/>
<path d="M87.9045 43.7605L87.1975 44.2247L85.5478 43.2963L86.2548 42.8321L87.9045 43.7605Z" fill="#BFBFBF"/>
<path d="M85.5479 43.2964V44.9211L87.1975 45.8495V44.2248L85.5479 43.2964Z" fill="#9E9E9E"/>
<path d="M87.9046 43.7606V45.6174L87.1976 45.8495V44.2248L87.9046 43.7606Z" fill="#777777"/>
<path d="M80.1271 44.2249V39.8149L57.5029 26.8172V30.995L80.1271 44.2249Z" fill="#919191"/>
<path d="M92.6177 34.9407L54.2039 13.123V21.2466L92.6177 43.0643V34.9407Z" fill="#626262"/>
<path d="M54.9109 14.0514V21.0145L91.9108 42.1358V35.1727L54.9109 14.0514Z" fill="#0A0A0A"/>
<path d="M55.8536 14.5156V20.5503L91.9108 41.2074V42.1358L54.9109 21.0145V14.0514L55.8536 14.5156Z" fill="#777777"/>
<path d="M55.8536 14.5156V20.5503L54.9109 21.0145V14.0514L55.8536 14.5156Z" fill="#121212"/>
<path d="M55.1466 12.6589L54.2039 13.1231L92.6178 34.9408L93.5605 34.4766L55.1466 12.6589Z" fill="#777777"/>
<path d="M92.618 43.0642L93.5607 42.8321V34.4764L92.618 34.9406V43.0642Z" fill="#121212"/>
<path d="M84.1338 33.7802L83.4268 34.2444L81.7771 33.316L82.4841 32.8518L84.1338 33.7802Z" fill="#BFBFBF"/>
<path d="M81.7766 33.3159V34.9406L83.4263 35.869V34.2443L81.7766 33.3159Z" fill="#9E9E9E"/>
<path d="M84.1338 33.7802V35.4049L83.4268 35.8691V34.2444L84.1338 33.7802Z" fill="#777777"/>
<path d="M84.1338 31.2271L83.4268 31.6913L81.7771 30.7629L82.4841 30.2987L84.1338 31.2271Z" fill="#BFBFBF"/>
<path d="M81.7766 30.7629V32.3876L83.4263 33.316V31.6913L81.7766 30.7629Z" fill="#9E9E9E"/>
<path d="M84.1338 31.2271V32.8518L83.4268 33.316V31.6913L84.1338 31.2271Z" fill="#777777"/>
<path d="M91.6747 38.1901L90.9677 38.6543L89.318 37.7259L90.025 37.2617L91.6747 38.1901Z" fill="#BFBFBF"/>
<path d="M89.3175 37.7259V39.3506L90.9672 40.279V38.6543L89.3175 37.7259Z" fill="#9E9E9E"/>
<path d="M91.6747 38.1901V39.8148L90.9677 40.2791V38.6543L91.6747 38.1901Z" fill="#777777"/>
<path d="M91.6747 35.637L90.9677 36.1012L89.318 35.1728L90.025 34.7086L91.6747 35.637Z" fill="#BFBFBF"/>
<path d="M89.3175 35.1729V36.7976L90.9672 37.726V36.1013L89.3175 35.1729Z" fill="#9E9E9E"/>
<path d="M91.6747 35.6371V37.2618L90.9677 37.726V36.1013L91.6747 35.6371Z" fill="#777777"/>
<path d="M87.9045 36.1012L87.1975 36.3333L85.5478 35.4049L86.2548 34.9407L87.9045 36.1012Z" fill="#BFBFBF"/>
<path d="M85.5479 35.405V37.0297L87.1975 38.1903V36.3334L85.5479 35.405Z" fill="#9E9E9E"/>
<path d="M87.9046 36.1011V37.7259L87.1976 38.1901V36.3332L87.9046 36.1011Z" fill="#777777"/>
<path d="M87.9045 33.5481L87.1975 33.7803L85.5478 32.8518L86.2548 32.3876L87.9045 33.5481Z" fill="#BFBFBF"/>
<path d="M85.5479 32.8518V34.4766L87.1975 35.6371V33.7803L85.5479 32.8518Z" fill="#9E9E9E"/>
<path d="M87.9046 33.5482V35.1729L87.1976 35.6371V33.7803L87.9046 33.5482Z" fill="#777777"/>
<path d="M80.1271 33.7801V29.6023L57.5029 16.3724V20.7823L80.1271 33.7801Z" fill="#919191"/>
<path d="M92.6177 4.071L54.2039 -17.7467V-9.39096L92.6177 12.4267V4.071Z" fill="#626262"/>
<path d="M54.9109 -16.5862V-9.85522L91.9108 11.2661V4.53515L54.9109 -16.5862Z" fill="#0A0A0A"/>
<path d="M55.8536 -16.122V-10.3194L91.9108 10.3377V11.2661L54.9109 -9.85522V-16.5862L55.8536 -16.122Z" fill="#777777"/>
<path d="M55.1466 -18.2109L54.2039 -17.7467L92.6178 4.071L93.5605 3.60679L55.1466 -18.2109Z" fill="#777777"/>
<path d="M92.618 12.4266L93.5607 11.9624V3.60669L92.618 4.0709V12.4266Z" fill="#121212"/>
<path d="M75.8859 -4.7489V1.28577L75.1789 1.74998V-5.21311L75.8859 -4.7489Z" fill="#121212"/>
<path d="M74.2359 -5.67726V1.28583L75.1786 1.75003V-5.21305L74.2359 -5.67726Z" fill="#626262"/>
<path d="M81.3062 -1.73167V4.303L80.3636 4.76721V-2.19588L81.3062 -1.73167Z" fill="#121212"/>
<path d="M79.4211 -2.6601V4.30298L80.3637 4.76719V-2.19589L79.4211 -2.6601Z" fill="#626262"/>
<path d="M74.2354 -5.67741V0.125157L70.936 -1.49956V-7.53423L74.2354 -5.67741Z" fill="#E84646"/>
<path d="M75.8852 -1.96361L75.1782 -1.7315L79.4202 0.821632V0.125324L75.8852 -1.96361Z" fill="#6F6F6F"/>
<path d="M75.1784 -1.73162V-1.03531L79.4204 1.51782V0.821515L75.1784 -1.73162Z" fill="#626262"/>
<path d="M84.1338 2.91043L83.4268 3.37465L81.7771 2.44622L82.4841 1.982L84.1338 2.91043Z" fill="#A1A1A1"/>
<path d="M81.7766 2.44629V4.07101L83.4263 4.99942V3.3747L81.7766 2.44629Z" fill="#878787"/>
<path d="M84.1338 2.91051V4.76732L83.4268 4.99941V3.37471L84.1338 2.91051Z" fill="#6E6E6E"/>
<path d="M84.1338 0.357304L83.4268 0.821514L81.7771 -0.106896L82.4841 -0.571106L84.1338 0.357304Z" fill="#EA5858"/>
<path d="M81.7766 -0.106827V1.51789L83.4263 2.4463V0.82158L81.7766 -0.106827Z" fill="#E84646"/>
<path d="M84.1338 0.357391V2.21421L83.4268 2.44631V0.821596L84.1338 0.357391Z" fill="#E52F2F"/>
<path d="M91.6747 7.5526L90.9677 7.78469L89.318 6.8563L90.025 6.3921L91.6747 7.5526Z" fill="#DBDBDB"/>
<path d="M89.3175 6.85632V8.48103L90.9672 9.40944V7.78472L89.3175 6.85632Z" fill="#C2C2C2"/>
<path d="M91.6747 7.5527V9.17742L90.9677 9.40952V7.7848L91.6747 7.5527Z" fill="#A1A1A1"/>
<path d="M91.6747 4.76727L90.9677 5.23148L89.318 4.30307L90.025 3.83886L91.6747 4.76727Z" fill="#7E7E7E"/>
<path d="M89.3175 4.30306V5.92778L90.9672 6.85619V5.23147L89.3175 4.30306Z" fill="#6F6F6F"/>
<path d="M91.6747 4.76727V6.62409L90.9677 6.8562V5.23148L91.6747 4.76727Z" fill="#5F5F5F"/>
<path d="M87.9045 5.23148L87.1975 5.69569L85.5478 4.53518L86.2548 4.30307L87.9045 5.23148Z" fill="#B1B1B1"/>
<path d="M85.5479 4.53508V6.39191L87.1975 7.32032V5.6956L85.5479 4.53508Z" fill="#A1A1A1"/>
<path d="M87.9046 5.23147V6.8562L87.1976 7.3204V5.69568L87.9046 5.23147Z" fill="#9A9A9A"/>
<path d="M87.9045 2.67836L87.1975 3.14256L85.5478 1.98206L86.2548 1.74996L87.9045 2.67836Z" fill="#B0B0B0"/>
<path d="M85.5479 1.98196V3.83879L87.1975 4.7672V3.14248L85.5479 1.98196Z" fill="#A6A6A6"/>
<path d="M87.9046 2.67841V4.30314L87.1976 4.76734V3.14262L87.9046 2.67841Z" fill="#8A8A8A"/>
<path d="M92.6177 14.0516L54.2039 -7.76611V0.589594L92.6177 22.4073V14.0516Z" fill="#626262"/>
<path d="M54.9109 -6.60578V0.357305L91.9108 21.4787V14.5156L54.9109 -6.60578Z" fill="#0A0A0A"/>
<path d="M55.8536 -6.14157V-0.339002L91.9108 20.3182V21.4787L54.9109 0.357305V-6.60578L55.8536 -6.14157Z" fill="#777777"/>
<path d="M55.8536 -6.14157V-0.338998L54.9109 0.357309V-6.60578L55.8536 -6.14157Z" fill="#121212"/>
<path d="M55.1466 -7.99838L54.2039 -7.76628L92.6178 14.0514L93.5605 13.8193L55.1466 -7.99838Z" fill="#777777"/>
<path d="M92.618 22.4071L93.5607 21.9429V13.8193L92.618 14.0514V22.4071Z" fill="#121212"/>
<path d="M75.8859 5.23149V11.2661L75.1789 11.7304V4.76728L75.8859 5.23149Z" fill="#121212"/>
<path d="M74.2359 4.30307V11.2662L75.1786 11.7304V4.76728L74.2359 4.30307Z" fill="#626262"/>
<path d="M70.9369 2.44623V8.48091L70.2299 8.94512V1.98202L70.9369 2.44623Z" fill="#121212"/>
<path d="M69.287 1.51801V8.48109L70.2297 8.9453V1.98221L69.287 1.51801Z" fill="#626262"/>
<path d="M81.3062 8.24893V14.2836L80.3636 14.7478V7.78472L81.3062 8.24893Z" fill="#121212"/>
<path d="M79.4211 7.32051V14.2836L80.3637 14.7478V7.78472L79.4211 7.32051Z" fill="#626262"/>
<path d="M74.2354 4.30313V10.3378L70.936 8.48099V2.44631L74.2354 4.30313Z" fill="#E84646"/>
<path d="M74.2354 4.30313V7.55257L70.936 5.69575V2.44631L74.2354 4.30313Z" fill="#A1A1A1"/>
<path d="M75.8852 8.01681L75.1782 8.481L79.4202 11.0341V10.1057L75.8852 8.01681Z" fill="#6F6F6F"/>
<path d="M75.1784 8.48082V8.94503L79.4204 11.4982V11.034L75.1784 8.48082Z" fill="#626262"/>
<path d="M84.1338 13.1231L83.4268 13.3552L81.7771 12.4268L82.4841 12.1947L84.1338 13.1231Z" fill="#A1A1A1"/>
<path d="M81.7766 12.4268V14.0515L83.4263 15.212V13.3552L81.7766 12.4268Z" fill="#878787"/>
<path d="M84.1338 13.1231V14.7478L83.4268 15.212V13.3552L84.1338 13.1231Z" fill="#6E6E6E"/>
<path d="M84.1338 10.5698L83.4268 10.8019L81.7771 9.87354L82.4841 9.64143L84.1338 10.5698Z" fill="#EA5858"/>
<path d="M81.7766 9.87357V11.4983L83.4263 12.6588V10.802L81.7766 9.87357Z" fill="#E84646"/>
<path d="M84.1338 10.5698V12.1945L83.4268 12.6588V10.8019L84.1338 10.5698Z" fill="#E52F2F"/>
<path d="M91.6747 17.533L90.9677 17.7651L89.318 16.8367L90.025 16.6046L91.6747 17.533Z" fill="#DBDBDB"/>
<path d="M89.3175 16.8366V18.6935L90.9672 19.6219V17.765L89.3175 16.8366Z" fill="#C2C2C2"/>
<path d="M91.6747 17.5329V19.1576L90.9677 19.6218V17.765L91.6747 17.5329Z" fill="#A1A1A1"/>
<path d="M91.6747 14.9798L90.9677 15.2119L89.318 14.2835L90.025 14.0514L91.6747 14.9798Z" fill="#7E7E7E"/>
<path d="M89.3175 14.2835V16.1403L90.9672 17.0688V15.2119L89.3175 14.2835Z" fill="#6F6F6F"/>
<path d="M91.6747 14.9798V16.6046L90.9677 17.0688V15.2119L91.6747 14.9798Z" fill="#5F5F5F"/>
<path d="M87.9045 15.212L87.1975 15.6762L85.5478 14.7478L86.2548 14.2836L87.9045 15.212Z" fill="#B1B1B1"/>
<path d="M85.5479 14.748V16.3727L87.1975 17.3011V15.6764L85.5479 14.748Z" fill="#A1A1A1"/>
<path d="M87.9046 15.2121V17.0689L87.1976 17.301V15.6763L87.9046 15.2121Z" fill="#9A9A9A"/>
<path d="M87.9045 12.6589L87.1975 13.1231L85.5478 12.1947L86.2548 11.7304L87.9045 12.6589Z" fill="#B0B0B0"/>
<path d="M85.5479 12.1947V13.8194L87.1975 14.7478V13.1231L85.5479 12.1947Z" fill="#A6A6A6"/>
<path d="M87.9046 12.6588V14.5156L87.1976 14.7477V13.123L87.9046 12.6588Z" fill="#8A8A8A"/>
<path d="M67.4015 5.69585V1.28589L57.5034 -4.28458V-0.106725L67.4015 5.69585Z" fill="#919191"/>
<path d="M92.6177 -6.14155L54.2039 -27.9592V-19.8356L92.6177 1.98204V-6.14155Z" fill="#626262"/>
<path d="M54.9109 -27.0308V-20.0677L91.9108 1.05366V-5.90942L54.9109 -27.0308Z" fill="#0A0A0A"/>
<path d="M55.8536 -26.5666V-20.5319L91.9108 0.12525V1.05366L54.9109 -20.0677V-27.0308L55.8536 -26.5666Z" fill="#777777"/>
<path d="M92.618 1.98196L93.5607 1.74986V-6.60585L92.618 -6.14164V1.98196Z" fill="#121212"/>
</g>
<path d="M115.037 130.31C113.237 131.056 111.286 131.652 109.335 132.1C109.035 132.1 108.885 132.249 108.585 132.249C108.285 132.249 107.985 132.399 107.685 132.399C107.535 132.399 107.535 132.399 107.385 132.548C106.334 132.846 105.134 132.995 103.784 132.995C103.334 132.995 103.033 132.995 102.583 132.995H102.433C101.983 133.145 101.683 133.294 101.383 133.592C101.233 133.891 101.083 134.04 101.083 134.189C101.383 134.338 101.383 134.488 101.533 134.637C101.533 134.637 101.533 134.488 101.683 134.488C102.583 134.935 103.484 135.383 104.384 135.98C104.534 136.129 104.684 136.129 104.834 136.278C104.834 136.427 104.834 136.427 104.834 136.576C105.734 137.024 106.635 137.323 107.385 137.77C108.585 138.516 109.786 139.412 111.286 140.158C111.286 140.158 111.736 140.307 111.886 140.456C112.036 140.605 112.036 140.754 111.886 140.754C111.886 141.053 111.886 141.202 111.886 141.5C111.886 142.097 111.586 142.545 111.286 143.142C111.286 143.291 111.136 143.44 111.136 143.589C110.986 143.888 110.686 144.186 110.236 144.634C109.485 145.38 108.735 146.126 107.835 146.872C107.535 147.171 107.235 147.32 106.935 147.618C106.485 148.066 105.884 148.364 105.434 148.812C104.984 149.11 104.234 149.707 103.184 149.856C102.883 149.856 102.433 149.856 102.133 149.856C101.983 149.856 101.983 150.006 101.983 150.006C101.383 150.453 100.633 150.901 99.8825 151.348C97.7819 152.542 95.0811 153.587 92.2302 154.482C88.6292 155.974 82.1772 158.063 80.6768 158.66C80.5267 158.66 80.3767 158.809 80.0766 158.809C79.7765 158.958 79.6265 158.958 79.3264 159.108C79.0263 159.257 78.8762 159.257 78.5762 159.406C77.976 159.555 77.5258 159.854 76.9257 160.003C75.2752 160.6 73.3246 161.047 71.374 161.346C71.0739 161.346 70.9239 161.495 70.6238 161.495C67.6229 162.987 63.4216 164.778 59.9706 166.568C58.4701 167.314 57.2698 168.359 56.0694 169.254C54.8691 170 54.1188 169.702 53.8187 168.06C53.6687 166.717 53.5187 165.374 53.8187 164.032C54.1188 162.987 54.8691 161.943 55.3192 160.898C56.0694 159.406 56.8196 157.914 57.2698 156.422C57.7199 155.079 58.02 153.437 57.4198 152.095C56.9697 150.752 55.3192 149.707 53.9688 150.006C53.2186 150.155 52.7684 150.752 52.1683 151.199C50.5178 152.542 45.1161 155.825 44.9661 151.647C44.666 146.275 50.6678 144.783 54.569 142.396C55.7693 141.65 57.4198 141.053 58.9203 140.456C60.4207 139.859 61.7711 139.412 62.6714 139.262C62.8214 139.262 63.1215 139.113 63.2716 139.113C62.9715 138.964 62.6714 138.815 62.3713 138.516C61.321 137.472 65.6723 136.278 67.1727 135.532C68.5232 134.935 70.0236 134.189 71.524 133.443C73.0245 132.846 74.5249 132.249 76.3255 131.802C76.9257 131.354 77.3758 131.354 77.976 131.205C80.0766 131.056 82.1772 131.205 84.1278 131.503L84.2779 131.354C84.578 130.608 86.0784 129.414 86.0784 129.414C86.3785 129.116 86.9787 128.668 87.2788 128.37C87.2788 128.37 87.2788 128.37 87.4288 128.221C87.8789 127.773 88.6292 127.475 89.0793 127.176C89.3794 127.027 89.3794 126.878 89.6795 126.579C90.1296 126.132 90.8798 125.982 91.7801 125.684C92.8304 125.386 93.7307 125.087 94.781 124.64C91.7801 123.595 94.1808 122.551 97.3318 122.401C97.932 122.401 98.6822 122.401 99.2824 122.401C102.283 122.401 105.434 123.147 107.835 123.744C110.536 124.64 113.837 125.386 115.037 126.728C115.337 127.027 115.787 127.475 116.087 127.922C116.688 128.817 116.688 129.564 115.037 130.31ZM47.5169 150.006C47.6669 150.006 47.6669 149.856 47.8169 149.856C47.967 149.707 48.117 149.707 48.4171 149.558C49.6175 148.812 50.8178 148.066 52.0182 147.469C51.418 147.618 50.8178 147.917 50.2177 148.066C49.3174 148.364 48.7172 148.513 48.4171 148.663C48.2671 148.663 48.2671 148.812 48.117 148.812C48.117 148.812 47.967 148.812 47.967 148.961C47.967 148.961 47.967 148.961 47.8169 149.11C47.8169 149.11 47.6669 149.11 47.6669 149.26C47.6669 149.26 47.6669 149.409 47.5169 149.409C47.6669 149.409 47.6669 149.707 47.5169 150.006C47.6669 150.006 47.6669 150.006 47.5169 150.006Z" fill="#CDCDCD"/>
<path d="M41.9655 76.5931C41.0652 79.5774 40.165 82.4124 39.8649 83.1585C39.7148 83.9045 38.5145 87.1872 37.6142 90.1714C37.1641 91.3651 36.864 92.4096 36.5639 93.3049C36.2638 94.3494 36.1138 95.2446 35.9637 95.5431C35.9637 95.6923 35.9637 95.6923 35.9637 95.8415C35.9637 95.9907 35.8137 95.9907 35.8137 96.1399L35.6636 96.2891C35.3635 96.4383 35.2135 95.9907 35.2135 95.6923C35.2135 94.4986 35.3635 93.3049 35.5136 92.1112C36.5639 83.9045 36.1138 75.5486 35.8137 67.342V65.8498C36.1138 64.9546 37.3141 64.8054 38.0643 65.253C38.8146 65.7006 39.2647 66.5959 39.5648 67.342C40.4651 69.2817 41.2153 71.3707 41.5154 73.4597C41.8155 74.5042 41.9655 75.5486 41.9655 76.5931Z" fill="#C9C9C9"/>
<path fill-rule="evenodd" clip-rule="evenodd" d="M42.6254 74.317C43.1593 72.5097 43.616 70.9638 43.616 70.3262C43.6624 69.7257 43.9389 68.5247 44.263 67.1171C44.9858 63.9776 45.9452 59.8103 45.1164 58.9861C43.9161 58.0908 35.3635 60.0306 35.3635 60.0306C35.3635 60.0306 35.3635 65.9991 34.3132 67.7896C34.0131 68.8341 33.563 70.4754 33.1128 72.4152C32.6627 74.3549 32.3626 76.5931 32.3626 78.8313C32.3626 81.9648 32.2126 89.2762 32.0625 93.6033C32.0625 94.6816 31.9978 95.5666 31.9533 96.1739C31.9301 96.491 31.9125 96.7324 31.9125 96.886C31.6124 98.3781 31.0122 102.705 31.0122 103.004C31.0122 103.302 32.6627 107.331 33.1128 107.778C33.563 108.077 35.6636 109.121 35.6636 109.121L37.3141 108.972L37.4641 108.525L38.2144 108.674L38.5144 107.928L38.2144 107.331V106.436C38.2144 106.436 37.6142 103.601 37.6142 102.705C37.6142 102.567 37.6178 102.414 37.6216 102.25C37.6426 101.355 37.6714 100.133 37.164 99.1242C37.0354 98.8257 36.8823 98.5517 36.7292 98.2776C36.3465 97.5925 35.9637 96.9073 35.9637 95.8415V95.5431C36.0468 95.3777 36.13 95.0289 36.2387 94.5731C36.3261 94.2064 36.4301 93.7705 36.5639 93.3049C36.6589 93.0214 36.7539 92.723 36.8537 92.4096C37.069 91.7333 37.3066 90.9872 37.6142 90.1714C38.0643 88.6793 38.5895 87.1126 39.0208 85.8256C39.4522 84.5387 39.7898 83.5315 39.8649 83.1585C40.1649 82.4124 41.0652 79.5774 41.9655 76.5931C42.1814 75.8202 42.4097 75.0473 42.6254 74.317ZM34.1631 104.496C34.3131 103.75 34.4632 102.705 34.4632 102.705L35.2134 103.302C35.2134 103.302 35.3635 103.451 35.5135 103.75C35.6636 104.048 35.8136 105.839 35.8136 105.839C35.8136 105.839 35.8136 106.436 35.9636 107.032C35.9636 107.778 37.014 108.674 37.014 108.674C37.014 108.674 36.2637 108.226 35.9636 108.077C35.8136 107.928 34.9133 107.331 34.9133 107.331L34.1631 105.839C34.1631 105.839 34.0131 105.242 34.1631 104.496Z" fill="#FFE1CF"/>
<path d="M35.0634 97.3336C34.9134 96.886 34.9134 96.4384 34.7633 95.9907C34.6133 95.5431 34.4632 95.0954 34.1631 94.797C34.1631 94.797 34.0131 94.797 34.0131 94.6478H33.8631C33.563 94.797 33.563 95.0954 33.4129 95.3939C33.2629 95.9907 33.563 96.7368 33.713 97.3336C33.8631 97.9305 34.0131 98.6765 33.713 99.2734C33.563 99.5718 33.2629 99.8702 32.8127 100.169C32.6627 100.318 32.5127 100.467 32.3626 100.616C32.3626 101.064 32.3626 101.213 32.3626 101.512C32.3626 101.959 32.2126 102.258 32.2126 102.705C32.2126 102.854 32.2126 103.153 32.2126 103.302C32.2126 103.601 32.3626 103.75 32.3626 104.048C32.8127 105.242 33.1128 106.286 33.563 107.331C33.563 107.48 33.713 107.629 33.713 107.629C33.8631 107.778 34.0131 107.778 34.0131 107.629C34.1631 107.48 34.1631 107.182 34.0131 107.032C33.713 106.286 33.4129 105.391 33.2629 104.496C33.1128 103.451 33.2629 102.258 34.1631 101.661C34.3132 101.512 34.6133 101.362 34.9134 101.512C35.0634 101.661 35.2135 101.959 35.2135 102.108C35.3635 102.407 35.5136 102.556 35.6636 102.854C35.8136 103.153 35.8136 103.302 35.9637 103.601C36.1137 104.197 36.2638 104.943 36.5639 105.54C36.5639 105.69 36.7139 105.839 36.7139 105.988C36.864 106.137 37.014 106.137 37.014 106.137C37.164 106.137 37.164 105.839 37.3141 105.69C37.4641 104.645 37.164 103.451 37.014 102.407C37.014 101.959 37.014 101.362 36.864 100.915C36.7139 100.467 36.7139 100.019 36.5639 99.5718C36.1137 98.6765 35.3635 98.2289 35.0634 97.3336Z" fill="#FFEEE4"/>
<path d="M45.1165 147.917C45.1165 147.917 45.1165 150.901 42.8658 152.244C40.4651 153.587 36.2639 156.869 36.2639 156.869C36.2639 156.869 34.9135 159.257 35.2136 160.898C35.3636 161.644 35.9638 162.092 36.4139 162.539C38.3645 164.181 42.1156 162.838 43.7661 161.346C44.9665 160.152 46.1668 158.958 47.5172 158.063C48.8676 157.168 50.5181 156.869 52.0186 156.272C53.0689 155.825 53.6691 155.377 53.8191 154.183C53.9692 153.437 53.8191 152.691 53.519 151.945C53.2189 151.348 52.9189 151.05 52.4687 150.752C52.0186 150.453 51.4184 150.155 50.9683 149.707C50.2181 149.259 49.4678 148.812 48.7176 148.215L45.1165 147.917Z" fill="#262626"/>
<path d="M65.5226 152.244C65.6727 152.542 65.8227 152.841 65.9728 153.288C66.1228 153.736 66.2729 154.183 66.4229 154.78C66.723 155.825 66.723 156.72 66.4229 157.765C65.9728 159.108 65.0725 160.152 64.1722 161.047C62.5217 162.987 61.3214 165.374 59.3708 167.165C57.5702 168.657 55.3196 170 52.9189 170C49.1677 170 49.4678 168.806 49.6179 166.568C49.7679 164.33 53.2189 161.196 53.8191 159.854C54.4193 158.511 56.67 154.184 56.67 154.184L59.6709 152.393C60.2711 152.393 61.0213 152.393 61.6215 152.393C62.2216 152.393 62.8218 152.393 63.2719 152.393C63.7221 152.393 64.4723 152.542 64.7724 152.095C64.9224 151.945 64.9224 151.796 64.9224 151.498C64.9224 151.199 64.9224 151.05 64.9224 150.752C65.0725 151.199 65.3726 151.796 65.5226 152.244Z" fill="#262626"/>
<path d="M53.0688 151.647C52.9188 152.542 53.0688 153.437 52.7687 154.183C52.7687 154.183 52.7687 154.333 52.6187 154.333C52.4687 154.482 52.3186 154.631 52.1686 154.78C52.0185 154.93 52.0185 154.93 51.8685 154.93C51.7184 155.079 51.5684 155.079 51.2683 155.228C50.9682 155.377 50.6681 155.377 50.5181 155.526C50.218 155.676 50.0679 155.676 49.7678 155.825C49.1677 155.974 48.5675 156.272 48.1174 156.422C47.3671 156.72 46.6169 157.466 46.0167 157.914C45.2665 158.511 44.5163 159.107 43.766 159.854C42.5657 161.047 40.7651 161.495 39.1147 161.793C38.2144 161.942 37.6142 161.942 36.864 161.495C36.7139 161.346 36.5639 161.346 36.4138 161.196C36.2638 161.047 36.1138 161.047 35.9637 160.898C35.8137 160.749 35.6636 160.6 35.5136 160.45C35.3635 160.301 35.3635 160.301 35.2135 160.152V160.003C35.0634 159.854 35.0634 159.555 34.9134 159.406C34.9134 159.257 34.7633 158.958 34.7633 158.809C34.7633 158.511 34.7634 158.212 34.9134 157.914C35.2135 156.571 36.1138 155.377 37.1641 154.482C38.5145 153.437 40.7651 151.796 42.2656 150.901C44.6663 149.558 44.5163 146.574 44.5163 146.574L48.1174 147.021C48.5675 147.32 49.0176 147.618 49.4678 147.917C49.7678 148.066 50.0679 148.364 50.368 148.513C50.6681 148.663 50.9682 148.663 51.2683 148.513C51.4183 148.513 51.4183 148.513 51.5684 148.513C51.7184 148.513 51.8685 148.364 52.0185 148.513C52.1686 148.513 52.1686 148.663 52.1686 148.812C53.0688 149.558 53.2189 150.602 53.0688 151.647Z" fill="#707070"/>
<path d="M53.0687 151.647C52.9187 152.542 53.0687 153.437 52.7687 154.183C52.7687 154.183 52.7687 154.333 52.6186 154.333C52.4686 154.482 52.3185 154.631 52.1685 154.78C52.0184 154.93 52.0184 154.93 51.8684 154.93C51.7183 155.079 51.5683 155.079 51.2682 155.228C50.9681 155.377 50.668 155.377 50.518 155.526C50.2179 155.676 50.0678 155.676 49.7678 155.825C49.1676 155.974 48.5674 156.272 48.1173 156.422C47.367 156.72 46.6168 157.466 46.0166 157.914C45.2664 158.511 44.5162 159.107 43.766 159.854C42.5656 161.047 40.7651 161.495 39.1146 161.793C38.2143 161.943 37.6141 161.943 36.8639 161.495C36.7138 161.346 36.5638 161.346 36.4138 161.196C36.2637 161.047 36.1137 161.047 35.9636 160.898C35.8136 160.749 35.6635 160.6 35.5135 160.45C35.3634 160.301 35.3634 160.301 35.2134 160.152V160.003C35.0634 159.854 35.0634 159.555 34.9133 159.406C34.9133 159.257 34.7633 158.958 34.7633 158.809C34.7633 158.511 34.7633 158.212 34.9133 157.914C35.0634 158.361 35.3634 158.809 35.9636 159.107C36.4138 159.406 37.0139 159.406 37.4641 159.555C38.0643 159.704 38.6644 159.704 39.2646 159.555C39.8648 159.406 40.615 159.406 41.2152 159.107C42.1155 158.66 42.8657 157.765 43.766 157.168C44.2161 156.869 44.5162 156.571 45.1164 156.272C45.7165 155.974 46.3167 155.676 46.9169 155.377C47.9672 154.93 49.0175 154.333 49.7678 153.587C50.518 152.841 50.9681 151.647 50.668 150.453C50.518 149.856 50.8181 149.558 51.1182 149.11C51.2682 148.961 51.4183 148.663 51.4183 148.364C51.5683 148.364 51.5683 148.364 51.7183 148.364C51.8684 148.364 52.0184 148.215 52.1685 148.364C52.3185 148.364 52.3185 148.513 52.3185 148.663C53.0687 149.558 53.2188 150.602 53.0687 151.647Z" fill="#313131"/>
<path d="M65.6725 155.228C65.6725 155.526 65.5225 155.676 65.5225 155.974C65.3725 156.422 65.2224 156.72 65.2224 157.019C65.2224 157.168 65.2224 157.168 65.0724 157.317C64.9223 157.765 64.7723 158.212 64.6222 158.66V158.809C64.3221 159.704 63.872 160.6 62.9717 161.793C62.6716 162.092 62.5216 162.39 62.2215 162.689C59.9708 165.524 56.6698 168.508 52.9187 168.508C52.7687 168.508 52.6186 168.508 52.3185 168.508C51.4183 168.508 50.8181 168.359 50.518 168.209C50.3679 168.209 50.368 168.06 50.2179 168.06C50.0679 168.06 50.0679 167.911 49.9178 167.911C49.7678 167.762 49.7678 167.762 49.6177 167.613C49.6177 167.463 49.4677 167.463 49.4677 167.314C49.4677 167.165 49.4677 167.165 49.3176 167.016C49.1676 166.568 49.3176 165.822 49.3176 165.076C49.4677 162.838 52.9187 159.704 53.5189 158.511C53.969 157.466 54.4192 156.571 55.0193 155.526C55.3194 155.079 55.6195 154.482 55.7696 153.885C56.2197 152.99 56.6698 152.542 57.5701 151.945C58.0202 151.647 58.3203 151.498 58.7705 151.199C58.9205 151.199 59.2206 150.901 59.2206 150.901C60.2709 150.901 61.1712 150.901 62.2215 150.901C62.6716 150.901 63.4219 150.752 63.872 150.901C64.022 150.901 64.1721 150.901 64.3221 150.901C65.0724 151.05 65.2224 152.244 65.2224 152.99C65.5225 153.736 65.6725 154.482 65.6725 155.228Z" fill="#707070"/>
<path d="M65.6725 155.228C65.6725 155.526 65.5225 155.676 65.5225 155.974C65.3725 156.272 65.3725 156.72 65.2224 157.019C65.2224 157.168 65.2224 157.168 65.0724 157.317C64.9223 157.765 64.7723 158.212 64.6222 158.66V158.809C64.1721 159.854 63.5719 160.898 62.9717 161.793C62.6716 162.092 62.5216 162.39 62.2215 162.689C59.9708 165.524 56.6698 168.508 52.9187 168.508C52.7687 168.508 52.6186 168.508 52.3185 168.508C51.7184 168.508 50.9681 168.508 50.518 168.209C50.3679 168.209 50.368 168.06 50.2179 168.06C50.0679 168.06 50.0679 167.911 49.9178 167.911C49.7678 167.762 49.7678 167.762 49.6177 167.613C49.6177 167.463 49.4677 167.463 49.4677 167.314C49.4677 167.165 49.4677 167.165 49.3176 167.016C49.1676 166.419 49.1676 165.673 49.3176 165.076V164.927C49.3176 164.927 50.3679 165.673 50.518 165.822C51.8684 166.568 54.1191 166.419 55.6195 165.971C56.0697 165.822 56.6698 165.673 57.12 165.374C57.7202 165.076 58.3203 164.927 58.9205 164.479C59.5207 164.032 59.9708 163.584 60.421 163.136C61.1712 162.39 61.9214 161.495 62.3716 160.6C62.9717 159.704 63.2718 158.66 63.5719 157.615C63.872 156.571 64.022 155.526 64.022 154.631C64.022 153.736 63.722 152.841 63.722 151.945C63.722 151.498 63.872 151.199 64.022 150.901C64.1721 150.901 64.3221 150.901 64.4722 150.901C65.2224 151.05 65.3725 152.244 65.3725 152.99C65.5225 153.736 65.6725 154.482 65.6725 155.228Z" fill="#313131"/>
<path d="M36.7139 90.6191C36.4138 90.6191 35.9636 90.6191 35.6635 90.6191C34.9133 90.4699 34.1631 90.3207 33.2628 90.3207H32.3626C32.0625 90.9175 32.0625 91.5144 31.9124 92.1112C31.9124 92.7081 31.7624 93.4541 31.7624 94.051C31.7624 94.2002 31.7624 94.3494 31.7624 94.4986C31.7624 94.6478 31.9124 94.6478 31.9124 94.7971C32.6626 95.3939 33.5629 95.5431 34.4632 95.5431C35.2134 95.5431 36.5638 95.8415 37.0139 95.2447C37.164 94.9463 37.164 94.3494 37.314 93.9018C37.314 93.6034 37.4641 93.3049 37.4641 92.8573C37.4641 92.5589 37.7642 91.0667 37.6141 91.0667C37.4641 90.9175 37.164 90.6191 36.7139 90.6191Z" fill="#727272"/>
<path d="M39.4145 60.9258C39.7146 62.7164 40.4649 64.5069 40.0147 66.2975C39.5646 68.2372 39.5646 70.3262 39.2645 72.266C38.9644 75.2502 38.3642 78.3837 38.0641 81.3679C37.9141 82.7108 37.9141 84.0537 38.2142 85.3966C38.5143 86.7396 38.5143 88.2317 38.5143 89.5746C38.5143 90.0222 38.5143 90.4699 38.2142 90.9175C37.764 91.5143 36.4136 91.6636 35.8135 91.8128C34.6131 91.962 33.7128 91.5143 32.6625 91.0667C32.0623 90.9175 31.6122 90.9175 31.3121 90.3206C30.7119 89.2762 31.1621 87.9333 31.1621 86.8888C31.1621 84.7998 31.3121 82.7108 31.6122 80.6218C32.0623 77.6376 32.9626 74.6534 33.2627 71.6691C33.5628 69.8786 33.4127 68.088 33.5628 66.2975C33.7128 64.8054 33.5628 63.4624 33.4127 61.9703C33.1126 58.3892 33.5628 54.6589 34.163 51.0778C34.4631 48.9889 34.9132 47.0491 35.8135 45.1093C35.9635 44.6617 36.2636 44.0649 36.7137 43.6172C37.764 42.5727 39.1144 41.6775 40.6149 41.2298C42.2654 40.633 43.9159 40.7822 45.7164 40.9314C44.9662 41.379 44.216 41.6775 43.3157 42.1251C43.0156 42.2743 42.7155 42.4235 42.4154 42.7219C41.9653 43.1696 41.6652 43.7664 41.5152 44.3633C41.2151 45.1093 40.915 45.8554 40.6149 46.6015C40.1648 48.0936 39.7146 49.7349 39.4145 51.3763C39.2645 51.9731 39.1144 52.7192 38.9644 53.316C38.8144 53.6144 38.8144 53.9129 38.8144 54.2113C38.6643 54.8081 38.6643 55.5542 38.6643 56.151C38.6643 57.0463 38.8144 57.9416 39.1144 58.8369C38.9644 59.5829 39.2645 60.329 39.4145 60.9258Z" fill="#898989"/>
<path d="M40.0148 66.2975C39.5647 68.2373 39.5647 70.3263 39.2646 72.266C38.9645 75.2503 38.3643 78.3837 38.0642 81.368C37.9142 82.7109 37.9142 84.0538 38.2143 85.3967C38.5144 86.7396 38.5144 88.2317 38.5144 89.5746C38.5144 90.0223 38.5144 90.4699 38.2143 90.9176C37.7642 91.5144 36.4138 91.6636 35.8136 91.8128C35.0633 91.962 34.1631 91.8128 33.5629 91.5144C33.4129 91.5144 33.4128 91.3652 33.2628 91.3652C34.013 91.0668 34.7633 90.7683 35.3634 90.3207C35.8136 90.0223 36.2637 89.7239 36.4138 89.2762C36.5638 88.8286 36.7138 88.3809 36.7138 88.0825C36.8639 83.9046 36.8639 79.8758 36.4138 75.6979C36.4138 75.1011 36.2637 74.6534 35.9636 74.2058C35.6635 73.7581 35.0633 73.4597 34.6132 73.7581C36.1137 72.4152 36.2637 70.1771 36.2637 68.2373C36.2637 66.2975 36.2637 64.2086 35.9636 62.2688C35.8136 61.3735 35.6635 60.4783 35.5135 59.583C35.3634 58.5385 35.3634 57.6432 35.5135 56.5987C35.5135 56.0019 35.6635 55.2558 35.8136 54.659C36.1137 54.0621 36.5638 53.6145 37.164 53.3161C37.314 53.3161 37.6141 53.1669 37.7642 53.3161C39.1146 53.6145 38.5144 55.405 38.5144 56.3003C38.5144 57.1956 38.6644 58.0909 38.9645 58.9861C39.1146 59.7322 39.4147 60.329 39.4147 61.0751C39.7147 62.7164 40.3149 64.507 40.0148 66.2975Z" fill="#727272"/>
<path d="M35.6635 59.4337C36.2637 62.8656 36.2637 66.4467 36.5637 70.0278C36.7138 73.6089 37.0139 77.0408 37.0139 80.4727C37.0139 82.114 37.1639 83.9045 37.1639 85.5459C37.7641 85.8443 38.3643 85.9935 38.9645 86.2919C39.7147 81.9648 39.7147 77.4884 38.9645 73.1613C38.8144 71.9676 38.5143 70.7739 38.5143 69.5802C38.5143 68.9833 38.5143 68.3865 38.6644 67.7896C38.6644 67.342 38.8144 67.0435 38.8144 66.5959C38.9645 64.0593 38.8144 61.5227 38.6644 58.9861C38.6644 57.494 38.5143 55.8526 38.3643 54.3605C38.3643 53.6144 38.2142 53.0176 38.2142 52.2715C38.2142 51.6747 38.2142 51.0778 37.9141 50.481C37.6141 49.7349 37.1639 48.9889 36.4137 48.5412C35.9636 48.2428 35.3634 48.2428 35.2133 48.6904L34.9132 49.5857C34.9132 49.7349 34.7632 49.8841 34.7632 50.0334C34.7632 53.0176 35.2133 56.3003 35.6635 59.4337Z" fill="#6B6B6B"/>
<path d="M73.6248 47.7952V47.9444C73.4748 48.2428 73.3247 48.6905 73.0246 48.9889C72.5745 49.2873 72.2744 49.5857 71.8243 49.8842C71.6742 50.0334 71.3741 50.1826 71.2241 50.3318C71.0741 50.481 70.924 50.6302 70.774 50.7794C70.1738 51.6747 69.8737 52.7192 69.7236 53.6145C69.4236 55.405 69.8737 57.1956 69.8737 59.1353C70.0237 62.5672 70.1738 65.8499 70.1738 69.2818C70.1738 70.3262 70.1738 71.2215 70.1738 72.266C70.1738 73.1613 70.1738 74.2058 70.0237 75.2502C70.0237 76.1455 70.0237 76.8916 69.8737 77.7868V78.0853C69.8737 78.3837 69.8737 78.8313 69.8737 79.1298C69.7236 81.2187 69.5736 83.6061 68.6733 85.5459C67.473 87.7841 65.6724 88.3809 63.5718 89.7238C58.9204 92.7081 53.3688 93.7526 47.9671 92.8573C46.7668 92.7081 45.5664 92.4096 44.5161 91.962C42.4155 91.2159 40.6149 90.0223 39.1145 88.3809C37.1639 86.2919 37.1639 84.6506 37.3139 81.9648C37.3139 81.8156 37.3139 81.6664 37.3139 81.6664C37.3139 81.3679 37.3139 81.0695 37.3139 80.7711C37.1639 77.3392 37.0139 73.7581 36.8638 70.3262C36.7138 66.7451 36.5637 63.1641 35.9635 59.7322C35.9635 59.4338 35.8135 59.1353 35.8135 58.6877C35.6634 58.2401 35.6634 57.7924 35.6634 57.1956C35.6634 57.0464 35.6634 56.8971 35.6634 56.7479C35.3634 54.5097 35.2133 52.2716 35.5134 50.0334C35.5134 49.5857 35.6634 48.9889 35.6634 48.5413C35.9635 47.0491 36.2636 44.811 37.464 43.6173C38.3643 42.5728 40.1648 41.9759 41.3652 41.3791C41.3652 41.3791 41.3652 41.3791 41.5152 41.3791C41.8153 41.3791 42.2654 41.2299 42.8656 41.2299C43.7659 41.0807 45.1163 40.9314 46.4667 40.7822C49.3175 40.4838 52.6185 40.1854 53.5188 40.3346C55.0192 40.4838 55.3193 40.1854 56.6697 39.887C56.8198 39.887 56.9698 39.7377 57.2699 39.7377C57.8701 39.5885 58.4703 39.7377 59.0705 39.7377C59.2205 39.7377 59.5206 39.7377 59.6706 39.887C60.1208 40.0362 60.5709 40.0362 61.021 40.1854C61.3211 40.3346 61.6212 40.3346 61.9213 40.4838C62.3714 40.633 62.9716 40.7822 63.4218 40.9314C64.6221 41.2299 65.6724 41.6775 66.8728 42.2743C68.8234 43.3188 70.774 44.6617 72.8746 45.4078C73.0246 45.4078 73.1747 45.557 73.3247 45.557L73.4748 45.7062L73.6248 45.8554C73.9249 46.1539 74.075 46.4523 74.075 46.8999C73.6248 47.1984 73.6248 47.4968 73.6248 47.7952Z" fill="#898989"/>
<path d="M46.6169 50.481L43.1658 84.0538L45.4165 87.4857L48.1173 85.0983L49.6178 51.9732L46.6169 50.481Z" fill="#727272"/>
<path d="M45.7164 48.392L43.3157 51.9731C43.3157 51.9731 41.065 47.7952 42.5655 44.3633C44.216 40.9314 44.216 40.9314 44.216 40.9314C44.216 40.9314 43.0156 46.7507 45.7164 48.392Z" fill="#727272"/>
<path d="M39.5646 89.127C39.5646 89.4254 39.4145 89.7238 39.1144 89.7238C38.8143 89.873 38.3642 89.7238 38.2142 89.4254C37.9141 89.127 37.9141 88.8286 37.764 88.3809C37.4639 87.1872 37.1638 86.1427 37.0138 84.949C36.8638 83.9046 37.0138 82.8601 37.0138 81.6664C37.0138 81.5172 37.0138 81.3679 37.0138 81.3679C37.0138 81.0695 37.0138 80.7711 37.0138 80.4727C36.8638 77.0408 36.7137 73.4597 36.5637 70.0278C36.4136 66.4467 36.2636 62.8656 35.6634 59.4337C35.6634 59.1353 35.5133 58.8369 35.5133 58.3893C35.3633 57.9416 35.3633 57.494 35.3633 56.8971C35.3633 56.7479 35.3633 56.5987 35.3633 56.4495C35.0632 54.2113 34.9132 51.9731 35.2133 49.735C35.2133 49.2873 35.3633 48.6905 35.3633 48.2428C35.6634 46.7507 35.9635 44.5125 37.1638 43.3188C38.0641 42.2743 39.8647 41.6775 41.065 41.0806C41.3651 41.2299 41.8152 41.3791 42.1153 41.5283C39.8647 42.1251 38.2142 44.0649 37.3139 46.3031C36.5637 48.392 36.4136 50.7794 36.4136 53.1668C36.4136 54.8082 36.2636 56.4495 36.2636 58.0908C36.2636 59.583 36.1135 61.2243 36.7137 62.7164C37.1638 64.2085 38.5142 65.5514 40.0147 65.7007C40.0147 66.2975 38.9644 66.1483 38.3642 66.2975C37.4639 66.4467 37.3139 67.6404 37.3139 68.3865C37.3139 70.6247 37.3139 73.0121 37.4639 75.2502C37.4639 77.4884 37.614 79.5774 37.764 81.6664C38.0641 83.9046 38.8143 85.9935 39.4145 88.0825C39.4145 88.5301 39.5646 88.8286 39.5646 89.127Z" fill="#727272"/>
<path d="M73.6249 47.7952C73.6249 47.9444 73.6249 47.9444 73.6249 47.7952C73.6249 48.3921 73.3248 48.5413 73.0247 48.9889C72.5746 49.2873 72.2745 49.5858 71.8244 49.8842L71.6743 50.0334C71.5243 50.1826 71.3742 50.3318 71.2242 50.481C71.0741 50.6302 70.9241 50.7795 70.774 50.9287C70.1739 51.8239 69.8738 52.8684 69.7237 53.7637C69.4236 55.5542 69.8738 57.3448 69.8738 59.2846C70.0238 62.7164 70.1739 65.9991 70.1739 69.431C70.1739 70.4755 70.1739 71.3707 70.1739 72.4152C70.1739 73.3105 70.1739 74.355 70.0238 75.3995C70.0238 76.2947 70.0238 77.0408 69.8738 77.9361V78.2345C69.8738 78.5329 69.8738 78.9806 69.8738 79.279C69.7237 81.368 69.5737 83.6061 68.6734 85.5459C68.2233 86.4412 67.6231 87.3364 66.8729 87.9333C66.2727 88.3809 65.0723 89.7238 65.0723 88.0825C65.2224 84.9491 66.5728 82.4124 66.5728 79.279C66.5728 77.7869 66.8729 75.101 65.9726 73.7581C65.0723 72.266 62.5216 71.52 61.0211 71.2215C58.9205 70.7739 56.6698 70.3263 54.8693 69.1326C56.5198 69.8786 58.3203 70.177 60.1209 69.7294C61.7713 69.2818 63.1217 68.2373 64.022 66.8944C64.9223 65.4023 64.7722 63.7609 64.4722 62.1196C63.872 58.2401 63.7219 54.0621 65.3724 50.3318C66.2727 48.5413 67.473 46.4523 66.2727 44.811C65.9726 44.3633 65.3724 44.0649 64.9223 43.7665C64.1721 43.3188 63.5719 42.8712 62.8217 42.5728C62.3715 42.2744 60.8711 41.8267 60.8711 41.3791C60.8711 41.2299 61.3212 40.1854 61.4713 39.887C61.9214 39.4393 62.5216 39.5885 62.9717 39.887C64.9223 40.7822 66.7228 41.8267 68.5234 42.8712C70.0238 43.7665 71.9744 44.811 73.3248 46.1539C73.4748 46.3031 73.4748 46.6015 73.6249 46.8999C73.4748 46.8999 73.6249 47.3476 73.6249 47.7952Z" fill="#727272"/>
<path d="M67.3232 128.071C67.3232 128.668 67.1731 129.414 67.1731 130.011C67.1731 130.608 67.1731 131.354 67.0231 131.951C66.723 135.681 65.9728 139.262 65.6727 142.843C65.5226 146.574 65.8227 151.199 63.272 154.184C61.3214 156.571 56.9701 155.825 56.67 152.393C56.5199 149.856 56.3699 147.469 56.0698 144.932C55.4696 137.77 54.4193 130.608 53.219 123.595C53.219 123.893 53.219 124.341 53.219 124.639C53.369 125.833 53.519 127.027 53.6691 128.37C53.6691 128.519 53.6691 128.519 53.6691 128.519C53.6691 128.967 53.8191 129.414 53.8191 129.862V130.011C53.8191 131.652 53.9692 133.294 53.8191 134.786C53.8191 135.83 53.8191 137.024 53.6691 138.069C53.519 141.053 54.1192 150.304 49.6179 150.304C48.4175 150.304 46.617 150.155 45.5667 149.409C44.8164 148.812 44.5163 147.917 44.2163 147.021C44.2163 146.872 44.2163 146.872 44.2163 146.723C43.9162 145.38 44.0662 144.186 44.0662 142.843C43.9162 141.5 43.9162 140.008 43.7661 138.665C43.6161 135.98 43.316 133.294 42.8659 130.459C41.8155 123.893 40.7652 117.328 39.7149 110.912C38.6646 104.347 37.7643 97.7813 37.1641 91.2159C37.1641 90.9175 37.0141 90.4699 37.0141 90.1715C36.8641 89.4254 36.714 88.5301 36.564 87.7841C36.564 87.1872 36.4139 86.7396 36.2639 86.1427C36.2639 85.8443 36.2639 85.5459 36.2639 85.3967C36.2639 85.0983 36.4139 84.7998 36.4139 84.6506C36.564 85.2475 36.8641 85.6951 37.1641 86.2919C39.2648 89.4254 42.7158 90.7683 46.3169 91.6636C46.4669 91.6636 46.617 91.8128 46.767 91.8128C47.2172 91.962 47.6673 91.962 48.1174 92.1112C48.8677 92.2604 49.6179 92.4096 50.5181 92.4096C50.8182 92.4096 51.1183 92.4096 51.4184 92.4096C53.9692 92.5589 56.67 91.962 59.0707 90.9175C61.4714 89.873 64.6224 88.0825 66.1228 85.6951C66.4229 85.0983 66.723 84.5014 67.3232 84.3522C67.3232 84.7998 67.3232 85.2475 67.1731 85.5459C67.0231 86.4412 66.723 87.3364 66.573 88.3809C66.573 88.6793 66.573 88.9778 66.573 89.127C66.573 90.3207 66.873 91.5144 67.0231 92.7081C67.3232 95.3939 67.4732 98.0797 68.0734 100.766C68.3735 102.855 68.5235 104.794 68.6736 106.286C69.4238 111.061 67.7733 119.865 67.3232 128.071Z" fill="#2D2D2D"/>
<path d="M56.3697 144.037C56.3697 144.335 56.2197 144.783 56.0696 145.082C55.4695 137.919 54.4192 130.757 53.2188 123.744C53.2188 124.043 53.2188 124.49 53.2188 124.789C53.3688 125.982 53.5189 127.176 53.6689 128.519C53.6689 128.668 53.6689 128.668 53.6689 128.668C53.6689 129.116 53.819 129.563 53.819 130.011V130.16C53.819 131.802 53.969 133.443 53.819 134.935C53.819 135.98 53.819 137.173 53.6689 138.218C53.5189 141.202 54.1191 150.453 49.6177 150.453C48.4174 150.453 46.6168 150.304 45.5665 149.558C44.8163 148.961 44.5162 148.066 44.2161 147.17C45.8666 148.513 48.1173 149.259 49.7678 148.215C50.9681 147.618 51.7183 146.424 52.0184 145.082C52.3185 143.888 52.3185 142.545 52.1685 141.202C52.0184 137.919 51.8684 134.487 51.7183 131.205C51.7183 129.713 51.5683 128.221 51.1182 126.878C50.668 125.535 49.6177 124.192 48.1173 123.744C46.6168 123.297 44.5162 123.744 43.3158 122.7C44.8163 122.849 46.4668 122.7 47.9672 122.401C48.4174 122.252 48.7174 122.252 49.0175 121.954C49.3176 121.655 49.3176 121.208 49.3176 120.909C49.4677 117.477 49.1676 114.195 48.4174 110.912C47.9672 108.823 47.217 106.883 46.7669 104.943C45.7165 100.616 45.7165 96.1399 46.7669 91.8127C47.217 91.962 47.6671 91.962 48.1173 92.1112C48.8675 92.2604 49.6177 92.4096 50.518 92.4096C50.8181 92.4096 51.1182 92.4096 51.4183 92.4096C52.9187 97.3336 52.7687 102.705 52.9187 107.778C53.2188 117.776 54.8693 127.773 56.0696 137.621C56.5198 139.71 56.8199 141.948 56.3697 144.037Z" fill="#262626"/>
<path d="M67.3231 128.071C67.3231 128.668 67.173 129.414 67.173 130.011C67.173 130.608 67.173 131.354 67.023 131.951C66.7229 135.681 65.9726 139.262 65.6726 142.843C65.5225 146.574 65.8226 151.199 63.2718 154.184C61.4713 156.272 57.8702 155.825 56.97 153.288C56.8199 152.99 56.8199 152.691 56.8199 152.244C56.2197 142.545 55.0194 132.995 53.3689 123.446C53.3689 123.744 53.3689 124.192 53.3689 124.49C52.4686 118.373 51.1182 112.404 49.4677 106.585C48.7175 103.899 47.8172 101.362 47.9673 98.6766C48.1173 96.2892 48.8675 94.051 48.7175 91.6636C49.4677 91.8128 50.2179 91.962 51.1182 91.962C53.969 92.1112 56.97 91.6636 59.6708 90.4699C61.4713 89.7238 63.722 88.5301 65.2224 87.038C65.8226 86.4412 66.2727 85.9935 66.5728 85.3967C66.8729 84.7998 67.173 84.203 67.7732 84.0538C67.7732 84.5014 67.7732 84.949 67.6231 85.2475C67.4731 86.4412 67.023 87.6349 67.023 88.8286C67.023 90.0223 67.3231 91.216 67.4731 92.4097C67.7732 95.0955 67.9232 97.7813 68.5234 100.467C68.8235 102.556 68.9735 104.496 69.1236 105.988C69.4237 111.061 67.7732 119.865 67.3231 128.071Z" fill="#313131"/>
<path d="M67.3232 128.071C67.3232 128.668 67.1731 129.414 67.1731 130.011C67.1731 130.608 67.1731 131.354 67.0231 131.951C66.723 135.681 65.9728 139.262 65.6727 142.843C65.5226 146.574 65.8227 151.199 63.272 154.184C61.4714 156.272 57.8704 155.825 56.9701 153.288C58.7706 153.885 60.7212 154.034 62.2217 152.99C63.8722 151.796 64.3223 149.558 64.4723 147.469C65.2226 141.5 65.3726 135.532 64.7724 129.563C64.6224 127.922 64.4723 126.43 62.8218 125.833C61.7715 125.386 60.7212 125.386 59.5208 125.236C58.9207 125.236 56.82 125.386 56.67 124.789C56.2199 123.595 59.0707 124.192 59.5208 124.192C61.4714 124.043 63.1219 122.252 63.8722 120.611C64.9225 118.373 64.7724 115.985 64.9225 113.598C65.2226 110.912 65.6727 108.375 65.6727 105.69C65.8227 102.407 65.6727 99.1242 65.5226 95.8415C65.3726 93.0065 65.5226 89.873 64.7724 87.1872C65.3726 86.5904 65.8227 86.1427 66.1228 85.5459C66.4229 84.949 66.723 84.3522 67.3232 84.203C67.3232 84.6506 67.3232 85.0982 67.1731 85.3967C67.0231 86.5904 66.573 87.7841 66.573 88.9778C66.573 90.1715 66.873 91.3652 67.0231 92.5589C67.3232 95.2447 67.4732 97.9305 68.0734 100.616C68.3735 102.705 68.5235 104.645 68.6736 106.137C69.4238 111.061 67.7733 119.865 67.3232 128.071Z" fill="#2D2D2D"/>
<path d="M67.623 85.5459C67.473 86.4412 67.1729 87.3364 67.0229 88.3809C65.3724 89.873 63.4218 91.0667 61.4712 92.1112C60.1208 92.8573 58.6203 93.4541 57.1199 93.9018C53.6689 94.9463 50.0678 94.797 46.6168 93.9018C43.3158 93.1557 40.1648 91.8128 37.314 90.1715C37.1639 89.4254 37.0139 88.5301 36.8638 87.7841C36.8638 87.1872 36.7138 86.7396 36.5637 86.1427C36.5637 85.8443 36.5637 85.5459 36.5637 85.3967C36.5637 85.0983 36.7138 84.7998 36.7138 84.6506C36.8638 85.2475 37.1639 85.6951 37.464 86.2919C39.5646 89.4254 43.0157 90.7683 46.6168 91.6636C46.7668 91.6636 46.9168 91.8128 47.0669 91.8128C47.517 91.962 47.9672 91.962 48.4173 92.1112C49.1675 92.2604 49.9177 92.4096 50.818 92.4096C51.1181 92.4096 51.4182 92.4096 51.7183 92.4096C54.269 92.5589 56.9699 91.962 59.3706 90.9175C61.7713 89.873 64.9222 88.0825 66.4227 85.6951C66.7228 85.0983 67.0229 84.5014 67.623 84.3522C67.7731 84.7998 67.623 85.2475 67.623 85.5459Z" fill="#262626"/>
<path d="M49.6178 48.0936C49.1676 49.4365 48.7175 50.6302 48.2674 51.9731C48.2674 52.1224 47.8172 52.8684 48.1173 52.8684C48.2674 52.8684 48.4174 52.8684 48.5674 52.8684C49.3177 52.7192 49.9178 52.4208 50.6681 52.2716C51.2683 51.9731 51.8684 51.6747 52.1685 51.2271C52.6187 50.6302 51.8684 50.0334 51.5683 49.5858C51.1182 48.9889 50.368 48.5413 49.6178 48.0936Z" fill="#E8E8E8"/>
<path d="M43.6159 45.557C43.7659 46.4523 44.2161 47.1984 44.6662 47.7952C44.9663 48.2429 45.4164 48.8397 46.0166 49.1381C47.0669 49.735 48.4173 49.735 49.6177 49.4366C50.2179 49.2873 50.9681 49.1381 51.5683 48.9889C52.6186 48.6905 53.819 48.2429 54.7192 47.7952C55.7695 47.1984 56.6698 46.4523 57.8702 46.0047C59.3706 45.4078 61.0211 45.2586 62.5216 44.6618C63.7219 44.2141 64.4722 43.1696 63.872 41.9759C63.7219 41.6775 63.5719 41.3791 63.2718 41.0807C63.1217 40.7822 62.9717 40.4838 62.6716 40.1854C61.7713 38.9917 60.4209 38.0964 60.4209 36.4551C60.2709 34.8138 60.571 33.1724 60.721 31.5311C60.8711 30.4866 61.0211 29.2929 61.3212 28.2484C61.6213 27.0547 62.0714 25.7118 62.5216 24.5181C62.5216 24.6673 61.9214 24.9657 61.7713 25.115C61.1712 25.5626 60.4209 26.1594 59.8208 26.6071C59.5207 26.9055 59.2206 27.0547 58.9205 27.3531C56.9699 28.8453 54.8693 30.4866 52.7686 31.9787C51.8684 32.7248 50.8181 33.4708 49.9178 34.2169C49.0175 34.963 48.1172 35.8582 47.367 36.7535C47.0669 37.2011 46.6168 37.6488 46.3167 38.0964C46.0166 38.6933 46.0166 39.1409 45.5665 39.4393C44.9663 39.887 44.6662 40.4838 44.2161 41.0807C43.7659 41.8267 43.6159 42.5728 43.4659 43.3188C43.6159 44.0649 43.4659 44.811 43.6159 45.557Z" fill="#FFEEE4"/>
<path d="M45.7165 39.4393C47.8172 40.1853 50.2179 39.5885 52.3185 38.9916C53.6689 38.544 55.1694 38.2456 56.2197 37.3503C57.5701 36.455 58.4704 34.9629 60.1208 34.3661C59.9708 34.8137 59.8208 35.4106 59.8208 35.8582C59.8208 37.4995 61.4713 38.8424 61.3212 40.4838C61.3212 41.379 60.721 42.1251 60.1208 42.8712C57.7201 45.4078 54.4191 46.8999 51.5683 48.8397C52.6186 48.5412 53.819 48.0936 54.7192 47.646C55.7695 47.0491 56.6698 46.303 57.8702 45.8554C59.3706 45.2586 61.0211 45.1093 62.5216 44.5125C63.7219 44.0649 64.4722 43.0204 63.872 41.8267C63.7219 41.5283 63.5719 41.2298 63.2718 40.9314C63.1217 40.633 62.9717 40.3346 62.6716 40.0361C61.7713 38.8424 60.4209 37.9472 60.4209 36.3058C60.2709 34.6645 60.571 33.0232 60.721 31.3818C60.8711 30.3373 61.0211 29.1436 61.3212 28.0992C60.571 27.6515 59.8208 27.3531 58.9205 27.0547C56.9699 28.5468 54.8693 30.1881 52.7686 31.6803C51.8684 32.4263 50.8181 33.1724 49.9178 33.9184C49.0175 34.6645 48.1172 35.5598 47.367 36.455C47.0669 36.9027 46.6168 37.3503 46.3167 37.7979C46.3167 38.544 46.3167 38.9916 45.7165 39.4393Z" fill="#B5B5B5"/>
<path d="M46.0165 47.1983C46.1666 47.1983 46.3166 47.3476 46.4667 47.3476C46.7668 47.4968 47.0668 47.646 47.3669 47.7952C47.9671 48.0936 48.5673 48.392 49.3175 48.5413C49.6176 48.5413 49.7677 48.5413 50.0677 48.6905H50.2178V48.8397C50.2178 49.735 50.2178 50.7794 49.7676 51.5255C49.6176 51.8239 49.4676 52.1224 49.3175 52.4208C49.1675 52.57 48.8674 52.7192 48.5673 52.8684C48.4172 52.8684 48.2672 53.0176 48.1172 53.0176C47.9671 53.0176 47.8171 52.8684 47.667 52.57C47.3669 52.1224 47.0668 51.5255 46.7668 51.0779C46.4667 50.7794 46.1666 50.3318 46.0165 50.0334C45.8665 49.8842 44.8162 48.5413 44.8162 48.5413C44.9662 48.2428 45.2663 48.0936 45.4164 47.7952C45.5664 47.646 45.7164 47.4968 45.8665 47.3476C46.0165 47.1983 46.0165 47.1983 46.0165 47.1983Z" fill="#E8E8E8"/>
<path d="M46.0168 50.481L42.5658 84.0538L44.8165 87.4857L47.5173 85.0983L49.0177 51.9732L46.0168 50.481Z" fill="#262626"/>
<path d="M50.368 52.4208C50.218 51.2271 50.0679 50.1826 49.9179 48.9889C49.9179 48.8397 49.9179 48.8397 49.7678 48.6905C49.6178 48.5413 49.3177 48.392 49.1676 48.392C48.2674 48.392 47.3671 47.9444 46.6169 47.4968C46.4668 47.3476 46.3168 47.1983 46.1667 47.1983C46.0167 47.1983 45.8667 47.4968 45.7166 47.646C45.4165 47.9444 45.1164 48.392 44.8163 48.6905L44.6663 48.8397C44.6663 48.9889 44.6663 48.9889 44.6663 49.1381C45.4165 50.6302 46.1667 52.2716 46.917 53.7637C47.9673 53.4653 49.1676 53.0176 50.218 52.57C50.218 52.57 50.368 52.57 50.368 52.4208C50.518 52.4208 50.518 52.57 50.368 52.4208Z" fill="#313131"/>
<path d="M46.0167 47.0491L43.6159 50.6302C43.6159 50.6302 43.3159 49.8841 43.1658 49.7349C42.8657 48.9889 42.5656 48.2428 42.4156 47.4967C42.1155 45.8554 41.9654 43.468 42.8657 41.9759C43.3159 41.2298 43.916 40.3346 44.5162 39.7377C44.6663 39.5885 45.4165 39.4393 45.5665 39.2901C44.0661 41.379 43.4659 45.557 46.0167 47.0491Z" fill="#ABABAB"/>
<path d="M77.8262 74.0566C77.8262 78.9806 76.3257 83.6061 75.2754 88.3809C74.5252 91.8128 73.775 95.0955 72.8747 98.5274C72.5746 99.4226 72.4246 100.169 72.1245 101.213C72.1245 101.512 71.9744 101.959 71.9744 102.258C71.8244 103.004 71.6743 103.601 71.3742 104.347C70.7741 106.436 70.0238 108.375 68.9735 110.166C68.0732 111.807 67.323 113.449 65.6725 114.642C65.2224 114.941 64.6222 115.239 64.1721 115.538C63.7219 115.836 63.1218 115.985 62.6716 116.134C62.2215 116.284 61.6213 116.284 61.1712 116.284C60.571 116.284 59.9708 116.433 59.3706 116.284C58.7705 116.134 58.1703 115.687 58.1703 115.09C58.1703 114.941 58.1703 114.792 58.3203 114.642C58.4704 114.493 58.6204 114.493 58.9205 114.344C59.3706 114.195 59.8208 114.045 60.2709 113.896C60.571 113.747 60.8711 113.747 61.0211 113.449C61.3212 113.299 61.4713 113.001 61.4713 112.703C61.9214 111.807 62.2215 111.061 62.3715 110.017C62.3715 109.569 62.5216 108.375 61.7714 108.674C61.4713 108.823 61.3212 109.121 61.0211 109.271C60.8711 109.42 60.721 109.569 60.571 109.718C60.2709 109.867 60.1209 109.867 59.8208 110.017C59.6707 110.017 59.3706 110.166 59.0705 110.017C58.9205 110.017 58.6204 109.867 58.4704 109.718C58.3203 109.121 58.6204 108.674 59.0705 108.375C59.3706 108.226 59.5207 108.077 59.8208 107.928C60.571 107.48 60.721 106.883 61.1712 106.286C61.6213 105.69 62.2215 105.242 62.8217 104.943C63.4219 104.496 64.022 104.048 64.6222 103.75C65.3724 103.153 65.8226 102.855 66.1227 101.81C66.2727 101.213 66.2727 100.766 66.2727 100.169C66.2727 99.8703 66.2727 99.5719 66.2727 99.1242C66.4228 96.5876 66.4228 94.2002 66.5728 91.6636C66.8729 87.7841 67.173 83.7554 67.4731 79.8758C67.6231 78.6821 67.7732 77.4884 67.9232 76.2947C68.0732 75.2503 67.7732 74.6534 67.6231 73.7581C67.173 71.2215 67.323 68.6849 66.7228 66.1483C66.5728 65.5515 66.4228 64.8054 66.5728 64.2086C66.8729 62.7164 69.1236 62.1196 70.3239 61.5227C71.2242 61.0751 71.9744 60.7767 72.8747 60.4782C73.1748 60.329 74.9753 59.7322 75.2754 59.8814C76.0256 60.4782 76.3257 61.5227 76.6258 62.418C77.376 65.1038 77.226 67.6404 77.376 70.3263C77.8262 71.52 77.8262 72.7136 77.8262 74.0566Z" fill="#FFEEE4"/>
<path d="M77.676 70.177C77.5259 67.4911 77.676 64.9545 76.9258 62.2687C76.6257 61.3734 76.3256 60.329 75.5753 59.7321C75.4253 59.5829 74.375 59.8813 73.7748 60.1797C74.375 60.7766 74.6751 61.6719 74.9752 62.5671C75.7254 65.253 75.5753 67.7896 75.7254 70.4754C75.7254 71.6691 75.8754 73.012 75.8754 74.2057C75.8754 79.1297 74.375 83.7553 73.3247 88.5301C72.5744 91.9619 71.8242 95.2446 70.924 98.6765C70.6239 99.5718 70.4738 100.318 70.1737 101.362C70.1737 101.661 70.0237 102.108 70.0237 102.407C69.8736 103.153 69.7236 103.75 69.4235 104.496C68.8233 106.585 68.0731 108.525 67.0228 110.315C66.1225 111.956 65.3723 113.598 63.7218 114.791C63.2717 115.09 62.6715 115.388 62.2214 115.687C61.7712 115.985 61.3211 116.134 60.7209 116.284C60.8709 116.284 61.021 116.284 61.021 116.284C61.4711 116.284 62.0713 116.284 62.5214 116.134C63.1216 115.985 63.5718 115.836 64.0219 115.537C64.472 115.239 65.0722 114.941 65.5223 114.642C67.1728 113.598 67.9231 111.807 68.8233 110.166C69.8736 108.226 70.6239 106.286 71.224 104.347C71.3741 103.6 71.6742 103.004 71.8242 102.258C71.8242 101.959 71.9743 101.512 71.9743 101.213C72.1243 100.318 72.4244 99.4226 72.7245 98.5273C73.4747 95.0954 74.375 91.8127 75.1252 88.3808C76.0255 83.6061 77.5259 78.9805 77.676 74.0565C77.826 72.7136 77.826 71.5199 77.676 70.177Z" fill="#FFE1CF"/>
<path d="M63.5721 26.7567C63.5721 26.9059 63.7221 27.0551 63.7221 27.2044C63.7221 27.5028 63.7221 27.8012 63.5721 28.2488C63.272 29.1441 62.5217 30.0394 61.7715 30.9347C61.4714 31.2331 61.1713 31.3823 61.0213 31.6807C60.7212 32.1284 60.4211 32.576 60.121 32.8744C59.8209 33.1728 59.6709 33.4713 59.5208 33.6205C59.2208 34.3665 57.2702 36.0079 54.4193 37.6492C54.2693 37.6492 54.2693 37.7984 54.1192 37.7984C53.9692 37.9476 53.6691 38.0968 53.519 38.0968C53.519 38.0968 53.369 38.0968 53.369 38.2461H53.219C53.219 38.2461 53.0689 38.2461 53.0689 38.3953H52.9189C49.7679 39.8874 47.2172 39.7382 46.0168 38.6937C44.6664 37.5 44.2163 32.4268 44.2163 32.4268C43.7661 30.1886 43.316 27.8012 43.316 25.4138C43.316 24.0709 43.1659 22.728 43.6161 21.3851C43.9162 20.1914 44.3663 18.9977 44.6664 17.804C44.8164 17.0579 45.1165 16.3119 45.2666 15.5658C45.7167 13.7753 46.0168 12.5816 47.6673 11.3879C50.068 9.59731 52.7688 9.4481 52.7688 9.4481C52.7688 9.4481 59.0707 14.2229 59.6709 14.5213C60.2711 14.8197 64.1722 17.5056 64.1722 23.1756C64.1722 24.3693 64.0222 25.563 63.7221 26.6075C63.422 26.6075 63.5721 26.6075 63.5721 26.7567Z" fill="#FFEEE4"/>
<path d="M44.366 17.6543C47.5169 16.4606 50.6679 15.5653 53.9689 15.4161C54.8691 15.4161 55.9195 15.4161 56.8197 15.5653C57.72 15.7146 58.6203 16.3114 59.2204 17.0575C59.9707 17.9527 59.9707 19.1464 59.9707 20.1909C59.9707 21.5338 59.5205 22.7275 59.2204 23.9212C58.4702 26.3086 57.72 28.8452 57.57 31.3818C57.2699 30.785 57.1198 30.1881 56.9698 29.4421C56.6697 28.0992 56.3696 26.607 56.5196 25.2641C56.5196 24.6673 56.6697 24.2197 56.8197 23.6228C56.9698 22.5783 57.1198 21.5338 57.1198 20.3401C57.1198 19.8925 56.9698 19.2956 56.5196 18.9972C55.9195 18.6988 55.1692 18.5496 54.5691 18.5496C51.8682 18.2512 49.1674 18.1019 46.4666 18.1019C45.7164 18.1019 44.9662 18.1019 44.366 17.8035V17.6543Z" fill="#737373"/>
<path d="M65.6726 21.683C65.6726 23.772 64.9224 25.5626 64.0221 27.3531C63.8721 27.6515 63.722 27.9499 63.572 28.2484C63.1219 29.1436 62.5217 29.8897 61.6214 30.785C61.6214 30.6358 61.6214 30.4866 61.6214 30.3373C61.7714 29.7405 62.0715 29.1436 62.2216 28.5468C62.3716 28.2484 62.5217 27.9499 62.5217 27.6515C62.5217 27.5023 62.5217 27.2039 62.5217 27.0547C62.5217 26.9055 62.3716 26.607 62.3716 26.4578C61.9215 25.7118 60.8712 25.5626 60.121 26.0102C59.3707 26.4578 58.9206 27.2039 58.6205 27.9499C58.4705 28.3976 58.3204 28.696 58.1704 28.9944C58.0203 29.2929 58.0203 29.4421 57.8703 29.5913C57.7202 29.7405 57.7202 30.0389 57.5702 30.1881C57.5702 30.0389 57.4201 29.8897 57.4201 29.7405C57.4201 29.5913 57.2701 29.4421 57.2701 29.2929C57.1201 28.5468 57.2701 27.8007 57.1201 26.9055C56.97 24.9657 57.2701 22.4291 56.3698 20.6386C55.7697 19.5941 54.8694 18.848 53.669 18.4004C52.7688 18.1019 51.5684 17.9527 50.368 17.8035C49.1677 17.6543 47.9673 17.6543 46.767 17.9527C45.7166 18.1019 44.5163 18.1019 43.7661 17.3559C42.7157 16.3114 42.8658 14.9685 43.466 13.7748C44.2162 12.4319 45.5666 11.3874 46.6169 10.7905C47.3671 10.3429 48.2674 10.0445 49.0176 9.89527C50.368 9.44764 51.8685 9 53.3689 9C54.2692 9 55.3195 9.14921 56.2198 9.29842C58.4705 9.89527 60.5711 10.9398 62.3716 12.5811C64.0221 14.2224 65.2225 16.3114 65.6726 18.6988C65.6726 18.848 65.6726 19.1464 65.8227 19.2956C65.8227 20.0417 65.6726 20.7878 65.6726 21.683Z" fill="#737373"/>
<path d="M63.7219 28.2484C63.2717 29.1436 62.6716 29.8897 61.7713 30.785C61.7713 30.6358 61.7713 30.4865 61.7713 30.3373C61.9213 29.7405 62.2214 29.1436 62.3715 28.5468C62.5215 28.2484 62.6716 27.9499 62.6716 27.6515C62.6716 27.5023 62.6716 27.2039 62.6716 27.0547C62.6716 26.9054 62.5215 26.607 62.5215 26.4578C62.0714 25.7118 61.0211 25.5625 60.2708 26.0102C59.5206 26.4578 59.0705 27.2039 58.7704 27.9499C58.6203 28.3976 58.4703 28.696 58.3203 28.9944C58.1702 29.2928 58.1702 29.4421 58.0202 29.5913C57.8701 29.7405 57.8701 30.0389 57.7201 30.1881C57.7201 30.0389 57.57 29.8897 57.57 29.7405C57.57 29.5913 57.42 29.4421 57.42 29.2928C57.2699 28.5468 57.42 27.8007 57.2699 26.9054C57.1199 24.9657 57.42 22.4291 56.5197 20.6385C55.9195 19.5941 55.0193 18.848 53.8189 18.4004C52.7686 18.1019 51.5682 17.9527 50.3679 17.8035C49.1675 17.6543 47.9672 17.6543 46.7668 17.9527C45.7165 18.1019 44.5161 18.1019 43.7659 17.3559C42.7156 16.3114 42.8656 14.9685 43.4658 13.7748C43.4658 14.9685 44.3661 16.013 45.4164 16.4606C46.7668 17.0574 48.2672 16.9082 49.7677 16.759C51.5682 16.6098 53.5188 16.759 55.1693 17.3559C56.9699 17.9527 58.4703 19.2956 59.0705 20.937C59.6707 22.5783 59.2205 24.5181 58.7704 26.3086C59.3706 26.607 59.9708 26.0102 60.4209 25.4133C60.871 24.9657 61.6212 24.5181 62.0714 24.9657C62.3715 25.1149 62.3715 25.4133 62.5215 25.5625C62.6716 26.1594 62.8216 26.7562 62.8216 27.3531C62.8216 27.5023 62.8216 27.6515 62.9717 27.8007C63.1217 28.0991 63.4218 28.2484 63.7219 28.2484Z" fill="#575757"/>
<path d="M68.0732 95.3939L66.8728 95.9907C66.5727 97.3336 66.4227 98.6766 66.4227 100.169C66.4227 100.318 66.4227 100.467 66.4227 100.616C66.4227 100.766 66.5727 100.766 66.7228 100.915C67.623 101.512 68.6733 101.81 69.7236 102.108C70.1738 102.108 70.6239 102.258 71.074 102.258C71.3741 102.258 71.8243 102.407 72.1244 102.108C72.8746 101.661 73.1747 99.8703 73.3247 99.1242C73.4748 98.2289 73.4748 97.4829 73.4748 96.5876C73.4748 96.4384 73.3247 96.4384 73.3247 96.2892C72.4244 96.1399 71.6742 96.1399 70.774 95.9907C69.8737 95.5431 68.9734 95.3939 68.0732 95.3939Z" fill="#727272"/>
<path d="M65.5224 61.6719C65.5224 62.418 65.5224 63.0148 65.5224 63.7609C65.5224 65.253 65.6725 66.7451 65.8225 68.2372C66.1226 70.0278 66.7228 71.6691 67.0229 73.4597C67.3229 75.2502 67.1729 76.8915 67.1729 78.6821C67.1729 82.5616 67.1729 86.4411 67.0229 90.3206C67.0229 91.8128 66.7228 93.6033 66.4227 95.0954C66.1226 96.4383 67.3229 97.1844 68.5233 97.3336C69.1235 97.4828 69.7237 97.4828 70.1738 97.632C70.4739 97.632 70.774 97.632 70.924 97.7812C71.6742 97.9305 73.1747 98.0797 73.7749 97.3336C75.4254 95.0954 75.7255 92.2604 76.4757 89.7238C77.376 86.8888 77.9761 83.9045 78.2762 80.9203C78.5763 78.9805 78.8764 77.0408 78.8764 75.2502C78.8764 73.3105 78.8764 71.2215 78.8764 69.2817C78.7264 67.0435 78.7264 64.9546 78.5763 62.7164C78.5763 61.9703 78.4263 61.3735 78.4263 60.6274C78.4263 59.8813 78.2762 59.1353 78.1262 58.3892C78.1262 57.9416 77.9761 57.6432 77.9761 57.1955C77.526 54.5097 76.6257 51.9731 75.5754 49.5857C74.8252 47.9444 73.7749 46.1538 72.1244 45.1093C71.9743 44.9601 71.8243 44.9601 71.6742 44.9601C70.1738 44.2141 68.6733 45.557 67.7731 46.8999C64.7722 51.227 65.5224 56.5987 65.5224 61.6719Z" fill="#898989"/>
<path d="M70.3239 97.632C70.624 97.632 70.9241 97.632 71.0741 97.7812C71.8244 97.9305 73.3248 98.0797 73.925 97.3336C75.5755 95.0954 75.8756 92.2604 76.6258 89.7238C77.5261 86.8888 78.1263 83.9045 78.4263 80.9203C78.7264 78.9805 79.0265 77.0408 79.0265 75.2502C79.0265 73.3104 79.0265 71.2215 79.0265 69.2817C78.8765 67.0435 78.8765 64.9546 78.7264 62.7164C78.7264 61.9703 78.5764 61.3735 78.5764 60.6274C78.4263 59.8813 78.4263 59.1353 78.2763 58.3892C78.2763 57.9416 78.1262 57.6432 78.1262 57.1955C77.6761 54.5097 76.7758 51.9731 75.7255 49.5857C74.9753 47.9444 73.925 46.1538 72.2745 45.1093C72.1245 44.9601 71.9744 44.9601 71.8244 44.9601C73.3248 46.6015 74.2251 48.8396 74.9753 50.9286C77.0759 57.3447 78.1262 64.0593 78.1262 70.7738C78.1262 71.5199 78.1262 72.266 77.8262 72.8628C77.0759 75.101 74.2251 75.847 71.8244 76.2947C72.8747 76.1455 73.7749 76.1455 74.8253 76.4439C75.7255 76.8915 76.9259 78.2344 76.0256 79.2789C75.1254 80.1742 72.8747 80.3234 71.6743 80.3234C72.4245 80.6218 73.1748 80.7711 73.925 81.0695C76.4758 81.9648 76.4758 84.949 76.3257 87.1872C76.1757 89.873 75.2754 92.4096 74.075 94.797C73.1748 96.5876 71.8244 97.3336 70.3239 97.632Z" fill="#727272"/>
<path d="M61.7713 41.8267C62.3715 41.379 62.9717 41.6774 63.5718 42.2743C63.8719 42.5727 64.022 42.7219 64.3221 43.0204C64.7722 43.468 65.0723 43.9156 65.3724 44.3633C65.5224 44.8109 65.8225 45.2585 65.6725 45.8554C65.6725 46.0046 65.5224 46.303 65.5224 46.4522C65.3724 46.8999 65.0723 47.3475 64.7722 47.6459C64.022 48.5412 62.9717 49.2873 62.0714 49.8841C60.871 50.6302 59.6707 51.227 58.4703 51.6747C57.27 52.1223 56.0696 52.7192 54.8692 53.0176C53.969 53.316 53.0687 53.6144 52.1684 53.9129C51.8683 54.0621 51.4182 54.0621 51.1181 54.2113L50.2179 48.8396C50.2179 48.8396 50.9681 48.6904 51.1181 48.6904C52.0184 48.5412 53.0687 48.2428 53.969 47.9444C55.1693 47.4967 56.3697 47.0491 57.57 46.4522C58.6204 45.8554 59.6707 45.2585 60.4209 44.3633C60.871 43.7664 61.0211 42.8711 61.6213 42.2743C61.3212 42.1251 61.6213 41.9759 61.7713 41.8267Z" fill="#727272"/>
<path d="M62.3715 38.8425C62.6716 38.9917 62.8217 39.1409 62.9717 39.2901C63.4219 39.5885 63.7219 40.0362 63.872 40.4838C64.6222 41.5283 65.2224 42.722 65.3724 44.0649C65.5225 45.2586 65.0723 46.0046 64.3221 47.0491C63.5719 47.9444 62.5216 48.6905 61.6213 49.2873C60.421 50.0334 59.2206 50.6302 58.0202 51.0779C56.8199 51.5255 55.6195 52.1223 54.4192 52.4208C53.5189 52.7192 52.6186 53.0176 51.7183 53.316C51.4183 53.4653 50.9681 53.4652 50.668 53.6145L49.7678 48.2428C49.7678 48.2428 50.518 48.0936 50.668 48.0936C51.5683 47.9444 52.6186 47.646 53.5189 47.3475C54.7192 46.8999 55.9196 46.4523 57.12 45.8554C58.7705 44.9602 60.2709 43.7665 61.3212 42.2743C61.6213 41.8267 62.0714 41.2299 62.2215 40.633C62.3715 40.3346 62.2215 39.8869 62.0714 39.4393C62.0714 39.2901 61.4713 38.544 61.3212 38.544C61.6213 38.2456 62.0714 38.544 62.3715 38.8425Z" fill="#ABABAB"/>
<path d="M62.6715 14.2233C61.7712 13.0296 60.5709 12.2835 59.3705 11.5375C56.3696 10.0453 52.4684 9.29929 49.3175 10.6422C48.5673 11.0898 47.9671 11.3883 47.3669 11.9851C47.0668 12.4327 46.6167 12.8804 46.6167 13.4772C46.6167 14.0741 47.0668 14.5217 47.517 14.8201C48.5673 15.417 49.7676 15.2678 50.968 15.1186C52.3184 14.9694 53.6688 14.9694 55.1693 15.1186C55.7694 15.1186 56.3696 15.1186 56.8197 15.2678C58.4702 15.7154 59.3705 17.506 61.021 17.9536C61.7712 18.252 62.6715 18.1028 63.1216 17.506C64.0219 16.6107 63.4217 15.1186 62.6715 14.2233Z" fill="#9B9B9B"/>
</svg>
