<svg width="160" height="149" viewBox="0 0 160 149" fill="none" xmlns="http://www.w3.org/2000/svg">
<g opacity="0.8">
<path d="M1.30962 147.688L55.5126 116.457L50.7994 113.833L117.309 75.5159L167.061 103.335L159.729 27.2263L232 71.3168L167.585 108.584V108.321L104.479 145.063L57.6075 117.769L3.66628 149L1.30962 147.688Z" fill="#CDCDCD"/>
<path d="M113.905 127.479L107.097 131.416L99.2414 126.955L106.05 123.018L113.905 127.479Z" fill="#666666"/>
<path d="M99.2414 126.955V138.765L107.097 143.489V131.416L99.2414 126.955Z" fill="#121212"/>
<path d="M113.905 127.48V139.29L107.097 143.489V131.416L113.905 127.48Z" fill="#0A0A0A"/>
<path d="M174.391 92.5747L167.583 96.5114L159.727 92.0498L166.535 88.1132L174.391 92.5747Z" fill="#666666"/>
<path d="M159.729 92.0496V103.86L167.584 108.584V96.5112L159.729 92.0496Z" fill="#121212"/>
<path d="M68.3431 100.973L61.535 105.172L53.6795 100.448L60.4876 96.5113L68.3431 100.973Z" fill="#666666"/>
<path d="M53.6797 100.448V112.52L61.5352 116.982V105.172L53.6797 100.448Z" fill="#121212"/>
<path d="M68.343 100.973V113.045L61.5349 116.982V105.172L68.343 100.973Z" fill="#0A0A0A"/>
<path d="M53.6795 -44.4209V109.371L107.097 140.339V-13.4526L53.6795 -44.4209Z" fill="#5A5A5A"/>
<path d="M104.479 -11.8777L56.2983 -39.6967V107.796L104.479 135.615V-11.8777Z" fill="#282828"/>
<path d="M59.1786 -38.1221V106.484L104.479 132.729V135.615L56.2983 107.796V-39.6967L59.1786 -38.1221Z" fill="#6F6F6F"/>
<path d="M174.393 -52.2942V101.498L107.097 140.339V-13.4526L174.393 -52.2942Z" fill="#121212"/>
<path d="M170.464 101.498V-35.4978L111.286 -1.38017V135.878L170.464 101.498Z" fill="#0A0A0A"/>
<path d="M169.417 101.235V-34.9729L170.464 -35.4978V101.498L111.286 135.878V134.828L169.417 101.235Z" fill="#6F6F6F"/>
<path d="M59.1786 -38.1221L56.2982 -39.6967V107.796L59.1786 106.484V-38.1221Z" fill="#121212"/>
<path d="M53.6794 -44.4208V109.371L8.7738e-05 140.339V-13.4524L53.6794 -44.4208Z" fill="#5A5A5A"/>
<path d="M56.2985 -42.8459V110.946L2.61911 141.914V-11.8776L56.2985 -42.8459Z" fill="#121212"/>
<path d="M6.80814 -9.51588V134.828L14.6637 130.367L37.1828 117.244L52.3701 108.584V-35.7602L42.1579 -29.9865L29.0654 -22.3756L6.80814 -9.51588Z" fill="#B9B9B9"/>
<path d="M6.80851 15.941V30.9003L42.1583 -29.9866L29.0658 -22.3757L6.80851 15.941Z" fill="#565656"/>
<path d="M6.80814 107.796V122.756L52.3701 44.81V29.8507L6.80814 107.796Z" fill="#565656"/>
<path d="M6.80814 56.3574V82.0768L52.3701 3.86865V-22.1133L6.80814 56.3574Z" fill="#565656"/>
<path d="M14.6636 130.367L37.1828 117.244L52.3701 91.5249V65.543L14.6636 130.367Z" fill="#565656"/>
<path d="M49.4898 107.534V-34.1856L52.3701 -35.7602V108.584L6.80814 134.828V132.466L49.4898 107.534Z" fill="#5A5A5A"/>
<path d="M2.61853 141.914L1.43051e-05 140.339V-13.4526L2.61853 -11.8779V141.914Z" fill="#5A5A5A"/>
<path d="M49.4898 107.534L52.3701 108.584L6.80814 134.828V132.466L49.4898 107.534Z" fill="#6F6F6F"/>
<path d="M49.49 82.8642L52.3704 83.914L6.80838 110.158V107.534L49.49 82.8642Z" fill="#6F6F6F"/>
<path d="M52.3705 83.9139V86.5383L6.80851 112.783V110.158L52.3705 83.9139Z" fill="#121212"/>
<path d="M49.49 51.3711L52.3704 52.4209L6.80838 78.6652V76.0408L49.49 51.3711Z" fill="#6F6F6F"/>
<path d="M52.3705 52.4207V54.7827L6.80851 81.0271V78.6651L52.3705 52.4207Z" fill="#121212"/>
<path d="M49.49 19.6153L52.3704 20.665L6.80838 46.9094V44.5474L49.49 19.6153Z" fill="#6F6F6F"/>
<path d="M52.3705 20.6649V23.2894L6.80851 49.5337V46.9093L52.3705 20.6649Z" fill="#121212"/>
<path d="M49.4899 -11.8777L52.3702 -10.8279L6.80826 15.4164V12.792L49.4899 -11.8777Z" fill="#6F6F6F"/>
<path d="M52.3707 -10.8283V-8.20383L6.80875 18.0405V15.4161L52.3707 -10.8283Z" fill="#121212"/>
<path d="M102.908 59.7692L60.2262 35.0995V44.5474L102.908 69.2171V59.7692Z" fill="#626262"/>
<path d="M61.0114 36.4117V44.285L102.122 68.1673V60.294L61.0114 36.4117Z" fill="#0A0A0A"/>
<path d="M62.0588 36.9365V43.4976L102.122 66.8551V68.1673L61.0114 44.285V36.4117L62.0588 36.9365Z" fill="#777777"/>
<path d="M62.0588 36.9365V43.4976L61.0114 44.285V36.4117L62.0588 36.9365Z" fill="#121212"/>
<path d="M61.2733 34.8371L60.2259 35.0996L102.908 59.7692L103.955 59.2443L61.2733 34.8371Z" fill="#777777"/>
<path d="M102.907 69.2172L103.955 68.6924V59.2444L102.907 59.7693V69.2172Z" fill="#121212"/>
<path d="M84.3163 49.7963V56.6198L83.5307 57.1447V49.2714L84.3163 49.7963Z" fill="#121212"/>
<path d="M82.4831 48.7465V56.6198L83.5305 57.1447V49.2714L82.4831 48.7465Z" fill="#626262"/>
<path d="M78.8169 46.647V53.4706L78.0313 53.9954V46.1221L78.8169 46.647Z" fill="#121212"/>
<path d="M76.9836 45.5973V53.4706L78.031 53.9955V46.1222L76.9836 45.5973Z" fill="#626262"/>
<path d="M90.3389 53.208V60.0315L89.2915 60.5564V52.6831L90.3389 53.208Z" fill="#121212"/>
<path d="M88.2445 52.1583V60.0316L89.2919 60.5565V52.6832L88.2445 52.1583Z" fill="#626262"/>
<path d="M82.4834 48.7465V55.57L78.8175 53.4704V46.6469L82.4834 48.7465Z" fill="#E84646"/>
<path d="M82.4834 48.7465V52.4207L78.8175 50.3211V46.6469L82.4834 48.7465Z" fill="#A1A1A1"/>
<path d="M84.3164 52.9454L83.5308 53.4703L88.2441 56.3571V55.3074L84.3164 52.9454Z" fill="#6F6F6F"/>
<path d="M83.5307 53.4703V53.9952L88.244 56.8821V56.3572L83.5307 53.4703Z" fill="#626262"/>
<path d="M93.4811 58.7193L92.6955 58.9818L90.8626 57.932L91.6481 57.6695L93.4811 58.7193Z" fill="#A1A1A1"/>
<path d="M90.8623 57.932V59.7691L92.6953 61.0813V58.9817L90.8623 57.932Z" fill="#878787"/>
<path d="M93.481 58.7193V60.5564L92.6954 61.0813V58.9818L93.481 58.7193Z" fill="#6E6E6E"/>
<path d="M93.4811 55.8326L92.6955 56.095L90.8626 55.0452L91.6481 54.7828L93.4811 55.8326Z" fill="#EA5858"/>
<path d="M90.8623 55.0452V56.8823L92.6953 58.1945V56.0949L90.8623 55.0452Z" fill="#E84646"/>
<path d="M93.481 55.8324V57.6695L92.6954 58.1944V56.0948L93.481 55.8324Z" fill="#E52F2F"/>
<path d="M101.859 63.7059L101.074 63.9683L99.2406 62.9185L100.026 62.6561L101.859 63.7059Z" fill="#DBDBDB"/>
<path d="M99.241 62.9185V65.0181L101.074 66.0678V63.9683L99.241 62.9185Z" fill="#C2C2C2"/>
<path d="M101.859 63.7057V65.5428L101.074 66.0677V63.9682L101.859 63.7057Z" fill="#A1A1A1"/>
<path d="M101.859 60.819L101.074 61.0814L99.2406 60.0317L100.026 59.7692L101.859 60.819Z" fill="#7E7E7E"/>
<path d="M99.241 60.0316V62.1311L101.074 63.1809V61.0814L99.241 60.0316Z" fill="#6F6F6F"/>
<path d="M101.859 60.8189V62.656L101.074 63.1809V61.0814L101.859 60.8189Z" fill="#5F5F5F"/>
<path d="M97.6705 61.0814L96.885 61.6063L95.052 60.5565L95.8376 60.0316L97.6705 61.0814Z" fill="#B1B1B1"/>
<path d="M95.0517 60.5566V62.3937L96.8846 63.4435V61.6064L95.0517 60.5566Z" fill="#A1A1A1"/>
<path d="M97.6703 61.0814V63.181L96.8847 63.4434V61.6063L97.6703 61.0814Z" fill="#9A9A9A"/>
<path d="M97.6705 58.1945L96.885 58.7194L95.052 57.6696L95.8376 57.1447L97.6705 58.1945Z" fill="#B0B0B0"/>
<path d="M95.0517 57.6695V59.5066L96.8846 60.5564V58.7193L95.0517 57.6695Z" fill="#A6A6A6"/>
<path d="M97.6703 58.1942V60.2938L96.8847 60.5562V58.7191L97.6703 58.1942Z" fill="#8A8A8A"/>
<path d="M74.8894 50.3213V45.3349L63.8917 39.0363V43.7603L74.8894 50.3213Z" fill="#919191"/>
<path d="M102.908 106.222L60.2262 81.5522V105.435L102.908 129.842V106.222Z" fill="#626262"/>
<path d="M61.0114 82.8645V104.91L102.122 128.792V106.747L61.0114 82.8645Z" fill="#0A0A0A"/>
<path d="M62.0588 83.3894V104.385L102.122 127.742V128.792L61.0114 104.91V82.8645L62.0588 83.3894Z" fill="#777777"/>
<path d="M62.0588 83.3894V104.385L61.0114 104.91V82.8645L62.0588 83.3894Z" fill="#121212"/>
<path d="M61.2733 81.2897L60.2259 81.5521L102.908 106.222L103.955 105.959L61.2733 81.2897Z" fill="#777777"/>
<path d="M102.907 129.842L103.955 129.579V105.959L102.907 106.222V129.842Z" fill="#121212"/>
<path d="M101.859 124.33L101.074 124.855L99.2406 123.806L100.026 123.281L101.859 124.33Z" fill="#BFBFBF"/>
<path d="M99.241 123.805V125.643L101.074 126.692V124.855L99.241 123.805Z" fill="#9E9E9E"/>
<path d="M101.859 124.33V126.43L101.074 126.692V124.855L101.859 124.33Z" fill="#777777"/>
<path d="M101.859 121.444L101.074 121.968L99.2406 120.919L100.026 120.394L101.859 121.444Z" fill="#BFBFBF"/>
<path d="M99.241 120.919V122.756L101.074 123.806V121.968L99.241 120.919Z" fill="#9E9E9E"/>
<path d="M101.859 121.443V123.543L101.074 123.805V121.968L101.859 121.443Z" fill="#777777"/>
<path d="M101.859 118.557L101.074 119.081L99.2406 117.769L100.026 117.507L101.859 118.557Z" fill="#BFBFBF"/>
<path d="M99.241 117.769V119.869L101.074 120.919V119.082L99.241 117.769Z" fill="#9E9E9E"/>
<path d="M101.859 118.557V120.394L101.074 120.919V119.081L101.859 118.557Z" fill="#777777"/>
<path d="M101.859 115.67L101.074 116.195L99.2406 114.882L100.026 114.62L101.859 115.67Z" fill="#BFBFBF"/>
<path d="M99.241 114.883V116.982L101.074 118.032V116.195L99.241 114.883Z" fill="#9E9E9E"/>
<path d="M101.859 115.67V117.507L101.074 118.032V116.195L101.859 115.67Z" fill="#777777"/>
<path d="M101.859 112.521L101.074 113.045L99.2406 111.996L100.026 111.471L101.859 112.521Z" fill="#BFBFBF"/>
<path d="M99.241 111.996V113.833L101.074 114.882V113.045L99.241 111.996Z" fill="#9E9E9E"/>
<path d="M101.859 112.52V114.62L101.074 114.882V113.045L101.859 112.52Z" fill="#777777"/>
<path d="M101.859 109.634L101.074 110.159L99.2406 109.109L100.026 108.584L101.859 109.634Z" fill="#BFBFBF"/>
<path d="M99.241 109.109V110.946L101.074 111.996V110.159L99.241 109.109Z" fill="#9E9E9E"/>
<path d="M101.859 109.634V111.733L101.074 111.996V110.158L101.859 109.634Z" fill="#777777"/>
<path d="M101.859 107.009L101.074 107.272L99.2406 106.222L100.026 105.959L101.859 107.009Z" fill="#BFBFBF"/>
<path d="M99.241 106.222V108.321L101.074 109.371V107.272L99.241 106.222Z" fill="#9E9E9E"/>
<path d="M101.859 107.009V108.846L101.074 109.371V107.272L101.859 107.009Z" fill="#777777"/>
<path d="M97.9324 124.593V106.222L63.8918 86.5386V104.647L97.9324 124.593Z" fill="#919191"/>
<path d="M102.908 95.1989L60.2262 70.5292V79.9771L102.908 104.647V95.1989Z" fill="#626262"/>
<path d="M61.0114 71.5792V79.4525L102.122 103.335V95.4616L61.0114 71.5792Z" fill="#0A0A0A"/>
<path d="M62.0588 72.1041V78.9276L102.122 102.285V103.335L61.0114 79.4525V71.5792L62.0588 72.1041Z" fill="#777777"/>
<path d="M62.0588 72.1041V78.9276L61.0114 79.4525V71.5792L62.0588 72.1041Z" fill="#121212"/>
<path d="M61.2733 70.0044L60.2259 70.5293L102.908 95.1989L103.955 94.6741L61.2733 70.0044Z" fill="#777777"/>
<path d="M102.907 104.647L103.955 104.122V94.674L102.907 95.1989V104.647Z" fill="#121212"/>
<path d="M93.4811 93.8865L92.6955 94.4114L90.8626 93.3616L91.6481 92.8368L93.4811 93.8865Z" fill="#BFBFBF"/>
<path d="M90.8623 93.3616V95.1987L92.6953 96.2485V94.4114L90.8623 93.3616Z" fill="#9E9E9E"/>
<path d="M93.481 93.8868V95.9863L92.6954 96.2488V94.4117L93.481 93.8868Z" fill="#777777"/>
<path d="M93.4811 90.9997L92.6955 91.5246L90.8626 90.4748L91.6481 89.9499L93.4811 90.9997Z" fill="#BFBFBF"/>
<path d="M90.8623 90.4747V92.3119L92.6953 93.3616V91.5245L90.8623 90.4747Z" fill="#9E9E9E"/>
<path d="M93.481 90.9996V93.0991L92.6954 93.3615V91.5244L93.481 90.9996Z" fill="#777777"/>
<path d="M101.859 98.8731L101.074 99.398L99.2406 98.3482L100.026 97.8233L101.859 98.8731Z" fill="#BFBFBF"/>
<path d="M99.241 98.3481V100.185L101.074 101.235V99.3979L99.241 98.3481Z" fill="#9E9E9E"/>
<path d="M101.859 98.8733V100.973L101.074 101.235V99.3981L101.859 98.8733Z" fill="#777777"/>
<path d="M101.859 95.9862L101.074 96.5111L99.2406 95.4613L100.026 94.9364L101.859 95.9862Z" fill="#BFBFBF"/>
<path d="M99.241 95.4612V97.2983L101.074 98.3481V96.511L99.241 95.4612Z" fill="#9E9E9E"/>
<path d="M101.859 95.986V98.0856L101.074 98.348V96.5109L101.859 95.986Z" fill="#777777"/>
<path d="M97.6705 96.511L96.885 97.0359L95.052 95.7237L95.8376 95.4612L97.6705 96.511Z" fill="#BFBFBF"/>
<path d="M95.0517 95.7237V97.8233L96.8846 98.8731V97.0359L95.0517 95.7237Z" fill="#9E9E9E"/>
<path d="M97.6703 96.5109V98.348L96.8847 98.8729V97.0358L97.6703 96.5109Z" fill="#777777"/>
<path d="M97.6705 93.6241L96.885 93.8866L95.052 92.8368L95.8376 92.5743L97.6705 93.6241Z" fill="#BFBFBF"/>
<path d="M95.0517 92.8368V94.9363L96.8846 95.9861V93.8866L95.0517 92.8368Z" fill="#9E9E9E"/>
<path d="M97.6703 93.6241V95.4612L96.8847 95.9861V93.8865L97.6703 93.6241Z" fill="#777777"/>
<path d="M89.0292 93.8868V89.1628L63.8915 74.2036V79.19L89.0292 93.8868Z" fill="#919191"/>
<path d="M102.908 83.3891L60.2262 58.7194V68.1674L102.908 92.8371V83.3891Z" fill="#626262"/>
<path d="M61.0114 60.0316V67.9049L102.122 91.5248V83.914L61.0114 60.0316Z" fill="#0A0A0A"/>
<path d="M62.0588 60.5565V67.1176L102.122 90.475V91.5248L61.0114 67.9049V60.0316L62.0588 60.5565Z" fill="#777777"/>
<path d="M62.0588 60.5565V67.1176L61.0114 67.9049V60.0316L62.0588 60.5565Z" fill="#121212"/>
<path d="M61.2733 58.1945L60.2259 58.7194L102.908 83.3891L103.955 82.8642L61.2733 58.1945Z" fill="#777777"/>
<path d="M102.907 92.8371L103.955 92.3122V82.8642L102.907 83.3891V92.8371Z" fill="#121212"/>
<path d="M93.4811 82.3393L92.6955 82.6017L90.8626 81.5519L91.6481 81.2895L93.4811 82.3393Z" fill="#BFBFBF"/>
<path d="M90.8623 81.5519V83.389L92.6953 84.7012V82.6017L90.8623 81.5519Z" fill="#9E9E9E"/>
<path d="M93.481 82.3394V84.1765L92.6954 84.7014V82.6018L93.481 82.3394Z" fill="#777777"/>
<path d="M93.4811 79.4524L92.6955 79.7148L90.8626 78.665L91.6481 78.4026L93.4811 79.4524Z" fill="#BFBFBF"/>
<path d="M90.8623 78.6651V80.5022L92.6953 81.8144V79.7148L90.8623 78.6651Z" fill="#9E9E9E"/>
<path d="M93.481 79.4523V81.2894L92.6954 81.8143V79.7147L93.481 79.4523Z" fill="#777777"/>
<path d="M101.859 87.3257L101.074 87.5881L99.2406 86.5384L100.026 86.2759L101.859 87.3257Z" fill="#BFBFBF"/>
<path d="M99.241 86.5383V88.3754L101.074 89.6876V87.5881L99.241 86.5383Z" fill="#9E9E9E"/>
<path d="M101.859 87.3256V89.1627L101.074 89.6876V87.588L101.859 87.3256Z" fill="#777777"/>
<path d="M101.859 84.4388L101.074 84.7012L99.2406 83.6515L100.026 83.389L101.859 84.4388Z" fill="#BFBFBF"/>
<path d="M99.241 83.6516V85.4887L101.074 86.8009V84.7014L99.241 83.6516Z" fill="#9E9E9E"/>
<path d="M101.859 84.4387V86.2758L101.074 86.8007V84.7011L101.859 84.4387Z" fill="#777777"/>
<path d="M97.6705 84.7013L96.885 85.2262L95.052 84.1765L95.8376 83.6516L97.6705 84.7013Z" fill="#BFBFBF"/>
<path d="M95.0517 84.1764V86.0135L96.8846 87.0633V85.2262L95.0517 84.1764Z" fill="#9E9E9E"/>
<path d="M97.6703 84.7011V86.8006L96.8847 87.0631V85.226L97.6703 84.7011Z" fill="#777777"/>
<path d="M97.6705 81.8143L96.885 82.3392L95.052 81.2894L95.8376 80.7645L97.6705 81.8143Z" fill="#BFBFBF"/>
<path d="M95.0517 81.2894V83.1265L96.8846 84.1763V82.3392L95.0517 81.2894Z" fill="#9E9E9E"/>
<path d="M97.6703 81.8145V83.9141L96.8847 84.1765V82.3394L97.6703 81.8145Z" fill="#777777"/>
<path d="M89.0292 82.3395V77.3531L63.8915 62.6562V67.3802L89.0292 82.3395Z" fill="#919191"/>
<path d="M102.908 71.8414L60.2262 47.1718V56.3573L102.908 81.027V71.8414Z" fill="#626262"/>
<path d="M61.0114 48.2215V56.0948L102.122 79.9772V72.1039L61.0114 48.2215Z" fill="#0A0A0A"/>
<path d="M62.0588 48.7464V55.5699L102.122 78.9274V79.9772L61.0114 56.0948V48.2215L62.0588 48.7464Z" fill="#777777"/>
<path d="M62.0588 48.7464V55.57L61.0114 56.0948V48.2215L62.0588 48.7464Z" fill="#121212"/>
<path d="M61.2733 46.647L60.2259 47.1718L102.908 71.8415L103.955 71.3166L61.2733 46.647Z" fill="#777777"/>
<path d="M102.907 81.0271L103.955 80.7646V71.3167L102.907 71.8416V81.0271Z" fill="#121212"/>
<path d="M93.4811 70.5292L92.6955 71.0541L90.8626 70.0043L91.6481 69.4794L93.4811 70.5292Z" fill="#BFBFBF"/>
<path d="M90.8623 70.0044V71.8415L92.6953 72.8913V71.0542L90.8623 70.0044Z" fill="#9E9E9E"/>
<path d="M93.481 70.5292V72.3663L92.6954 72.8912V71.0541L93.481 70.5292Z" fill="#777777"/>
<path d="M93.4811 67.6424L92.6955 68.1673L90.8626 67.1175L91.6481 66.5927L93.4811 67.6424Z" fill="#BFBFBF"/>
<path d="M90.8623 67.1175V68.9546L92.6953 70.0044V68.1672L90.8623 67.1175Z" fill="#9E9E9E"/>
<path d="M93.481 67.6423V69.4794L92.6954 70.0043V68.1672L93.481 67.6423Z" fill="#777777"/>
<path d="M101.859 75.5158L101.074 76.0406L99.2406 74.9909L100.026 74.466L101.859 75.5158Z" fill="#BFBFBF"/>
<path d="M99.241 74.9908V76.8279L101.074 77.8777V76.0406L99.241 74.9908Z" fill="#9E9E9E"/>
<path d="M101.859 75.5158V77.3529L101.074 77.8778V76.0407L101.859 75.5158Z" fill="#777777"/>
<path d="M101.859 72.629L101.074 73.1539L99.2406 72.1041L100.026 71.5792L101.859 72.629Z" fill="#BFBFBF"/>
<path d="M99.241 72.104V73.9412L101.074 74.9909V73.1538L99.241 72.104Z" fill="#9E9E9E"/>
<path d="M101.859 72.6289V74.466L101.074 74.9908V73.1537L101.859 72.6289Z" fill="#777777"/>
<path d="M97.6705 73.1537L96.885 73.4161L95.052 72.3664L95.8376 71.8415L97.6705 73.1537Z" fill="#BFBFBF"/>
<path d="M95.0517 72.3662V74.2034L96.8846 75.5156V73.416L95.0517 72.3662Z" fill="#9E9E9E"/>
<path d="M97.6703 73.1535V74.9906L96.8847 75.5155V73.4159L97.6703 73.1535Z" fill="#777777"/>
<path d="M97.6705 70.2668L96.885 70.5293L95.052 69.4795L95.8376 68.9546L97.6705 70.2668Z" fill="#BFBFBF"/>
<path d="M95.0517 69.4794V71.3165L96.8846 72.6287V70.5292L95.0517 69.4794Z" fill="#9E9E9E"/>
<path d="M97.6703 70.2671V72.1042L96.8847 72.629V70.5295L97.6703 70.2671Z" fill="#777777"/>
<path d="M89.0292 70.5291V65.8051L63.8915 50.8459V55.8323L89.0292 70.5291Z" fill="#919191"/>
<path d="M102.908 36.9365L60.2262 12.2668V21.7148L102.908 46.3844V36.9365Z" fill="#626262"/>
<path d="M61.0114 13.5792V21.1901L102.122 45.0724V37.4616L61.0114 13.5792Z" fill="#0A0A0A"/>
<path d="M62.0588 14.1041V20.6652L102.122 44.0227V45.0724L61.0114 21.1901V13.5792L62.0588 14.1041Z" fill="#777777"/>
<path d="M62.0588 14.1041V20.6652L61.0114 21.1901V13.5792L62.0588 14.1041Z" fill="#121212"/>
<path d="M61.2733 11.7418L60.2259 12.2667L102.908 36.9364L103.955 36.4115L61.2733 11.7418Z" fill="#777777"/>
<path d="M102.907 46.3846L103.955 45.8597V36.4117L102.907 36.9366V46.3846Z" fill="#121212"/>
<path d="M84.3163 26.9635V33.7871L83.5307 34.312V26.4387L84.3163 26.9635Z" fill="#121212"/>
<path d="M82.4831 25.9138V33.7872L83.5305 34.312V26.4387L82.4831 25.9138Z" fill="#626262"/>
<path d="M78.8169 23.8144V30.6379L78.0313 31.1628V23.2895L78.8169 23.8144Z" fill="#121212"/>
<path d="M76.9836 22.7645V30.6378L78.031 31.1627V23.2894L76.9836 22.7645Z" fill="#626262"/>
<path d="M90.3389 30.3753V37.1989L89.2915 37.7238V29.8504L90.3389 30.3753Z" fill="#121212"/>
<path d="M88.2445 29.3256V37.1989L89.2919 37.7238V29.8505L88.2445 29.3256Z" fill="#626262"/>
<path d="M82.4834 25.9138V32.4749L78.8175 30.6377V23.8142L82.4834 25.9138Z" fill="#E84646"/>
<path d="M82.4834 25.9138V29.3255L78.8175 27.4884V23.8142L82.4834 25.9138Z" fill="#A1A1A1"/>
<path d="M84.3164 30.1131L83.5308 30.3755L88.2441 33.2624V32.4751L84.3164 30.1131Z" fill="#6F6F6F"/>
<path d="M83.5307 30.3757V31.163L88.244 34.0499V33.2626L83.5307 30.3757Z" fill="#626262"/>
<path d="M93.4811 35.6244L92.6955 36.1493L90.8626 35.0995L91.6481 34.5746L93.4811 35.6244Z" fill="#A1A1A1"/>
<path d="M90.8623 35.0994V36.9365L92.6953 37.9862V36.1491L90.8623 35.0994Z" fill="#878787"/>
<path d="M93.481 35.6242V37.7237L92.6954 37.9862V36.1491L93.481 35.6242Z" fill="#6E6E6E"/>
<path d="M93.4811 32.7373L92.6955 33.2622L90.8626 32.2124L91.6481 31.6875L93.4811 32.7373Z" fill="#EA5858"/>
<path d="M90.8623 32.2124V34.0495L92.6953 35.0993V33.2622L90.8623 32.2124Z" fill="#E84646"/>
<path d="M93.481 32.7376V34.8372L92.6954 35.0996V33.2625L93.481 32.7376Z" fill="#E52F2F"/>
<path d="M101.859 40.8731L101.074 41.1355L99.2406 40.0857L100.026 39.5609L101.859 40.8731Z" fill="#DBDBDB"/>
<path d="M99.241 40.0858V41.9229L101.074 42.9726V41.1355L99.241 40.0858Z" fill="#C2C2C2"/>
<path d="M101.859 40.8731V42.7102L101.074 42.9727V41.1355L101.859 40.8731Z" fill="#A1A1A1"/>
<path d="M101.859 37.7239L101.074 38.2488L99.2406 37.199L100.026 36.6741L101.859 37.7239Z" fill="#7E7E7E"/>
<path d="M99.241 37.1989V39.036L101.074 40.0858V38.2487L99.241 37.1989Z" fill="#6F6F6F"/>
<path d="M101.859 37.7238V39.8233L101.074 40.0858V38.2487L101.859 37.7238Z" fill="#5F5F5F"/>
<path d="M97.6705 38.2487L96.885 38.7736L95.052 37.4614L95.8376 37.1989L97.6705 38.2487Z" fill="#B1B1B1"/>
<path d="M95.0517 37.4613V39.5608L96.8846 40.6106V38.7735L95.0517 37.4613Z" fill="#A1A1A1"/>
<path d="M97.6703 38.2486V40.0857L96.8847 40.6106V38.7735L97.6703 38.2486Z" fill="#9A9A9A"/>
<path d="M97.6705 35.3619L96.885 35.8868L95.052 34.5746L95.8376 34.3122L97.6705 35.3619Z" fill="#B0B0B0"/>
<path d="M95.0517 34.5746V36.6741L96.8846 37.7239V35.8868L95.0517 34.5746Z" fill="#A6A6A6"/>
<path d="M97.6703 35.3618V37.1989L96.8847 37.7238V35.8867L97.6703 35.3618Z" fill="#8A8A8A"/>
<path d="M74.8894 27.4886V22.5022L63.8917 16.2036V20.9276L74.8894 27.4886Z" fill="#919191"/>
<path d="M102.908 48.2218L60.2262 23.5521V33.0001L102.908 57.6698V48.2218Z" fill="#626262"/>
<path d="M61.0114 24.8646V32.7379L102.122 56.6202V48.7469L61.0114 24.8646Z" fill="#0A0A0A"/>
<path d="M62.0588 25.3895V31.9505L102.122 55.308V56.6202L61.0114 32.7379V24.8646L62.0588 25.3895Z" fill="#777777"/>
<path d="M62.0588 25.3895V31.9505L61.0114 32.7379V24.8646L62.0588 25.3895Z" fill="#121212"/>
<path d="M61.2733 23.2898L60.2259 23.5523L102.908 48.2219L103.955 47.9595L61.2733 23.2898Z" fill="#777777"/>
<path d="M102.907 57.6698L103.955 57.145V47.9594L102.907 48.2219V57.6698Z" fill="#121212"/>
<path d="M84.3163 38.249V45.0726L83.5307 45.5974V37.7242L84.3163 38.249Z" fill="#121212"/>
<path d="M82.4831 37.1992V45.0725L83.5305 45.5974V37.7241L82.4831 37.1992Z" fill="#626262"/>
<path d="M78.8169 35.0997V41.9233L78.0313 42.4482V34.5749L78.8169 35.0997Z" fill="#121212"/>
<path d="M76.9836 34.05V41.9234L78.031 42.4482V34.5749L76.9836 34.05Z" fill="#626262"/>
<path d="M90.3389 41.6607V48.4842L89.2915 49.0091V41.1358L90.3389 41.6607Z" fill="#121212"/>
<path d="M88.2445 40.611V48.4843L89.2919 49.0092V41.1359L88.2445 40.611Z" fill="#626262"/>
<path d="M82.4834 37.1991V44.0226L78.8175 41.9231V35.0995L82.4834 37.1991Z" fill="#E84646"/>
<path d="M82.4834 37.1991V40.8733L78.8175 38.7738V35.0995L82.4834 37.1991Z" fill="#A1A1A1"/>
<path d="M84.3164 41.3982L83.5308 41.923L88.2441 44.8099V43.7601L84.3164 41.3982Z" fill="#6F6F6F"/>
<path d="M83.5307 41.9232V42.4481L88.244 45.3349V44.8101L83.5307 41.9232Z" fill="#626262"/>
<path d="M93.4811 47.1721L92.6955 47.4345L90.8626 46.3848L91.6481 46.1223L93.4811 47.1721Z" fill="#A1A1A1"/>
<path d="M90.8623 46.3847V48.2218L92.6953 49.534V47.4345L90.8623 46.3847Z" fill="#878787"/>
<path d="M93.481 47.1723V49.0094L92.6954 49.5343V47.4348L93.481 47.1723Z" fill="#6E6E6E"/>
<path d="M93.4811 44.2851L92.6955 44.5475L90.8626 43.4977L91.6481 43.2353L93.4811 44.2851Z" fill="#EA5858"/>
<path d="M90.8623 43.4978V45.3349L92.6953 46.6472V44.5476L90.8623 43.4978Z" fill="#E84646"/>
<path d="M93.481 44.2851V46.1222L92.6954 46.6471V44.5475L93.481 44.2851Z" fill="#E52F2F"/>
<path d="M101.859 52.1585L101.074 52.421L99.2406 51.3712L100.026 51.1087L101.859 52.1585Z" fill="#DBDBDB"/>
<path d="M99.241 51.3711V53.4706L101.074 54.5204V52.4208L99.241 51.3711Z" fill="#C2C2C2"/>
<path d="M101.859 52.1583V53.9954L101.074 54.5203V52.4207L101.859 52.1583Z" fill="#A1A1A1"/>
<path d="M101.859 49.2716L101.074 49.5341L99.2406 48.4843L100.026 48.2218L101.859 49.2716Z" fill="#7E7E7E"/>
<path d="M99.241 48.4843V50.5838L101.074 51.6336V49.534L99.241 48.4843Z" fill="#6F6F6F"/>
<path d="M101.859 49.2719V51.109L101.074 51.6339V49.5343L101.859 49.2719Z" fill="#5F5F5F"/>
<path d="M97.6705 49.534L96.885 50.0589L95.052 49.0091L95.8376 48.4843L97.6705 49.534Z" fill="#B1B1B1"/>
<path d="M95.0517 49.0092V50.8463L96.8846 51.896V50.0589L95.0517 49.0092Z" fill="#A1A1A1"/>
<path d="M97.6703 49.534V51.6335L96.8847 51.896V50.0589L97.6703 49.534Z" fill="#9A9A9A"/>
<path d="M97.6705 46.6473L96.885 47.1722L95.052 46.1224L95.8376 45.5975L97.6705 46.6473Z" fill="#B0B0B0"/>
<path d="M95.0517 46.1224V47.9595L96.8846 49.0093V47.1721L95.0517 46.1224Z" fill="#A6A6A6"/>
<path d="M97.6703 46.6472V48.7467L96.8847 49.0092V47.1721L97.6703 46.6472Z" fill="#8A8A8A"/>
<path d="M74.8894 38.7737V33.7873L63.8917 27.4886V32.2126L74.8894 38.7737Z" fill="#919191"/>
<path d="M102.908 25.389L60.2262 0.719299V9.90482L102.908 34.5745V25.389Z" fill="#626262"/>
<path d="M61.0114 1.76921V9.64251L102.122 33.5249V25.6516L61.0114 1.76921Z" fill="#0A0A0A"/>
<path d="M62.0588 2.2941V9.11763L102.122 32.4751V33.5249L61.0114 9.64251V1.76921L62.0588 2.2941Z" fill="#777777"/>
<path d="M62.0588 2.2941V9.11762L61.0114 9.64251V1.76921L62.0588 2.2941Z" fill="#121212"/>
<path d="M61.2733 0.194534L60.2259 0.719418L102.908 25.3891L103.955 24.8642L61.2733 0.194534Z" fill="#777777"/>
<path d="M102.907 34.5746L103.955 34.3122V24.8642L102.907 25.3891V34.5746Z" fill="#121212"/>
<path d="M84.3163 15.4161V21.9772L83.5307 22.5021V14.8912L84.3163 15.4161Z" fill="#121212"/>
<path d="M82.4831 14.3664V21.9773L83.5305 22.5022V14.8913L82.4831 14.3664Z" fill="#626262"/>
<path d="M78.8169 12.2669V18.828L78.0313 19.3529V11.7421L78.8169 12.2669Z" fill="#121212"/>
<path d="M76.9836 11.2171V18.8279L78.031 19.3528V11.742L76.9836 11.2171Z" fill="#626262"/>
<path d="M90.3389 18.8278V25.3889L89.2915 25.9138V18.3029L90.3389 18.8278Z" fill="#121212"/>
<path d="M88.2445 17.7781V25.3889L89.2919 25.9138V18.303L88.2445 17.7781Z" fill="#626262"/>
<path d="M82.4834 14.3663V20.9274L78.8175 18.8278V12.2667L82.4834 14.3663Z" fill="#E84646"/>
<path d="M82.4834 14.3663V17.7781L78.8175 15.6785V12.2667L82.4834 14.3663Z" fill="#A1A1A1"/>
<path d="M84.3164 18.5656L83.5308 18.8281L88.2441 21.7149V20.6652L84.3164 18.5656Z" fill="#6F6F6F"/>
<path d="M83.5307 18.828V19.3529L88.244 22.2398V21.7149L83.5307 18.828Z" fill="#626262"/>
<path d="M93.4811 24.0768L92.6955 24.6017L90.8626 23.552L91.6481 23.0271L93.4811 24.0768Z" fill="#A1A1A1"/>
<path d="M90.8623 23.5518V25.3889L92.6953 26.4387V24.6016L90.8623 23.5518Z" fill="#878787"/>
<path d="M93.481 24.0766V25.9137L92.6954 26.4386V24.6015L93.481 24.0766Z" fill="#6E6E6E"/>
<path d="M93.4811 21.1898L92.6955 21.7147L90.8626 20.6649L91.6481 20.1401L93.4811 21.1898Z" fill="#EA5858"/>
<path d="M90.8623 20.6648V22.5019L92.6953 23.5517V21.7146L90.8623 20.6648Z" fill="#E84646"/>
<path d="M93.481 21.1897V23.0268L92.6954 23.5516V21.7145L93.481 21.1897Z" fill="#E52F2F"/>
<path d="M101.859 29.0632L101.074 29.5881L99.2406 28.5383L100.026 28.0134L101.859 29.0632Z" fill="#DBDBDB"/>
<path d="M99.241 28.5382V30.3753L101.074 31.4251V29.588L99.241 28.5382Z" fill="#C2C2C2"/>
<path d="M101.859 29.0631V30.9002L101.074 31.4251V29.588L101.859 29.0631Z" fill="#A1A1A1"/>
<path d="M101.859 26.1764L101.074 26.7013L99.2406 25.6515L100.026 25.1266L101.859 26.1764Z" fill="#7E7E7E"/>
<path d="M99.241 25.6514V27.4885L101.074 28.5383V26.7012L99.241 25.6514Z" fill="#6F6F6F"/>
<path d="M101.859 26.1762V28.0133L101.074 28.5382V26.7011L101.859 26.1762Z" fill="#5F5F5F"/>
<path d="M97.6705 26.7013L96.885 26.9637L95.052 25.9139L95.8376 25.389L97.6705 26.7013Z" fill="#B1B1B1"/>
<path d="M95.0517 25.9139V27.751L96.8846 29.0632V26.9637L95.0517 25.9139Z" fill="#A1A1A1"/>
<path d="M97.6703 26.7011V28.5382L96.8847 29.0631V26.9636L97.6703 26.7011Z" fill="#9A9A9A"/>
<path d="M97.6705 23.8144L96.885 24.0768L95.052 23.027L95.8376 22.5021L97.6705 23.8144Z" fill="#B0B0B0"/>
<path d="M95.0517 23.0271V24.8642L96.8846 26.1764V24.0768L95.0517 23.0271Z" fill="#A6A6A6"/>
<path d="M97.6703 23.8144V25.6515L96.8847 26.1764V24.0769L97.6703 23.8144Z" fill="#8A8A8A"/>
<path d="M74.8894 15.6788V10.6923L63.8917 4.39369V9.38012L74.8894 15.6788Z" fill="#919191"/>
<path d="M102.908 13.5794L60.2262 -11.0902V-1.64227L102.908 23.0274V13.5794Z" fill="#626262"/>
<path d="M61.0114 -9.7782V-1.9049L102.122 21.9775V14.1042L61.0114 -9.7782Z" fill="#0A0A0A"/>
<path d="M62.0588 -9.25331V-2.69222L102.122 20.6652V21.9775L61.0114 -1.9049V-9.7782L62.0588 -9.25331Z" fill="#777777"/>
<path d="M61.2733 -11.353L60.2259 -11.0906L102.908 13.5791L103.955 13.3167L61.2733 -11.353Z" fill="#777777"/>
<path d="M102.907 23.0271L103.955 22.5022V13.3167L102.907 13.5791V23.0271Z" fill="#121212"/>
<path d="M84.3163 3.8687V10.4298L83.5307 10.9547V3.08138L84.3163 3.8687Z" fill="#121212"/>
<path d="M82.4831 2.55656V10.4299L83.5305 10.9548V3.08145L82.4831 2.55656Z" fill="#626262"/>
<path d="M78.8169 0.457364V7.28091L78.0313 7.80579V-0.0675201L78.8169 0.457364Z" fill="#121212"/>
<path d="M76.9836 -0.592758V7.28055L78.031 7.80543V-0.0678694L76.9836 -0.592758Z" fill="#626262"/>
<path d="M90.3389 7.2805V13.8416L89.2915 14.3665V6.49316L90.3389 7.2805Z" fill="#121212"/>
<path d="M88.2445 5.96822V13.8415L89.2919 14.3664V6.49309L88.2445 5.96822Z" fill="#626262"/>
<path d="M82.4834 2.55675V9.38028L78.8175 7.28074V0.457199L82.4834 2.55675Z" fill="#E84646"/>
<path d="M82.4834 2.55674V6.23096L78.8175 4.13141V0.457199L82.4834 2.55674Z" fill="#A1A1A1"/>
<path d="M84.3164 6.75552L83.5308 7.28041L88.2441 10.1673V9.11751L84.3164 6.75552Z" fill="#6F6F6F"/>
<path d="M83.5307 7.28038V7.80526L88.244 10.6921V10.1673L83.5307 7.28038Z" fill="#626262"/>
<path d="M93.4811 12.5293L92.6955 13.0542L90.8626 11.742L91.6481 11.4796L93.4811 12.5293Z" fill="#A1A1A1"/>
<path d="M90.8623 11.7421V13.8416L92.6953 14.8914V13.0543L90.8623 11.7421Z" fill="#878787"/>
<path d="M93.481 12.5294V14.3665L92.6954 14.8914V13.0543L93.481 12.5294Z" fill="#6E6E6E"/>
<path d="M93.4811 9.64269L92.6955 10.1676L90.8626 8.85536L91.6481 8.59293L93.4811 9.64269Z" fill="#EA5858"/>
<path d="M90.8623 8.85538V10.9549L92.6953 12.0047V10.1676L90.8623 8.85538Z" fill="#E84646"/>
<path d="M93.481 9.64275V11.4799L92.6954 12.0047V10.1676L93.481 9.64275Z" fill="#E52F2F"/>
<path d="M101.859 17.5157L101.074 18.0406L99.2406 16.7284L100.026 16.466L101.859 17.5157Z" fill="#DBDBDB"/>
<path d="M99.241 16.7284V18.828L101.074 19.8777V18.0406L99.241 16.7284Z" fill="#C2C2C2"/>
<path d="M101.859 17.5158V19.3529L101.074 19.8778V18.0407L101.859 17.5158Z" fill="#A1A1A1"/>
<path d="M101.859 14.629L101.074 15.1539L99.2406 13.8417L100.026 13.5792L101.859 14.629Z" fill="#7E7E7E"/>
<path d="M99.241 13.8416V15.9412L101.074 16.991V15.1539L99.241 13.8416Z" fill="#6F6F6F"/>
<path d="M101.859 14.6289V16.466L101.074 16.9908V15.1537L101.859 14.6289Z" fill="#5F5F5F"/>
<path d="M97.6705 14.8914L96.885 15.4163L95.052 14.3665L95.8376 13.8416L97.6705 14.8914Z" fill="#B1B1B1"/>
<path d="M95.0517 14.3664V16.2035L96.8846 17.2533V15.4162L95.0517 14.3664Z" fill="#A1A1A1"/>
<path d="M97.6703 14.8912V16.9908L96.8847 17.2532V15.4161L97.6703 14.8912Z" fill="#9A9A9A"/>
<path d="M97.6705 12.0045L96.885 12.5294L95.052 11.4796L95.8376 10.9547L97.6705 12.0045Z" fill="#B0B0B0"/>
<path d="M95.0517 11.4796V13.3167L96.8846 14.3665V12.5294L95.0517 11.4796Z" fill="#A6A6A6"/>
<path d="M97.6703 12.0044V14.1039L96.8847 14.3664V12.5293L97.6703 12.0044Z" fill="#8A8A8A"/>
<path d="M74.8894 4.13135V-0.855078L63.8917 -7.15372V-2.42973L74.8894 4.13135Z" fill="#919191"/>
<path d="M102.908 2.03156L60.2262 -22.6381V-13.1902L102.908 11.4795V2.03156Z" fill="#626262"/>
<path d="M61.0114 -21.3259V-13.7151L102.122 10.1673V2.55641L61.0114 -21.3259Z" fill="#0A0A0A"/>
<path d="M62.0588 -20.8011V-14.24L102.122 9.11749V10.1673L61.0114 -13.7151V-21.3259L62.0588 -20.8011Z" fill="#777777"/>
<path d="M61.2733 -23.1629L60.2259 -22.638L102.908 2.03169L103.955 1.5068L61.2733 -23.1629Z" fill="#777777"/>
<path d="M102.907 11.4796L103.955 10.9548V1.50681L102.907 2.03169V11.4796Z" fill="#121212"/>
<path d="M90.3389 -4.5295V2.29403L89.2915 2.81892V-5.05438L90.3389 -4.5295Z" fill="#121212"/>
<path d="M88.2445 -5.57933V2.29397L89.2919 2.81886V-5.05444L88.2445 -5.57933Z" fill="#626262"/>
<path d="M93.4811 0.981895L92.6955 1.24433L90.8626 0.194567L91.6481 -0.330322L93.4811 0.981895Z" fill="#A1A1A1"/>
<path d="M90.8623 0.194397V2.0315L92.6953 3.08127V1.24417L90.8623 0.194397Z" fill="#878787"/>
<path d="M93.481 0.98175V2.81885L92.6954 3.08129V1.24419L93.481 0.98175Z" fill="#6E6E6E"/>
<path d="M90.8623 -2.69243V-0.855326L92.6953 0.194453V-1.64265L90.8623 -2.69243Z" fill="#E84646"/>
<path d="M93.481 -2.1676V-0.0680511L92.6954 0.194394V-1.64271L93.481 -2.1676Z" fill="#E52F2F"/>
<path d="M101.859 5.96832L101.074 6.23075L99.2406 5.18098L100.026 4.6561L101.859 5.96832Z" fill="#DBDBDB"/>
<path d="M99.241 5.18092V7.01803L101.074 8.33025V6.2307L99.241 5.18092Z" fill="#C2C2C2"/>
<path d="M101.859 5.96815V7.80525L101.074 8.33014V6.23059L101.859 5.96815Z" fill="#A1A1A1"/>
<path d="M101.859 3.08143L101.074 3.34387L99.2406 2.2941L100.026 1.76921L101.859 3.08143Z" fill="#7E7E7E"/>
<path d="M99.241 2.29413V4.13123L101.074 5.44345V3.34391L99.241 2.29413Z" fill="#6F6F6F"/>
<path d="M101.859 3.08134V4.91845L101.074 5.44334V3.34379L101.859 3.08134Z" fill="#5F5F5F"/>
<path d="M97.6705 3.34393L96.885 3.86881L95.052 2.5566L95.8376 2.29416L97.6705 3.34393Z" fill="#B1B1B1"/>
<path d="M95.0517 2.55658V4.65613L96.8846 5.7059V3.8688L95.0517 2.55658Z" fill="#A1A1A1"/>
<path d="M97.6703 3.3438V5.18089L96.8847 5.70578V3.86867L97.6703 3.3438Z" fill="#9A9A9A"/>
<path d="M97.6705 0.457022L96.885 0.981907L95.052 -0.3303L95.8376 -0.592743L97.6705 0.457022Z" fill="#B0B0B0"/>
<path d="M95.0517 -0.330368V1.76918L96.8846 2.81895V0.981848L95.0517 -0.330368Z" fill="#A6A6A6"/>
<path d="M97.6703 0.457123V2.29423L96.8847 2.81912V0.982012L97.6703 0.457123Z" fill="#8A8A8A"/>
</g>
</svg>
