<svg width="185" height="148" viewBox="0 0 185 148" fill="none" xmlns="http://www.w3.org/2000/svg">
<g opacity="0.8">
<path d="M176.487 148H182.956L301 79.6507L190.232 14.0029L150.345 109.908L176.487 148Z" fill="#CDCDCD"/>
<path d="M16.9388 11.3013L174.062 102.074L265.425 48.3126L266.234 47.7723L109.111 -43L18.2864 10.4908L16.9388 11.3013Z" fill="#686868"/>
<path d="M19.3646 9.95062L174.062 99.3721L263.808 46.4216L266.234 47.7724L265.425 48.3127L174.062 102.074L16.939 11.3014L18.2865 10.4909L19.3646 9.95062Z" fill="#8C8C8C"/>
<path d="M16.9392 11.3013V49.1231L174.062 140.165V102.074L16.9392 11.3013Z" fill="#0A0A0A"/>
<path d="M266.234 47.7724V85.8643L174.062 140.166V102.074L266.234 47.7724Z" fill="#121212"/>
<path d="M261.113 82.6223V56.9575L179.183 105.315V130.98L261.113 82.6223Z" fill="#0A0A0A"/>
<path d="M259.496 82.0819V57.7679L261.113 56.9575V82.6223L179.183 130.98V129.359L259.496 82.0819Z" fill="#6F6F6F"/>
<path d="M176.488 110.178L3.73336 9.41016L7.50645 7.24892L180.261 107.747L176.488 110.178Z" fill="#686868"/>
<path d="M3.73399 9.41014V47.2319L176.489 148V110.178L3.73399 9.41014Z" fill="#5A5A5A"/>
<path d="M14.5139 21.5673V46.6917L12.0884 45.341V20.7568L14.5139 21.5673Z" fill="#0A0A0A"/>
<path d="M168.403 110.989V136.113L165.978 134.762V110.178L168.403 110.989Z" fill="#0A0A0A"/>
<path d="M180.261 107.747V145.569L176.488 148V110.178L180.261 107.747Z" fill="#121212"/>
<path d="M160.317 103.964L159.509 103.424V107.206L160.317 107.747C161.126 108.287 161.934 107.747 161.934 106.936C161.934 106.396 161.665 105.855 161.395 105.315C161.126 104.505 160.856 104.235 160.317 103.964Z" fill="#0A0A0A"/>
<path d="M160.047 103.694V106.936L160.855 107.476C161.125 107.747 161.394 107.747 161.664 107.747C161.394 108.017 160.855 108.017 160.316 107.747L159.507 107.206V103.424L160.047 103.694Z" fill="#8C8C8C"/>
<path d="M155.736 103.154C155.736 103.694 156.005 104.235 156.275 104.775C156.544 105.315 157.083 105.856 157.353 106.126L158.161 106.396V102.614L157.353 102.073C156.544 101.533 155.736 102.073 155.736 103.154Z" fill="#0A0A0A"/>
<path d="M156.544 101.803C156.275 102.073 156.275 102.344 156.275 102.884C156.275 103.424 156.544 103.965 156.814 104.505C157.083 105.045 157.622 105.585 157.892 105.856H158.161V106.396L157.353 105.856C156.814 105.585 156.544 105.045 156.275 104.505C156.005 103.965 155.736 103.424 155.736 102.884C155.736 102.344 156.005 102.073 156.544 101.803Z" fill="#8C8C8C"/>
<path d="M160.047 106.936L159.507 107.206V103.424L160.047 103.694V106.936Z" fill="#121212"/>
<path d="M160.317 108.827L159.508 108.287V112.069L160.317 112.609C161.125 113.15 161.934 112.609 161.934 111.799C161.934 111.259 161.665 110.718 161.395 110.178C161.125 109.368 160.856 109.097 160.317 108.827Z" fill="#0A0A0A"/>
<path d="M160.047 108.557V111.799L160.855 112.339C161.125 112.609 161.394 112.609 161.664 112.609C161.394 112.88 160.855 112.88 160.316 112.609L159.508 112.069V108.287L160.047 108.557Z" fill="#8C8C8C"/>
<path d="M155.735 108.017C155.735 108.557 156.005 109.098 156.274 109.638C156.544 110.178 157.083 110.718 157.352 110.989L158.161 111.259V107.477L157.352 106.936C156.544 106.396 155.735 106.936 155.735 108.017Z" fill="#0A0A0A"/>
<path d="M156.544 106.936C156.274 107.206 156.274 107.477 156.274 108.017C156.274 108.557 156.544 109.098 156.813 109.638C157.083 110.178 157.622 110.718 157.891 110.989H158.161V111.529L157.352 110.989C156.813 110.718 156.544 110.178 156.274 109.638C156.005 109.098 155.735 108.557 155.735 108.017C155.735 107.206 156.005 106.936 156.544 106.936Z" fill="#8C8C8C"/>
<path d="M160.047 111.799L159.507 112.069V108.287L160.047 108.557V111.799Z" fill="#121212"/>
<path d="M160.317 113.69L159.508 113.15V116.932L160.317 117.472C161.125 118.013 161.934 117.472 161.934 116.662C161.934 116.122 161.665 115.581 161.395 115.041C161.125 114.501 160.856 113.96 160.317 113.69Z" fill="#0A0A0A"/>
<path d="M160.047 113.42V116.662L160.855 117.202C161.125 117.472 161.394 117.472 161.664 117.472C161.394 117.743 160.855 117.743 160.316 117.472L159.508 116.932V113.15L160.047 113.42Z" fill="#8C8C8C"/>
<path d="M155.735 112.88C155.735 113.42 156.005 113.96 156.274 114.501C156.544 115.041 157.083 115.581 157.352 115.851L158.161 116.122V112.339L157.352 111.799C156.544 111.529 155.735 111.799 155.735 112.88Z" fill="#0A0A0A"/>
<path d="M156.544 111.799C156.274 112.069 156.274 112.339 156.274 112.88C156.274 113.42 156.544 113.96 156.813 114.501C157.083 115.041 157.622 115.581 157.891 115.851H158.161V116.392L157.352 115.851C156.813 115.581 156.544 115.041 156.274 114.501C156.005 113.96 155.735 113.42 155.735 112.88C155.735 112.339 156.005 111.799 156.544 111.799Z" fill="#8C8C8C"/>
<path d="M160.047 116.662L159.507 116.932V113.15L160.047 113.42V116.662Z" fill="#121212"/>
<path d="M160.317 118.553L159.508 118.013V121.795L160.317 122.335C161.125 122.875 161.934 122.335 161.934 121.525C161.934 120.984 161.665 120.444 161.395 119.904C161.125 119.363 160.856 118.823 160.317 118.553Z" fill="#0A0A0A"/>
<path d="M160.047 118.283V121.795L160.855 122.065C161.125 122.335 161.394 122.335 161.664 122.335C161.394 122.605 160.855 122.605 160.316 122.335L159.508 121.795V118.013L160.047 118.283Z" fill="#8C8C8C"/>
<path d="M155.735 117.743C155.735 118.283 156.005 118.823 156.274 119.363C156.544 119.904 157.083 120.444 157.352 120.714L158.161 121.255V117.472L157.352 116.932C156.544 116.392 155.735 116.662 155.735 117.743Z" fill="#0A0A0A"/>
<path d="M156.544 116.662C156.274 116.932 156.274 117.202 156.274 117.743C156.274 118.283 156.544 118.823 156.813 119.363C157.083 119.904 157.622 120.444 157.891 120.714H158.161V121.255L157.352 120.714C156.813 120.444 156.544 119.904 156.274 119.363C156.005 118.823 155.735 118.283 155.735 117.743C155.735 117.202 156.005 116.662 156.544 116.662Z" fill="#8C8C8C"/>
<path d="M160.047 121.795H159.507V118.013L160.047 118.283V121.795Z" fill="#121212"/>
<path d="M160.317 123.416L159.508 122.875V126.658L160.317 127.198C161.125 127.738 161.934 127.198 161.934 126.387C161.934 125.847 161.665 125.307 161.395 124.767C161.125 124.226 160.856 123.686 160.317 123.416Z" fill="#0A0A0A"/>
<path d="M160.047 123.146V126.387L160.855 127.198C161.125 127.468 161.394 127.468 161.664 127.468C161.394 127.738 160.855 127.738 160.316 127.468L159.508 126.928V123.146H160.047Z" fill="#8C8C8C"/>
<path d="M155.735 122.605C155.735 123.146 156.005 123.686 156.274 124.226C156.544 124.767 157.083 125.307 157.352 125.577L158.161 126.117V122.335L157.352 121.795C156.544 121.255 155.735 121.795 155.735 122.605Z" fill="#0A0A0A"/>
<path d="M156.544 121.525C156.274 121.795 156.274 122.065 156.274 122.605C156.274 123.146 156.544 123.686 156.813 124.226C157.083 124.767 157.622 125.307 157.891 125.577H158.161V126.117L157.352 125.577C156.813 125.307 156.544 124.767 156.274 124.226C156.005 123.686 155.735 123.146 155.735 122.605C155.735 122.065 156.005 121.525 156.544 121.525Z" fill="#8C8C8C"/>
<path d="M160.047 126.658L159.507 126.928V122.875L160.047 123.146V126.658Z" fill="#121212"/>
<path d="M160.317 128.549L159.508 128.008V131.79L160.317 132.331C161.125 132.871 161.934 132.331 161.934 131.52C161.934 130.98 161.665 130.44 161.395 129.899C161.125 129.089 160.856 128.819 160.317 128.549Z" fill="#0A0A0A"/>
<path d="M160.047 128.278V131.52L160.855 132.061C161.125 132.331 161.394 132.331 161.664 132.331C161.394 132.601 160.855 132.601 160.316 132.331L159.508 131.79V128.008L160.047 128.278Z" fill="#8C8C8C"/>
<path d="M155.735 127.738C155.735 128.278 156.005 128.819 156.274 129.359C156.544 129.899 157.083 130.44 157.352 130.71L158.161 130.98V127.198L157.352 126.658C156.544 126.117 155.735 126.658 155.735 127.738Z" fill="#0A0A0A"/>
<path d="M156.544 126.387C156.274 126.658 156.274 126.928 156.274 127.468C156.274 128.008 156.544 128.549 156.813 129.089C157.083 129.629 157.622 130.17 157.891 130.44H158.161V130.98L157.352 130.44C156.813 130.17 156.544 129.629 156.274 129.089C156.005 128.549 155.735 128.008 155.735 127.468C155.735 126.928 156.005 126.658 156.544 126.387Z" fill="#8C8C8C"/>
<path d="M160.047 131.52L159.507 131.79V128.008L160.047 128.278V131.52Z" fill="#121212"/>
<path d="M160.317 133.412L159.508 132.871V136.653L160.317 137.194C161.125 137.734 161.934 137.194 161.934 136.383C161.934 135.843 161.665 135.303 161.395 134.762C161.125 133.952 160.856 133.682 160.317 133.412Z" fill="#0A0A0A"/>
<path d="M160.047 133.141V136.383L160.855 136.924C161.125 137.194 161.394 137.194 161.664 137.194C161.394 137.464 160.855 137.464 160.316 137.194L159.508 136.653V132.871L160.047 133.141Z" fill="#8C8C8C"/>
<path d="M155.735 132.601C155.735 133.142 156.005 133.682 156.274 134.222C156.544 134.762 157.083 135.303 157.352 135.573L158.161 135.843V132.061L157.352 131.521C156.544 130.98 155.735 131.521 155.735 132.601Z" fill="#0A0A0A"/>
<path d="M156.544 131.521C156.274 131.791 156.274 132.061 156.274 132.601C156.274 133.142 156.544 133.682 156.813 134.222C157.083 134.762 157.622 135.303 157.891 135.573L158.161 135.303V135.843L157.352 135.303C156.813 135.033 156.544 134.492 156.274 133.952C156.005 133.412 155.735 132.871 155.735 132.331C155.735 131.791 156.005 131.521 156.544 131.521Z" fill="#8C8C8C"/>
<path d="M160.047 136.383L159.507 136.653V132.871L160.047 133.141V136.383Z" fill="#121212"/>
<path d="M20.982 22.1074L20.1735 21.5671V25.3493L20.982 25.8896C21.7905 26.4299 22.599 25.8896 22.599 25.0791C22.599 24.5388 22.3295 23.9985 22.06 23.4582C21.7905 22.9179 21.2515 22.3776 20.982 22.1074Z" fill="#0A0A0A"/>
<path d="M20.442 21.8372V25.0791L21.2505 25.6194C21.52 25.8896 21.7895 25.8896 22.0591 25.8896C21.7895 26.1597 21.2505 26.1597 20.7115 25.8896L19.903 25.3493V21.5671L20.442 21.8372Z" fill="#8C8C8C"/>
<path d="M16.4008 21.2971C16.4008 21.8374 16.6702 22.3777 16.9398 22.918C17.2093 23.4583 17.7483 23.9986 18.0178 24.2688L18.8263 24.8091V21.0269L18.0178 20.4866C16.9398 19.9463 16.4008 20.2164 16.4008 21.2971Z" fill="#0A0A0A"/>
<path d="M17.2093 20.2164C16.9398 20.4866 16.9398 20.7567 16.9398 21.2971C16.9398 21.8374 17.2093 22.3777 17.4788 22.918C17.7483 23.4583 18.2873 23.9986 18.5568 24.2688L18.8263 24.5389V25.0792L18.0178 24.5389C17.4788 24.2688 17.2093 23.7285 16.9398 23.1881C16.6702 22.6478 16.4008 22.1075 16.4008 21.5672C16.4008 20.7567 16.6702 20.2164 17.2093 20.2164Z" fill="#8C8C8C"/>
<path d="M20.4432 25.3493H20.1731V21.5671L20.4432 21.8372V25.3493Z" fill="#121212"/>
<path d="M20.982 26.9702L20.1734 26.4299V30.212L20.982 30.7523C21.7905 31.2927 22.599 30.7523 22.599 29.9419C22.599 29.4016 22.3295 28.8613 22.06 28.3209C21.7905 27.7806 21.2515 27.2403 20.982 26.9702Z" fill="#0A0A0A"/>
<path d="M20.442 26.9702V30.2121L21.2505 30.7524C21.52 31.0225 21.7895 31.0225 22.0591 31.0225C21.7895 31.2927 21.2505 31.2927 20.7115 31.0225L19.903 30.4822V26.7L20.442 26.9702Z" fill="#8C8C8C"/>
<path d="M16.4007 26.4299C16.4007 26.9702 16.6702 27.5105 16.9397 28.0508C17.2092 28.5911 17.7483 29.1314 18.0178 29.4016L18.8263 29.9419V26.1597L18.0178 25.6194C16.9397 24.809 16.4007 25.3493 16.4007 26.4299Z" fill="#0A0A0A"/>
<path d="M17.2092 25.0792C16.9397 25.3493 16.9397 25.6195 16.9397 26.1598C16.9397 26.7001 17.2092 27.2404 17.4788 27.7807C17.7483 28.3211 18.2873 28.8614 18.5568 29.1315L18.8263 29.4017V29.942L18.0178 29.4017C17.4787 29.1315 17.2092 28.5912 16.9397 28.0509C16.6702 27.5106 16.4007 26.9703 16.4007 26.43C16.4007 25.6195 16.6702 25.0792 17.2092 25.0792Z" fill="#8C8C8C"/>
<path d="M20.4432 30.2123L20.1731 30.4825V26.7003L20.4432 26.9705V30.2123Z" fill="#121212"/>
<path d="M20.982 32.1037L20.1734 31.5634V35.3455L20.982 35.8858C21.7905 36.4262 22.599 35.8858 22.599 35.0754C22.599 34.5351 22.3295 33.9948 22.06 33.4544C21.7905 32.644 21.2515 32.3738 20.982 32.1037Z" fill="#0A0A0A"/>
<path d="M20.442 31.8335V35.0754L21.2505 35.6157C21.52 35.8858 21.7895 35.8858 22.0591 35.8858C21.7895 36.156 21.2505 36.156 20.7115 35.8858L19.903 35.3455V31.5634L20.442 31.8335Z" fill="#8C8C8C"/>
<path d="M16.4007 31.293C16.4007 31.8333 16.6702 32.3736 16.9397 32.9139C17.2092 33.4542 17.7483 33.9945 18.0178 34.2647L18.8263 34.805V31.0228L18.0178 30.4825C16.9397 29.672 16.4007 30.2123 16.4007 31.293Z" fill="#0A0A0A"/>
<path d="M17.2092 29.9422C16.9397 30.2124 16.9397 30.4826 16.9397 31.0229C16.9397 31.5632 17.2092 32.1035 17.4788 32.6438C17.7483 33.1841 18.2873 33.7244 18.5568 33.9946L18.8263 34.2647V34.805L18.0178 34.2647C17.4787 33.9946 17.2092 33.4543 16.9397 32.914C16.6702 32.3736 16.4007 31.8333 16.4007 31.293C16.4007 30.4826 16.6702 30.2124 17.2092 29.9422Z" fill="#8C8C8C"/>
<path d="M20.4432 35.0754L20.1731 35.3455V31.5634L20.4432 31.8335V35.0754Z" fill="#121212"/>
<path d="M20.982 36.966L20.1734 36.4257V40.2079L20.982 40.7482C21.7905 41.2885 22.599 40.7482 22.599 39.9377C22.599 39.3974 22.3295 38.8571 22.06 38.3168C21.7905 37.5063 21.2515 37.2362 20.982 36.966Z" fill="#0A0A0A"/>
<path d="M20.442 36.6959V39.9377L21.2505 40.478C21.52 40.7482 21.7895 40.7482 22.0591 40.7482C21.7895 41.0184 21.2505 41.0184 20.7115 40.7482L19.903 40.2079V36.4257L20.442 36.6959Z" fill="#8C8C8C"/>
<path d="M16.4007 36.1557C16.4007 36.696 16.6702 37.2363 16.9397 37.7766C17.2092 38.317 17.7483 38.8573 18.0178 39.1274L18.8263 39.6677V35.8856L18.0178 35.3452C16.9397 34.5348 16.4007 35.0751 16.4007 36.1557Z" fill="#0A0A0A"/>
<path d="M17.2092 35.0751C16.9397 35.3452 16.9397 35.6154 16.9397 36.1557C16.9397 36.696 17.2092 37.2363 17.4788 37.7766C17.7483 38.3169 18.2873 38.8572 18.5568 39.1274L18.8263 39.3975V39.9379L18.0178 39.3975C17.4787 39.1274 17.2092 38.5871 16.9397 38.0468C16.6702 37.5065 16.4007 36.9661 16.4007 36.4258C16.4007 35.3452 16.6702 35.0751 17.2092 35.0751Z" fill="#8C8C8C"/>
<path d="M20.4432 39.9377L20.1731 40.2079V36.4257L20.4432 36.6959V39.9377Z" fill="#121212"/>
<path d="M20.982 41.8288L20.1734 41.2885V45.0707L20.982 45.611C21.7905 46.1513 22.599 45.611 22.599 44.8005C22.599 44.2602 22.3295 43.7199 22.06 43.1796C21.7905 42.6393 21.2515 42.099 20.982 41.8288Z" fill="#0A0A0A"/>
<path d="M20.442 41.5587V44.8005L21.2505 45.3409C21.52 45.611 21.7895 45.611 22.0591 45.611C21.7895 45.8812 21.2505 45.8812 20.7115 45.611L19.903 45.0707V41.2885L20.442 41.5587Z" fill="#8C8C8C"/>
<path d="M16.4007 41.0185C16.4007 41.5588 16.6702 42.0991 16.9397 42.6394C17.2092 43.1797 17.7483 43.72 18.0178 43.9902L18.8263 44.5305V40.7483L18.0178 40.208C16.9397 39.6677 16.4007 39.9379 16.4007 41.0185Z" fill="#0A0A0A"/>
<path d="M17.2092 39.9379C16.9397 40.208 16.9397 40.4782 16.9397 41.0185C16.9397 41.5588 17.2092 42.0991 17.4788 42.6394C17.7483 43.1797 18.2873 43.72 18.5568 43.9902L18.8263 44.2604V44.8007L18.0178 44.2604C17.4787 43.9902 17.2092 43.4499 16.9397 42.9096C16.6702 42.3693 16.4007 41.829 16.4007 41.2886C16.4007 40.208 16.6702 39.9379 17.2092 39.9379Z" fill="#8C8C8C"/>
<path d="M20.4432 44.8005L20.1731 45.0707V41.2885L20.4432 41.5587V44.8005Z" fill="#121212"/>
<path d="M20.982 46.6916L20.1734 46.1513V49.9335L20.982 50.4738C21.7905 51.0141 22.599 50.4738 22.599 49.6633C22.599 49.123 22.3295 48.5827 22.06 48.0424C21.7905 47.5021 21.2515 46.9618 20.982 46.6916Z" fill="#0A0A0A"/>
<path d="M20.442 46.4214V49.6633L21.2505 50.2036C21.52 50.4738 21.7895 50.4738 22.0591 50.4738C21.7895 50.7439 21.2505 50.7439 20.7115 50.4738L19.903 49.9335V46.1513L20.442 46.4214Z" fill="#8C8C8C"/>
<path d="M16.4007 45.8811C16.4007 46.4214 16.6702 46.9618 16.9397 47.5021C17.2092 48.0424 17.7483 48.5827 18.0178 48.8528L18.8263 49.3932V45.611L18.0178 45.0707C16.9397 44.5303 16.4007 44.8005 16.4007 45.8811Z" fill="#0A0A0A"/>
<path d="M17.2092 44.8005C16.9397 45.0707 16.9397 45.3408 16.9397 45.8811C16.9397 46.4214 17.2092 46.9618 17.4788 47.5021C17.7483 48.0424 18.2873 48.5827 18.5568 48.8528L18.8263 49.123V49.6633L18.0178 48.8528C17.4787 48.5827 17.2092 48.0424 16.9397 47.5021C16.6702 46.9618 16.4007 46.4214 16.4007 45.8811C16.4007 45.3408 16.6702 44.8005 17.2092 44.8005Z" fill="#8C8C8C"/>
<path d="M20.4432 49.9335H20.1731V46.1513L20.4432 46.4214V49.9335Z" fill="#121212"/>
<path d="M20.982 51.5543L20.1734 51.0139V54.7961L20.982 55.3364C21.7905 55.8768 22.599 55.3364 22.599 54.526C22.599 53.9857 22.3295 53.4453 22.06 52.905C21.7905 52.3647 21.2515 51.8244 20.982 51.5543Z" fill="#0A0A0A"/>
<path d="M20.442 51.2841V54.526L21.2505 55.0663C21.52 55.3364 21.7895 55.3364 22.0591 55.3364C21.7895 55.6066 21.2505 55.6066 20.7115 55.3364L19.903 54.7961V51.0139L20.442 51.2841Z" fill="#8C8C8C"/>
<path d="M16.4007 50.744C16.4007 51.2843 16.6702 51.8246 16.9397 52.3649C17.2092 52.9052 17.7483 53.4455 18.0178 53.7157L18.8263 54.256V50.4738L18.0178 49.9335C16.9397 49.3932 16.4007 49.9335 16.4007 50.744Z" fill="#0A0A0A"/>
<path d="M17.2092 49.6634C16.9397 49.9336 16.9397 50.2037 16.9397 50.744C16.9397 51.2844 17.2092 51.8247 17.4788 52.365C17.7483 52.9053 18.2873 53.4456 18.5568 53.7158L18.8263 53.9859V54.2561L18.0178 53.7158C17.4787 53.4456 17.2092 52.9053 16.9397 52.365C16.6702 51.8247 16.4007 51.2844 16.4007 50.744C16.4007 50.2037 16.6702 49.6634 17.2092 49.6634Z" fill="#8C8C8C"/>
<path d="M20.4432 54.7961H20.1731V51.0139L20.4432 51.2841V54.7961Z" fill="#121212"/>
<path d="M99.4082 68.0339L98.5997 67.4936V71.2757L99.4082 71.8161C100.217 72.3564 101.025 71.8161 101.025 71.0056C101.025 70.4653 100.756 69.925 100.486 69.3847C100.217 68.5742 99.9472 68.304 99.4082 68.0339Z" fill="#0A0A0A"/>
<path d="M99.1378 67.7637V71.0056L99.9463 71.5459C100.216 71.8161 100.485 71.8161 100.755 71.8161C100.485 72.0862 99.9463 72.0862 99.4073 71.8161L98.5988 71.2757V67.4936L99.1378 67.7637Z" fill="#8C8C8C"/>
<path d="M94.8263 67.2234C94.8263 67.7637 95.0958 68.3041 95.3654 68.8444C95.6349 69.3847 96.1739 69.925 96.4434 70.1951L97.2519 70.4653V66.6831L96.4434 66.1428C95.6349 65.6025 94.8263 66.1428 94.8263 67.2234Z" fill="#0A0A0A"/>
<path d="M95.6349 65.8727C95.3654 66.1429 95.3654 66.4131 95.3654 66.9534C95.3654 67.4937 95.6349 68.034 95.9044 68.5743C96.1739 69.1146 96.7129 69.6549 96.9824 69.9251L97.2519 70.1952V70.4654L96.4434 69.9251C95.9044 69.6549 95.6349 69.1146 95.3654 68.5743C95.0958 68.034 94.8263 67.4937 94.8263 66.9534C94.8263 66.4131 95.0959 66.1429 95.6349 65.8727Z" fill="#8C8C8C"/>
<path d="M99.1386 71.0059L98.5983 71.276V67.4938L99.1386 67.764V71.0059Z" fill="#121212"/>
<path d="M99.4089 72.8966L98.6004 72.3563V76.1385L99.4089 76.6788C100.217 77.2191 101.026 76.6788 101.026 75.8684C101.026 75.328 100.756 74.7877 100.487 74.2474C100.217 73.437 99.948 73.1668 99.4089 72.8966Z" fill="#0A0A0A"/>
<path d="M99.1385 72.6265V75.8684L99.947 76.4087C100.217 76.6788 100.486 76.6788 100.756 76.6788C100.486 76.949 99.947 76.949 99.408 76.6788L98.5995 76.1385V72.3563L99.1385 72.6265Z" fill="#8C8C8C"/>
<path d="M94.8271 72.0862C94.8271 72.6265 95.0966 73.1668 95.3661 73.7071C95.6356 74.2474 96.1746 74.7877 96.4441 75.0579L97.2526 75.5982V71.816L96.4441 71.2757C95.6356 70.4653 94.8271 71.0056 94.8271 72.0862Z" fill="#0A0A0A"/>
<path d="M95.6356 71.0055C95.3661 71.2757 95.3661 71.5458 95.3661 72.0862C95.3661 72.6265 95.6356 73.1668 95.9051 73.7071C96.1746 74.2474 96.7136 74.7877 96.9831 75.0579L97.2526 75.328V75.8683L96.4441 75.328C95.9051 75.0579 95.6356 74.5176 95.3661 73.9772C95.0966 73.4369 94.8271 72.8966 94.8271 72.3563C94.8271 71.2757 95.0966 71.0055 95.6356 71.0055Z" fill="#8C8C8C"/>
<path d="M99.1393 75.8684L98.599 76.1385V72.3563L99.1393 72.6265V75.8684Z" fill="#121212"/>
<path d="M99.4089 77.7596L98.6004 77.2193V81.0015L99.4089 81.5418C100.217 82.0821 101.026 81.5418 101.026 80.7313C101.026 80.191 100.756 79.6507 100.487 79.1104C100.217 78.5701 99.948 78.0298 99.4089 77.7596Z" fill="#0A0A0A"/>
<path d="M99.1385 77.4895V80.7313L99.947 81.2717C100.217 81.5418 100.486 81.5418 100.756 81.5418C100.486 81.812 99.947 81.812 99.408 81.5418L98.5995 81.0015V77.2193L99.1385 77.4895Z" fill="#8C8C8C"/>
<path d="M94.8271 76.9493C94.8271 77.4896 95.0966 78.0299 95.3661 78.5702C95.6356 79.1105 96.1746 79.6508 96.4441 79.921L97.2526 80.4613V76.6791L96.4441 76.1388C95.6356 75.5985 94.8271 75.8687 94.8271 76.9493Z" fill="#0A0A0A"/>
<path d="M95.6356 75.8687C95.3661 76.1388 95.3661 76.409 95.3661 76.9493C95.3661 77.4896 95.6356 78.0299 95.9051 78.5702C96.1746 79.1105 96.7136 79.6508 96.9831 79.921L97.2526 80.1912V80.7315L96.4441 80.1912C95.9051 79.921 95.6356 79.3807 95.3661 78.8404C95.0966 78.3001 94.8271 77.7598 94.8271 77.2194C94.8271 76.1388 95.0966 75.8687 95.6356 75.8687Z" fill="#8C8C8C"/>
<path d="M99.1393 80.7313L98.599 81.0015V77.2193L99.1393 77.4895V80.7313Z" fill="#121212"/>
<path d="M99.4089 82.6221L98.6004 82.0818V85.864L99.4089 86.4043C100.217 86.9446 101.026 86.4043 101.026 85.5938C101.026 85.0535 100.756 84.5132 100.487 83.9729C100.217 83.4326 99.948 82.8923 99.4089 82.6221Z" fill="#0A0A0A"/>
<path d="M99.1385 82.352V85.5938L99.947 86.1342C100.217 86.4043 100.486 86.4043 100.756 86.4043C100.486 86.6745 99.947 86.6745 99.408 86.4043L98.5995 85.864V82.0818L99.1385 82.352Z" fill="#8C8C8C"/>
<path d="M94.8271 81.8119C94.8271 82.3522 95.0966 82.8925 95.3661 83.4328C95.6356 83.9732 96.1746 84.5135 96.4441 84.7836L97.2526 85.3239V81.5418L96.4441 81.0014C95.6356 80.4611 94.8271 80.7313 94.8271 81.8119Z" fill="#0A0A0A"/>
<path d="M95.6356 80.7313C95.3661 81.0014 95.3661 81.2716 95.3661 81.8119C95.3661 82.3522 95.6356 82.8925 95.9051 83.4328C96.1746 83.9732 96.7136 84.5135 96.9831 84.7836L97.2526 85.0538V85.5941L96.4441 85.0538C95.9051 84.7836 95.6356 84.2433 95.3661 83.703C95.0966 83.1627 94.8271 82.6224 94.8271 82.0821C94.8271 81.2716 95.0966 80.7313 95.6356 80.7313Z" fill="#8C8C8C"/>
<path d="M99.1393 85.864H98.599V82.0818L99.1393 82.352V85.864Z" fill="#121212"/>
<path d="M99.4089 87.4851L98.6004 86.9448V90.727L99.4089 91.2673C100.217 91.8076 101.026 91.2673 101.026 90.4568C101.026 89.9165 100.756 89.3762 100.487 88.8359C100.217 88.2956 99.948 87.7552 99.4089 87.4851Z" fill="#0A0A0A"/>
<path d="M99.1385 87.2149V90.4568L99.947 90.9971C100.217 91.2673 100.486 91.2673 100.756 91.2673C100.486 91.5374 99.947 91.5374 99.408 91.2673L98.5995 90.727V86.9448L99.1385 87.2149Z" fill="#8C8C8C"/>
<path d="M94.8271 86.6748C94.8271 87.2151 95.0966 87.7554 95.3661 88.2957C95.6356 88.836 96.1746 89.3764 96.4441 89.6465L97.2526 90.1868V86.4046L96.4441 85.8643C95.6356 85.324 94.8271 85.8643 94.8271 86.6748Z" fill="#0A0A0A"/>
<path d="M95.6356 85.5941C95.3661 85.8643 95.3661 86.1344 95.3661 86.6748C95.3661 87.2151 95.6356 87.7554 95.9051 88.2957C96.1746 88.836 96.7136 89.3763 96.9831 89.6465L97.2526 89.9166V90.4569L96.4441 89.9166C95.9051 89.6465 95.6356 89.1062 95.3661 88.5658C95.0966 88.0255 94.8271 87.4852 94.8271 86.9449C94.8271 86.1344 95.0966 85.5941 95.6356 85.5941Z" fill="#8C8C8C"/>
<path d="M99.1393 90.727H98.599V86.9448L99.1393 87.2149V90.727Z" fill="#121212"/>
<path d="M99.4089 92.3477L98.6004 91.8074V95.5896L99.4089 96.1299C100.217 96.6702 101.026 96.1299 101.026 95.3194C101.026 94.7791 100.756 94.2388 100.487 93.6985C100.217 93.1582 99.948 92.6179 99.4089 92.3477Z" fill="#0A0A0A"/>
<path d="M99.1385 92.3477V95.5896L99.947 96.1299C100.217 96.4 100.486 96.4 100.756 96.4C100.486 96.6702 99.947 96.6702 99.408 96.4L98.5995 95.8597V92.0775L99.1385 92.3477Z" fill="#8C8C8C"/>
<path d="M94.8271 91.8075C94.8271 92.3478 95.0966 92.8881 95.3661 93.4285C95.6356 93.9688 96.1746 94.5091 96.4441 94.7792L97.2526 95.3196V91.5374L96.4441 90.9971C95.6356 90.1866 94.8271 90.7269 94.8271 91.8075Z" fill="#0A0A0A"/>
<path d="M95.6356 90.4568C95.3661 90.7269 95.3661 90.9971 95.3661 91.5374C95.3661 92.0777 95.6356 92.618 95.9051 93.1583C96.1746 93.6986 96.7136 94.2389 96.9831 94.5091L97.2526 94.7792V95.3196L96.4441 94.7792C95.9051 94.5091 95.6356 93.9688 95.3661 93.4285C95.0966 92.8882 94.8271 92.3478 94.8271 91.8075C94.8271 90.9971 95.0966 90.4568 95.6356 90.4568Z" fill="#8C8C8C"/>
<path d="M99.1393 95.5898L98.599 95.86V92.0778L99.1393 92.3479V95.5898Z" fill="#121212"/>
<path d="M99.4089 97.481L98.6004 96.9407V100.723L99.4089 101.263C100.217 101.804 101.026 101.263 101.026 100.453C101.026 99.9124 100.756 99.3721 100.487 98.8318C100.217 98.0213 99.948 97.7512 99.4089 97.481Z" fill="#0A0A0A"/>
<path d="M99.1385 97.2109V100.453L99.947 100.993C100.217 101.263 100.486 101.263 100.756 101.263C100.486 101.533 99.947 101.533 99.408 101.263L98.5995 100.723V96.9407L99.1385 97.2109Z" fill="#8C8C8C"/>
<path d="M94.8271 96.6703C94.8271 97.2106 95.0966 97.7509 95.3661 98.2912C95.6356 98.8315 96.1746 99.3719 96.4441 99.642L97.2526 100.182V96.4001L96.4441 95.8598C95.6356 95.0494 94.8271 95.5897 94.8271 96.6703Z" fill="#0A0A0A"/>
<path d="M95.6356 95.3197C95.3661 95.5898 95.3661 95.86 95.3661 96.4003C95.3661 96.9406 95.6356 97.4809 95.9051 98.0212C96.1746 98.5615 96.7136 99.1018 96.9831 99.372L97.2526 99.6421V100.182L96.4441 99.6421C95.9051 99.372 95.6356 98.8317 95.3661 98.2914C95.0966 97.7511 94.8271 97.2108 94.8271 96.6704C94.8271 95.86 95.0966 95.5898 95.6356 95.3197Z" fill="#8C8C8C"/>
<path d="M99.1393 100.452L98.599 100.723V96.9404L99.1393 97.2106V100.452Z" fill="#121212"/>
<path d="M81.8905 57.4977L81.082 56.9574V60.7396L81.8905 61.2799C82.699 61.8202 83.5076 61.2799 83.5076 60.4694C83.5076 59.9291 83.238 59.3888 82.9685 58.8485C82.699 58.0381 82.16 57.7679 81.8905 57.4977Z" fill="#0A0A0A"/>
<path d="M81.3504 57.2276V60.4694L82.159 61.0098C82.4285 61.2799 82.698 61.2799 82.9675 61.2799C82.698 61.5501 82.1589 61.5501 81.6199 61.2799L80.8114 60.7396V56.9574L81.3504 57.2276Z" fill="#8C8C8C"/>
<path d="M77.3093 56.6874C77.3093 57.2277 77.5788 57.7681 77.8483 58.3084C78.1178 58.8487 78.6568 59.389 78.9263 59.6591L79.7349 60.1995V56.4173L78.9263 55.877C77.8483 55.0665 77.3093 55.6068 77.3093 56.6874Z" fill="#0A0A0A"/>
<path d="M78.1178 55.3366C77.8483 55.6067 77.8483 55.8769 77.8483 56.4172C77.8483 56.9575 78.1178 57.4978 78.3873 58.0381C78.6568 58.5785 79.1959 59.1188 79.4654 59.3889L79.7349 59.6591V60.1994L78.9263 59.6591C78.3873 59.3889 78.1178 58.8486 77.8483 58.3083C77.5788 57.768 77.3093 57.2277 77.3093 56.6874C77.3093 55.8769 77.5788 55.6067 78.1178 55.3366Z" fill="#8C8C8C"/>
<path d="M81.3517 60.4697L81.0816 60.7399V56.9577L81.3517 57.2279V60.4697Z" fill="#121212"/>
<path d="M81.8905 62.3605L81.082 61.8202V65.6023L81.8905 66.1427C82.6991 66.683 83.5076 66.1426 83.5076 65.3322C83.5076 64.7919 83.2381 64.2516 82.9686 63.7113C82.6991 62.9008 82.16 62.6306 81.8905 62.3605Z" fill="#0A0A0A"/>
<path d="M81.3504 62.0903V65.3322L82.159 65.8725C82.4285 66.1426 82.698 66.1427 82.9675 66.1427C82.698 66.4128 82.159 66.4128 81.6199 66.1427L80.8114 65.6023V61.8202L81.3504 62.0903Z" fill="#8C8C8C"/>
<path d="M77.3093 61.55C77.3093 62.0903 77.5788 62.6306 77.8483 63.171C78.1178 63.7113 78.6568 64.2516 78.9263 64.5217L79.7349 65.062V61.2799L78.9263 60.7396C77.8483 59.9291 77.3093 60.4694 77.3093 61.55Z" fill="#0A0A0A"/>
<path d="M78.1178 60.4695C77.8483 60.7397 77.8483 61.0098 77.8483 61.5501C77.8483 62.0905 78.1178 62.6308 78.3873 63.1711C78.6568 63.7114 79.1959 64.2517 79.4654 64.5218L79.7349 64.792V65.3323L78.9263 64.792C78.3873 64.5219 78.1178 63.9815 77.8483 63.4412C77.5788 62.9009 77.3093 62.3606 77.3093 61.8203C77.3093 60.7397 77.5788 60.4695 78.1178 60.4695Z" fill="#8C8C8C"/>
<path d="M81.3518 65.3322L81.0816 65.6023V61.8202L81.3518 62.0903V65.3322Z" fill="#121212"/>
<path d="M81.8905 67.2233L81.082 66.683V70.4652L81.8905 71.0055C82.6991 71.5458 83.5076 71.0055 83.5076 70.195C83.5076 69.6547 83.2381 69.1144 82.9686 68.5741C82.6991 68.0338 82.16 67.4935 81.8905 67.2233Z" fill="#0A0A0A"/>
<path d="M81.3504 66.9531V70.195L82.159 70.7353C82.4285 71.0055 82.698 71.0055 82.9675 71.0055C82.698 71.2756 82.159 71.2756 81.6199 71.0055L80.8114 70.4652V66.683L81.3504 66.9531Z" fill="#8C8C8C"/>
<path d="M77.3093 66.4128C77.3093 66.9531 77.5788 67.4934 77.8483 68.0337C78.1178 68.574 78.6568 69.1144 78.9263 69.3845L79.7349 69.9248V66.1427L78.9263 65.6023C77.8483 65.062 77.3093 65.3322 77.3093 66.4128Z" fill="#0A0A0A"/>
<path d="M78.1178 65.3322C77.8483 65.6023 77.8483 65.8725 77.8483 66.4128C77.8483 66.9531 78.1178 67.4934 78.3873 68.0337C78.6568 68.5741 79.1959 69.1144 79.4654 69.3845L79.7349 69.6547V70.195L78.9263 69.6547C78.3873 69.3845 78.1178 68.8442 77.8483 68.3039C77.5788 67.7636 77.3093 67.2233 77.3093 66.683C77.3093 65.6023 77.5788 65.3322 78.1178 65.3322Z" fill="#8C8C8C"/>
<path d="M81.3518 70.195L81.0816 70.4652V66.683L81.3518 66.9531V70.195Z" fill="#121212"/>
<path d="M81.8905 72.0863L81.082 71.546V75.3282L81.8905 75.8685C82.6991 76.4088 83.5076 75.8685 83.5076 75.058C83.5076 74.5177 83.2381 73.9774 82.9686 73.4371C82.6991 72.8968 82.16 72.3565 81.8905 72.0863Z" fill="#0A0A0A"/>
<path d="M81.3506 71.8162V75.058L82.1591 75.5984C82.6982 75.8685 82.9676 75.8685 83.2372 75.8685C82.9676 76.1387 82.4286 76.1387 81.8896 75.8685L81.0811 75.3282V71.546L81.3506 71.8162Z" fill="#8C8C8C"/>
<path d="M77.3093 71.2757C77.3093 71.816 77.5788 72.3563 77.8483 72.8967C78.1178 73.437 78.6568 73.9773 78.9263 74.2474L79.7349 74.7877V71.0056L78.9263 70.4653C77.8483 69.9249 77.3093 70.1951 77.3093 71.2757Z" fill="#0A0A0A"/>
<path d="M78.1178 70.1951C77.8483 70.4653 77.8483 70.7354 77.8483 71.2757C77.8483 71.816 78.1178 72.3563 78.3873 72.8967C78.6568 73.437 79.1959 73.9773 79.4654 74.2474L79.7349 74.5176V75.0579L78.9263 74.5176C78.3873 74.2474 78.1178 73.7071 77.8483 73.1668C77.5788 72.6265 77.3093 72.0862 77.3093 71.5459C77.3093 70.7354 77.5788 70.1951 78.1178 70.1951Z" fill="#8C8C8C"/>
<path d="M81.3518 75.3282H81.0816V71.546L81.3518 71.8162V75.3282Z" fill="#121212"/>
<path d="M81.8905 76.9491L81.082 76.4088V80.191L81.8905 80.7313C82.6991 81.2716 83.5076 80.7313 83.5076 79.9208C83.5076 79.3805 83.2381 78.8402 82.9686 78.2999C82.6991 77.7596 82.16 77.2193 81.8905 76.9491Z" fill="#0A0A0A"/>
<path d="M81.3504 76.679V79.9208L82.159 80.4611C82.4285 80.7313 82.698 80.7313 82.9675 80.7313C82.698 81.0014 82.159 81.0014 81.6199 80.7313L80.8114 80.191V76.4088L81.3504 76.679Z" fill="#8C8C8C"/>
<path d="M77.3093 76.1384C77.3093 76.6787 77.5788 77.2191 77.8483 77.7594C78.1178 78.2997 78.6568 78.84 78.9263 79.1101L79.7349 79.6505V75.8683L78.9263 75.328C77.8483 74.7877 77.3093 75.328 77.3093 76.1384Z" fill="#0A0A0A"/>
<path d="M78.1178 75.0581C77.8483 75.3283 77.8483 75.5984 77.8483 76.1388C77.8483 76.6791 78.1178 77.2194 78.3873 77.7597C78.6568 78.3 79.1959 78.8403 79.4654 79.1105L79.7349 79.3806V79.9209L78.9263 79.3806C78.3873 79.1105 78.1178 78.5702 77.8483 78.0299C77.5788 77.4895 77.3093 76.9492 77.3093 76.4089C77.3093 75.5985 77.5788 75.0581 78.1178 75.0581Z" fill="#8C8C8C"/>
<path d="M81.3518 80.191H81.0816V76.4088L81.3518 76.679V80.191Z" fill="#121212"/>
<path d="M81.8905 81.8118L81.082 81.2714V85.0536L81.8905 85.5939C82.6991 86.1342 83.5076 85.5939 83.5076 84.7835C83.5076 84.2431 83.2381 83.7028 82.9686 83.1625C82.6991 82.6222 82.16 82.0819 81.8905 81.8118Z" fill="#0A0A0A"/>
<path d="M81.3504 81.8117V85.0535L82.159 85.5938C82.4285 85.864 82.698 85.864 82.9675 85.864C82.698 86.1341 82.159 86.1341 81.6199 85.864L80.8114 85.3237V81.5415L81.3504 81.8117Z" fill="#8C8C8C"/>
<path d="M77.3093 81.2716C77.3093 81.8119 77.5788 82.3522 77.8483 82.8926C78.1178 83.4329 78.6568 83.9732 78.9263 84.2433L79.7349 84.7836V81.0015L78.9263 80.4612C77.8483 79.6507 77.3093 80.191 77.3093 81.2716Z" fill="#0A0A0A"/>
<path d="M78.1178 79.9208C77.8483 80.1909 77.8483 80.4611 77.8483 81.0014C77.8483 81.5417 78.1178 82.082 78.3873 82.6223C78.6568 83.1627 79.1959 83.703 79.4654 83.9731H79.7349V84.5134L78.9263 83.9731C78.3873 83.703 78.1178 83.1627 77.8483 82.6223C77.3093 82.3522 77.3093 81.5417 77.3093 81.2716C77.3093 80.4611 77.5788 79.9208 78.1178 79.9208Z" fill="#8C8C8C"/>
<path d="M81.3518 85.0538L81.0816 85.3239V81.5418L81.3518 81.8119V85.0538Z" fill="#121212"/>
<path d="M81.8905 86.9446L81.082 86.4043V90.1865L81.8905 90.7268C82.6991 91.2671 83.5076 90.7268 83.5076 89.9163C83.5076 89.376 83.2381 88.8357 82.9686 88.2954C82.6991 87.4849 82.16 87.2148 81.8905 86.9446Z" fill="#0A0A0A"/>
<path d="M81.3504 86.6745V89.9163L82.159 90.4566C82.4285 90.7268 82.698 90.7268 82.9675 90.7268C82.698 90.997 82.159 90.997 81.6199 90.7268L80.8114 90.1865V86.4043L81.3504 86.6745Z" fill="#8C8C8C"/>
<path d="M77.3093 86.1343C77.3093 86.6746 77.5788 87.2149 77.8483 87.7552C78.1178 88.2955 78.6568 88.8359 78.9263 89.106L79.7349 89.3762V85.594L78.9263 85.0537C77.8483 84.5134 77.3093 85.0537 77.3093 86.1343Z" fill="#0A0A0A"/>
<path d="M78.1178 84.7835C77.8483 85.0536 77.8483 85.3238 77.8483 85.8641C77.8483 86.4044 78.1178 86.9447 78.3873 87.485C78.6568 88.0253 79.1959 88.5656 79.4654 88.8358L79.7349 89.106V89.3761L78.9263 88.8358C78.3873 88.5656 78.1178 88.0253 77.8483 87.485C77.3093 87.2149 77.3093 86.6746 77.3093 86.1342C77.3093 85.3238 77.5788 85.0536 78.1178 84.7835Z" fill="#8C8C8C"/>
<path d="M81.3518 89.9163L81.0816 90.1865V86.4043L81.3518 86.6745V89.9163Z" fill="#121212"/>
<path d="M122.314 72.3565L174.06 102.074L265.423 48.3127L122.314 72.3565Z" fill="#6F6F6F"/>
<path d="M18.286 10.4908L160.317 -13.2829L109.11 -43L18.286 10.4908Z" fill="#6F6F6F"/>
<path d="M101.025 59.9292L109.919 65.0622L254.106 40.7482L245.212 35.8854L101.025 59.9292Z" fill="#6F6F6F"/>
<path d="M26.9108 16.9746L35.8045 22.1076L179.991 -2.20644L171.097 -7.06924L26.9108 16.9746Z" fill="#6F6F6F"/>
<path d="M47.663 29.1315L86.4722 51.5545L230.659 27.5106L191.85 4.81754L47.663 29.1315Z" fill="#6F6F6F"/>
<path d="M156.275 113.15C157.084 111.799 158.431 110.718 160.048 109.908L165.977 106.666V109.368L162.204 111.529C161.126 112.069 160.318 112.88 159.509 113.96C158.162 115.581 157.353 117.472 157.353 119.093V134.762C157.353 135.843 157.623 136.653 158.162 136.924C158.701 137.194 159.24 137.464 159.779 137.464C160.318 137.464 161.126 137.194 161.935 136.653L165.708 134.492V137.194L163.282 138.544L161.665 139.355L161.396 139.625C160.048 140.436 158.97 140.706 157.892 140.706C157.623 140.706 157.623 140.706 157.353 140.706C156.814 140.706 156.545 140.436 156.006 140.436L155.736 140.165C154.658 139.355 154.119 138.274 154.119 136.383V119.634C154.389 117.202 154.928 115.041 156.275 113.15Z" fill="#6D6D6D"/>
<path d="M158.161 137.194L160.587 139.895L161.935 139.625L166.786 139.085L168.672 135.843L166.247 134.492L162.474 136.653C161.665 137.194 160.857 137.464 160.318 137.464C160.318 137.194 160.048 136.924 160.048 136.653L158.161 137.194Z" fill="#797979"/>
<path d="M154.389 136.654C154.389 138.545 154.928 139.625 156.006 140.436L156.275 140.706L158.431 141.787L158.162 140.976L156.814 138.004L154.389 136.654Z" fill="#171717"/>
<path d="M156.274 113.15L158.7 114.501L159.239 114.231L168.402 108.287L165.976 106.936L160.047 110.178C158.43 110.989 157.083 112.069 156.274 113.15Z" fill="#797979"/>
<path d="M162.473 111.259L165.976 109.368L168.402 108.287V110.989L164.629 113.15C161.934 114.771 159.778 118.013 159.778 120.714V136.383V136.653C159.778 136.924 159.778 137.194 160.047 137.464C160.586 138.815 161.934 139.355 163.82 138.545C164.09 138.545 164.359 138.274 164.629 138.004L168.402 135.843V138.545L164.629 140.706C162.203 142.057 160.047 142.327 158.7 141.246C158.43 140.976 158.161 140.706 157.891 140.436C157.352 139.625 157.083 138.815 157.083 137.464V120.714C156.813 116.932 158.161 113.69 162.473 111.259Z" fill="#121212"/>
<path d="M2.38569 23.9984C3.19421 22.6476 4.54175 21.567 6.1588 20.7565L12.088 17.5147V20.2162L8.31487 22.3775C7.23684 22.9178 6.42832 23.7283 5.61979 24.8089C4.27225 26.4298 3.46372 28.3209 3.46372 29.9418V45.6109C3.46372 46.6915 3.73324 47.5019 4.27225 47.7721C4.81127 48.0423 5.35028 48.3124 5.8893 48.3124C6.42831 48.3124 7.23684 48.0423 8.04537 47.5019L11.8185 45.3407V48.0423L9.3929 49.393L7.77584 50.2035L7.50634 50.4737C6.1588 51.2841 5.08078 51.5543 4.00275 51.5543C3.73324 51.5543 3.73323 51.5543 3.46372 51.5543C2.92471 51.5543 2.6552 51.2841 2.11618 51.2841L1.84668 51.014C0.768648 50.2035 0.229636 49.1229 0.229636 47.2318V30.4821C0.499145 28.0507 1.03815 25.6193 2.38569 23.9984Z" fill="#6D6D6D"/>
<path d="M4.27255 47.7722L6.69812 50.4738L8.04566 50.2036L12.8968 49.6633L14.7834 46.4214L12.3578 45.0707L8.58467 47.2319C7.77614 47.7722 6.96761 48.0424 6.4286 48.0424C6.4286 47.7722 6.15909 47.5021 6.15909 47.2319L4.27255 47.7722Z" fill="#797979"/>
<path d="M0.498735 47.2317C0.498735 49.1228 1.03775 50.2034 2.11578 51.0139L2.38528 51.2841L4.54135 52.3647L4.27185 51.5542L2.92431 48.5825L0.498735 47.2317Z" fill="#171717"/>
<path d="M2.38494 23.9984L4.81051 25.3492L5.34954 25.0791L14.5128 19.1356L12.0872 17.7849L6.15805 21.0267C4.541 21.567 3.19346 22.6476 2.38494 23.9984Z" fill="#797979"/>
<path d="M8.58362 22.1073L12.0872 20.2162L14.5128 18.8655V21.567L10.7397 23.7283C8.04462 25.3492 5.88855 28.5911 5.88855 31.2926V46.9616V47.2318C5.88855 47.502 5.88854 47.7721 6.15805 48.0423C6.69707 49.393 8.04461 49.9334 9.93116 49.1229C10.2007 49.1229 10.4702 48.8527 10.7397 48.5826L14.5128 46.4213V49.1229L10.7397 51.2841C8.31412 52.6349 6.15805 52.9051 4.81051 51.8244C4.541 51.5543 4.27151 51.2841 4.002 51.014C3.46299 50.2035 3.19347 49.393 3.19347 48.0423V31.2926C2.92396 27.7806 4.2715 24.5387 8.58362 22.1073Z" fill="#121212"/>
<path d="M143.338 93.6987V103.694L152.77 109.098V99.1018L143.338 93.6987Z" fill="#0A0A0A"/>
<path d="M144.416 94.239V103.154L152.77 108.017V109.098L143.338 103.694V93.6987L144.416 94.239Z" fill="#8C8C8C"/>
<path d="M144.415 103.154L143.337 103.694V93.6986L144.415 94.239V103.154Z" fill="#121212"/>
<path d="M143.337 101.263L152.77 106.666V105.856L144.415 100.993L143.337 101.263Z" fill="#8C8C8C"/>
<path d="M143.337 101.263V101.803L152.77 107.206V106.666L143.337 101.263Z" fill="#5A5A5A"/>
<path d="M143.337 99.3717L152.77 104.775V103.964L144.415 98.8314L143.337 99.3717Z" fill="#8C8C8C"/>
<path d="M143.337 99.3718V99.9121L152.77 105.315V104.775L143.337 99.3718Z" fill="#5A5A5A"/>
<path d="M143.337 97.4808L152.77 102.884V101.803L144.415 96.9404L143.337 97.4808Z" fill="#8C8C8C"/>
<path d="M143.337 97.4809V97.751L152.77 103.424V102.884L143.337 97.4809Z" fill="#5A5A5A"/>
<path d="M143.337 95.3195L152.77 100.723V99.9121L144.415 95.0493L143.337 95.3195Z" fill="#8C8C8C"/>
<path d="M143.337 95.3195V95.8599L152.77 101.263V100.723L143.337 95.3195Z" fill="#5A5A5A"/>
<path d="M143.338 105.045V115.041L152.77 120.444V110.718L143.338 105.045Z" fill="#0A0A0A"/>
<path d="M144.416 105.856V114.501L152.77 119.363V120.444L143.338 115.041V105.045L144.416 105.856Z" fill="#8C8C8C"/>
<path d="M144.415 114.501L143.337 115.041V105.045L144.415 105.856V114.501Z" fill="#121212"/>
<path d="M143.337 112.61L152.77 118.283V117.202L144.415 112.339L143.337 112.61Z" fill="#8C8C8C"/>
<path d="M143.337 112.609V113.15L152.77 118.553V118.283L143.337 112.609Z" fill="#5A5A5A"/>
<path d="M143.337 110.718L152.77 116.121V115.311L144.415 110.448L143.337 110.718Z" fill="#8C8C8C"/>
<path d="M143.337 110.719V111.259L152.77 116.662V116.122L143.337 110.719Z" fill="#5A5A5A"/>
<path d="M143.337 108.827L152.77 114.23V113.42L144.415 108.287L143.337 108.827Z" fill="#8C8C8C"/>
<path d="M143.337 108.827V109.368L152.77 114.771V114.23L143.337 108.827Z" fill="#5A5A5A"/>
<path d="M143.337 106.936L152.77 112.339V111.259L144.415 106.396L143.337 106.936Z" fill="#8C8C8C"/>
<path d="M143.337 106.936V107.207L152.77 112.88V112.339L143.337 106.936Z" fill="#5A5A5A"/>
<path d="M143.338 116.392V126.388L152.77 131.791V122.065L143.338 116.392Z" fill="#0A0A0A"/>
<path d="M144.416 116.932V125.847L152.77 130.71V131.791L143.338 126.388V116.392L144.416 116.932Z" fill="#8C8C8C"/>
<path d="M144.415 125.847L143.337 126.388V116.392L144.415 116.932V125.847Z" fill="#121212"/>
<path d="M143.337 123.956L152.77 129.629V128.549L144.415 123.686L143.337 123.956Z" fill="#8C8C8C"/>
<path d="M143.337 123.956V124.497L152.77 129.9V129.629L143.337 123.956Z" fill="#5A5A5A"/>
<path d="M143.337 122.065L152.77 127.468V126.658L144.415 121.795L143.337 122.065Z" fill="#8C8C8C"/>
<path d="M143.337 122.065V122.605L152.77 128.009V127.468L143.337 122.065Z" fill="#5A5A5A"/>
<path d="M143.337 120.174L152.77 125.577V124.497L144.415 119.634L143.337 120.174Z" fill="#8C8C8C"/>
<path d="M143.337 120.174V120.444L152.77 126.117V125.577L143.337 120.174Z" fill="#5A5A5A"/>
<path d="M143.337 118.013L152.77 123.686V122.605L144.415 117.742L143.337 118.013Z" fill="#8C8C8C"/>
<path d="M143.337 118.013V118.553L152.77 123.956V123.686L143.337 118.013Z" fill="#5A5A5A"/>
<path d="M121.778 85.3238V85.8641C121.778 86.6746 122.047 87.2149 122.856 87.7552L139.296 97.2107C140.104 97.4808 140.913 97.2107 140.913 96.4002V95.8599C140.913 95.0494 140.643 94.5091 139.835 93.9688L123.395 84.5134C122.586 83.973 121.778 84.5134 121.778 85.3238Z" fill="#0A0A0A"/>
<path d="M123.124 84.5132C123.124 84.7833 122.854 84.7833 122.854 85.0535V85.5938C122.854 86.4042 123.124 86.9446 123.932 87.4849L140.372 96.9403H140.642C140.372 97.2105 139.833 97.4806 139.294 97.2105L122.854 87.755C122.315 87.4849 121.776 86.6744 121.776 85.8639V85.3236C121.776 84.7833 122.585 84.243 123.124 84.5132Z" fill="#8C8C8C"/>
<path d="M121.778 90.726V91.2663C121.778 92.0768 122.047 92.6171 122.856 93.1574L139.296 102.343C140.104 102.613 140.913 102.343 140.913 101.532V100.992C140.913 100.181 140.643 99.6411 139.835 99.1008L123.395 89.6454C122.586 89.3752 121.778 89.9155 121.778 90.726Z" fill="#0A0A0A"/>
<path d="M123.124 89.6463C123.124 89.9165 122.854 89.9165 122.854 90.1867V90.727C122.854 91.5374 123.124 92.0777 123.932 92.6181L140.372 102.074H140.642C140.372 102.344 139.833 102.614 139.294 102.344L122.854 92.8882C122.315 92.6181 121.776 91.8076 121.776 90.9971V90.4568C121.776 89.9165 122.585 89.3762 123.124 89.6463Z" fill="#8C8C8C"/>
<path d="M121.778 95.8592V96.3995C121.778 97.21 122.047 97.7503 122.856 98.2906L139.296 107.746C140.104 108.016 140.913 107.746 140.913 106.936V106.395C140.913 105.585 140.643 105.044 139.835 104.504L123.395 95.0487C122.586 94.5084 121.778 95.0487 121.778 95.8592Z" fill="#0A0A0A"/>
<path d="M123.124 94.7794C123.124 95.0496 122.854 95.0496 122.854 95.3197V95.86C122.854 96.6705 123.124 97.2108 123.932 97.7511L140.372 107.207H140.642C140.372 107.477 139.833 107.747 139.294 107.477L122.854 98.0213C122.315 97.7511 121.776 96.9407 121.776 96.1302V95.5899C121.776 95.0496 122.585 94.7794 123.124 94.7794Z" fill="#8C8C8C"/>
<path d="M121.778 100.993V101.533C121.778 102.344 122.047 102.884 122.856 103.424L139.296 112.88C140.104 113.15 140.913 112.88 140.913 112.069V111.529C140.913 110.719 140.643 110.178 139.835 109.638L123.395 100.182C122.586 99.9123 121.778 100.182 121.778 100.993Z" fill="#0A0A0A"/>
<path d="M123.124 100.183C123.124 100.453 122.854 100.453 122.854 100.723V101.263C122.854 102.074 123.124 102.614 123.932 103.154L140.372 112.61H140.642C140.372 112.88 139.833 113.15 139.294 112.88L122.854 103.424C122.315 103.154 121.776 102.344 121.776 101.533V100.993C121.776 100.453 122.585 99.9124 123.124 100.183Z" fill="#8C8C8C"/>
<path d="M121.778 106.395V106.935C121.778 107.746 122.047 108.286 122.856 108.826L139.296 118.012C140.104 118.282 140.913 118.012 140.913 117.201V116.661C140.913 115.85 140.643 115.31 139.835 114.77L123.395 105.314C122.586 105.044 121.778 105.584 121.778 106.395Z" fill="#0A0A0A"/>
<path d="M123.124 105.315C123.124 105.585 122.854 105.585 122.854 105.856V106.396C122.854 107.206 123.124 107.747 123.932 108.287L140.372 117.742H140.642C140.372 118.013 139.833 118.283 139.294 118.013L122.854 108.557C122.315 108.287 121.776 107.477 121.776 106.666V106.126C121.776 105.585 122.585 105.045 123.124 105.315Z" fill="#8C8C8C"/>
<path d="M121.778 111.529V112.069C121.778 112.88 122.047 113.42 122.856 113.96L139.296 123.416C140.104 123.686 140.913 123.416 140.913 122.605V121.795C140.913 120.984 140.643 120.444 139.835 119.904L123.395 110.448C122.586 110.178 121.778 110.718 121.778 111.529Z" fill="#0A0A0A"/>
<path d="M123.124 110.718C123.124 110.988 122.854 110.988 122.854 111.259V111.799C122.854 112.609 123.124 113.15 123.932 113.69L140.372 123.145H140.642C140.372 123.416 139.833 123.686 139.294 123.416L122.854 113.96C122.315 113.69 121.776 112.88 121.776 112.069V111.529C121.776 110.718 122.585 110.448 123.124 110.718Z" fill="#8C8C8C"/>
<path d="M84.0468 62.6295V63.1698C84.0468 63.9802 84.3164 64.5206 85.1249 65.0609L92.1321 69.1132C92.9406 69.3834 93.7491 69.1132 93.7491 68.3027V67.7624C93.7491 66.952 93.4796 66.4116 92.6711 65.8713L85.6639 61.819C84.8554 61.2787 84.0468 61.819 84.0468 62.6295Z" fill="#0A0A0A"/>
<path d="M85.3932 61.5501C85.3932 61.8203 85.1237 61.8203 85.1237 62.0904V62.6307C85.1237 63.4412 85.3932 63.9815 86.2017 64.5218L93.2089 68.5741H93.4784C93.2089 68.8443 92.6699 69.1145 92.1309 68.8443L85.1237 64.792C84.5847 64.5218 84.0456 63.7113 84.0456 62.9009V62.3606C84.0456 61.8202 84.8542 61.5501 85.3932 61.5501Z" fill="#8C8C8C"/>
<path d="M84.0463 67.7638V68.3041C84.0463 69.1145 84.3158 69.6548 85.1243 70.1952L92.1315 74.2475C92.9401 74.5176 93.7486 74.2475 93.7486 73.437V72.8967C93.7486 72.0862 93.4791 71.5459 92.6705 71.0056L85.6633 66.9533C84.8548 66.413 84.0463 66.9533 84.0463 67.7638Z" fill="#0A0A0A"/>
<path d="M85.3928 66.9534C85.3928 67.2235 85.1233 67.2235 85.1233 67.4937V68.034C85.1233 68.8445 85.3928 69.3848 86.2013 69.9251L93.2085 73.9774H93.478C93.2085 74.2476 92.6695 74.5177 92.1305 74.2476L85.1233 70.1952C84.5843 69.9251 84.0453 69.1146 84.0453 68.3042V67.7638C84.0453 67.2235 84.8538 66.6832 85.3928 66.9534Z" fill="#8C8C8C"/>
<path d="M84.0463 73.1649V73.7052C84.0463 74.5157 84.3158 75.056 85.1244 75.5963L92.1316 79.6486C92.9401 79.9188 93.7486 79.6486 93.7486 78.8382V78.2979C93.7486 77.4874 93.4791 76.9471 92.6706 76.4068L85.6634 72.3544C84.8548 71.8141 84.0463 72.3544 84.0463 73.1649Z" fill="#0A0A0A"/>
<path d="M85.3928 72.0861C85.3928 72.3563 85.1233 72.3563 85.1233 72.6264V73.1668C85.1233 73.9772 85.3928 74.5175 86.2013 75.0578L93.2085 79.1102H93.478C93.2085 79.3803 92.6695 79.6505 92.1305 79.3803L85.1233 75.328C84.5843 75.0578 84.0453 74.2474 84.0453 73.4369V73.1668C84.0453 72.3563 84.8538 71.816 85.3928 72.0861Z" fill="#8C8C8C"/>
<path d="M84.0463 78.2991V78.8394C84.0463 79.6499 84.3158 80.1902 85.1244 80.7305L92.1316 84.7828C92.9401 85.053 93.7486 84.7829 93.7486 83.9724V83.4321C93.7486 82.6216 93.4791 82.0813 92.6706 81.541L85.6634 77.4886C84.8548 76.9483 84.0463 77.4887 84.0463 78.2991Z" fill="#0A0A0A"/>
<path d="M85.3928 77.2192C85.3928 77.4894 85.1233 77.4894 85.1233 77.7595V78.57C85.1233 79.3805 85.3928 79.9208 86.2013 80.4611L93.2085 84.5134H93.478C93.2085 84.7836 92.6695 85.0537 92.1305 84.7836L85.1233 80.7312C84.5843 80.4611 84.0453 79.6506 84.0453 78.8402V78.2998C84.0453 77.4894 84.8538 77.2192 85.3928 77.2192Z" fill="#8C8C8C"/>
<path d="M84.0463 83.4327V83.9731C84.0463 84.7835 84.3158 85.3238 85.1243 85.8641L92.1315 89.9165C92.9401 90.1866 93.7486 89.9165 93.7486 89.106V88.5657C93.7486 87.7552 93.4791 87.2149 92.6705 86.6746L85.6633 82.6223C84.8548 82.3521 84.0463 82.6223 84.0463 83.4327Z" fill="#0A0A0A"/>
<path d="M85.3928 82.6223C85.3928 82.8924 85.1233 82.8924 85.1233 83.1626V83.7029C85.1233 84.5134 85.3928 85.0537 86.2013 85.594L93.2085 89.6463H93.478C93.2085 89.9165 92.6695 90.1866 92.1305 89.9165L85.1233 85.8641C84.5843 85.594 84.0453 84.7835 84.0453 83.9731V83.4327C84.0453 82.8924 84.8538 82.3521 85.3928 82.6223Z" fill="#8C8C8C"/>
<path d="M84.0463 88.834V89.3743C84.0463 90.1848 84.3158 90.7251 85.1244 91.2654L92.1316 95.3177C92.9401 95.5879 93.7486 95.3177 93.7486 94.5073V93.967C93.7486 93.1565 93.4791 92.6162 92.6706 92.0759L85.6634 88.0235C84.8548 87.4832 84.0463 88.0235 84.0463 88.834Z" fill="#0A0A0A"/>
<path d="M85.3928 87.7551C85.3928 88.0253 85.1233 88.0252 85.1233 88.2954V88.8357C85.1233 89.6462 85.3928 90.1865 86.2013 90.7268L93.2085 94.7791H93.478C93.2085 95.0493 92.6695 95.3194 92.1305 95.0493L85.1233 90.997C84.5843 90.7268 84.0453 89.9163 84.0453 89.1059V88.5656C84.0453 88.0253 84.8538 87.4849 85.3928 87.7551Z" fill="#8C8C8C"/>
<path d="M108.302 73.9772V83.973L118.005 89.3761V79.3803L108.302 73.9772Z" fill="url(#paint0_linear)"/>
<path d="M110.458 75.328V82.8923L118.005 87.2148V89.3761L108.302 83.973V73.9772L110.458 75.328Z" fill="#5F5F5F"/>
<path d="M108.302 83.973L110.458 82.8924L118.004 87.2149V89.3761L108.302 83.973Z" fill="#7E7E7E"/>
<path d="M108.302 85.3237V95.0493L118.005 100.723V90.7269L108.302 85.3237Z" fill="url(#paint1_linear)"/>
<path d="M110.458 86.4044V94.2389L118.005 98.2912V100.723L108.302 95.0493V85.3237L110.458 86.4044Z" fill="#5F5F5F"/>
<path d="M108.302 95.0493L110.458 94.2388L118.004 98.2912V100.723L108.302 95.0493Z" fill="#7E7E7E"/>
<path d="M108.302 96.4002V106.396L118.005 111.799V101.803L108.302 96.4002Z" fill="url(#paint2_linear)"/>
<path d="M110.458 97.751V105.315L118.005 109.638V111.799L108.302 106.396V96.4002L110.458 97.751Z" fill="#5F5F5F"/>
<path d="M108.302 106.396L110.458 105.316L118.004 109.638V111.799L108.302 106.396Z" fill="#7E7E7E"/>
<path d="M65.1809 47.5025V57.2281L74.6136 62.9014V52.9057L65.1809 47.5025Z" fill="#0A0A0A"/>
<path d="M66.2589 48.0429V56.6878L74.6136 61.8208V62.9014L65.1809 57.2281V47.5025L66.2589 48.0429Z" fill="#8C8C8C"/>
<path d="M66.2585 56.6874L65.1805 57.2277V47.5021L66.2585 48.0424V56.6874Z" fill="#121212"/>
<path d="M65.1809 55.0665L74.6137 60.4697V59.389L66.259 54.5262L65.1809 55.0665Z" fill="#8C8C8C"/>
<path d="M65.1809 55.0665V55.6068L74.6137 61.0099V60.4696L65.1809 55.0665Z" fill="#5A5A5A"/>
<path d="M65.1809 52.9051L74.6137 58.5784V57.4977L66.259 52.6349L65.1809 52.9051Z" fill="#8C8C8C"/>
<path d="M65.1809 52.9051V53.4454L74.6137 58.8485V58.5784L65.1809 52.9051Z" fill="#5A5A5A"/>
<path d="M65.1809 51.0143L74.6137 56.4174V55.607L66.259 50.7442L65.1809 51.0143Z" fill="#8C8C8C"/>
<path d="M65.1809 51.0141V51.5544L74.6137 56.9575V56.4172L65.1809 51.0141Z" fill="#5A5A5A"/>
<path d="M65.1809 49.123L74.6137 54.5261V53.7157L66.259 48.5827L65.1809 49.123Z" fill="#8C8C8C"/>
<path d="M65.1809 49.123V49.6633L74.6137 55.0664V54.5261L65.1809 49.123Z" fill="#5A5A5A"/>
<path d="M65.1808 58.8488V68.8445L74.6136 74.2476V64.2519L65.1808 58.8488Z" fill="#0A0A0A"/>
<path d="M66.2588 59.3891V68.3042L74.6136 73.167V74.2476L65.1808 68.8445V58.8488L66.2588 59.3891Z" fill="#8C8C8C"/>
<path d="M66.2584 68.3042L65.1803 68.8445V58.8488L66.2584 59.3891V68.3042Z" fill="#121212"/>
<path d="M65.1808 66.4131L74.6136 71.8162V71.0057L66.2588 66.1429L65.1808 66.4131Z" fill="#8C8C8C"/>
<path d="M65.1808 66.4131V66.9534L74.6136 72.3565V71.8162L65.1808 66.4131Z" fill="#5A5A5A"/>
<path d="M65.1808 64.522L74.6136 69.9251V68.8445L66.2588 63.9817L65.1808 64.522Z" fill="#8C8C8C"/>
<path d="M65.1808 64.5221V65.0624L74.6136 70.4655V69.9252L65.1808 64.5221Z" fill="#5A5A5A"/>
<path d="M65.1808 62.3608L74.6136 68.0341V66.9535L66.2588 62.0907L65.1808 62.3608Z" fill="#8C8C8C"/>
<path d="M65.1808 62.3607V62.9011L74.6136 68.3042V68.034L65.1808 62.3607Z" fill="#5A5A5A"/>
<path d="M65.1808 60.4697L74.6136 65.8728V65.0624L66.2588 60.1996L65.1808 60.4697Z" fill="#8C8C8C"/>
<path d="M65.1808 60.4696V61.0099L74.6136 66.413V65.8727L65.1808 60.4696Z" fill="#5A5A5A"/>
<path d="M65.1808 70.1952V79.9208L74.6136 85.594V75.5983L65.1808 70.1952Z" fill="#0A0A0A"/>
<path d="M66.2588 70.7355V79.3804L74.6136 84.5134V85.594L65.1808 80.1909V70.1952L66.2588 70.7355Z" fill="#8C8C8C"/>
<path d="M66.2584 79.3804L65.1803 80.1909V70.1951L66.2584 70.7354V79.3804Z" fill="#121212"/>
<path d="M65.1808 77.7595L74.6136 83.1626V82.3521L66.2588 77.4893L65.1808 77.7595Z" fill="#8C8C8C"/>
<path d="M65.1808 77.7594V78.2997L74.6136 83.7028V83.1625L65.1808 77.7594Z" fill="#5A5A5A"/>
<path d="M65.1808 75.8681L74.6136 81.2713V80.1906L66.2588 75.3278L65.1808 75.8681Z" fill="#8C8C8C"/>
<path d="M65.1808 75.8682V76.1384L74.6136 81.8116V81.2713L65.1808 75.8682Z" fill="#5A5A5A"/>
<path d="M65.1808 73.7071L74.6136 79.3804V78.2998L66.2588 73.4369L65.1808 73.7071Z" fill="#8C8C8C"/>
<path d="M65.1808 73.707V74.2473L74.6136 79.6504V79.3803L65.1808 73.707Z" fill="#5A5A5A"/>
<path d="M65.1808 71.8158L74.6136 77.2189V76.4085L66.2588 71.5457L65.1808 71.8158Z" fill="#8C8C8C"/>
<path d="M65.1808 71.816V72.3563L74.6136 77.7594V77.2191L65.1808 71.816Z" fill="#5A5A5A"/>
<path d="M43.6204 39.1262V39.6665C43.6204 40.4769 43.8899 41.0173 44.6985 41.5576L61.1384 51.013C61.947 51.2832 62.7555 51.013 62.7555 50.2025V49.6622C62.7555 48.8518 62.486 48.3115 61.6774 47.7711L45.2375 38.3157C44.429 37.7754 43.6204 38.3157 43.6204 39.1262Z" fill="#0A0A0A"/>
<path d="M44.9678 38.0465C44.9678 38.3167 44.6983 38.3167 44.6983 38.5869V39.1272C44.6983 39.9376 44.9678 40.4779 45.7764 41.0183L62.2163 50.4737H62.4858C62.2163 50.7438 61.6773 51.014 61.1383 50.7439L44.6983 41.2884C44.1593 41.0183 43.6203 40.2078 43.6203 39.3973V38.857C43.6203 38.3167 44.1593 38.0465 44.9678 38.0465Z" fill="#8C8C8C"/>
<path d="M43.6207 44.2601V44.8004C43.6207 45.6109 43.8902 46.1512 44.6987 46.6915L61.1387 56.147C61.9472 56.4171 62.7557 56.147 62.7557 55.3365V54.7962C62.7557 53.9857 62.4862 53.4454 61.6777 52.9051L44.9682 43.4496C44.4292 42.9093 43.6207 43.4496 43.6207 44.2601Z" fill="#0A0A0A"/>
<path d="M44.9671 43.4496C44.9671 43.7198 44.6976 43.7198 44.6976 43.9899V44.5303C44.6976 45.3407 44.9671 45.881 45.7756 46.4213L62.2156 55.8768H62.4851C62.2156 56.1469 61.6765 56.4171 61.1375 56.1469L44.6976 46.6915C44.1585 46.4213 43.6195 45.6109 43.6195 44.8004V44.2601C43.6195 43.7198 44.1585 43.1795 44.9671 43.4496Z" fill="#8C8C8C"/>
<path d="M43.6207 49.6625V50.2028C43.6207 51.0133 43.8902 51.5536 44.6987 52.0939L61.1387 61.2792C61.9472 61.5494 62.7557 61.2792 62.7557 60.4687V59.9284C62.7557 59.118 62.4862 58.5777 61.6777 58.0373L45.2377 48.5819C44.4292 48.3117 43.6207 48.8521 43.6207 49.6625Z" fill="#0A0A0A"/>
<path d="M44.9671 48.583C44.9671 48.8531 44.6976 48.8531 44.6976 49.1233V49.6636C44.6976 50.474 44.9671 51.0144 45.7756 51.5547L62.2156 61.0101H62.4851C62.2156 61.2803 61.6765 61.5504 61.1375 61.2803L44.6976 51.8248C44.1585 51.5547 43.6195 50.7442 43.6195 49.9337V49.3934C43.6195 48.8531 44.1585 48.3128 44.9671 48.583Z" fill="#8C8C8C"/>
<path d="M43.6207 54.7963V55.3367C43.6207 56.1471 43.8902 56.6874 44.6987 57.2277L61.1387 66.6832C61.9472 66.9533 62.7557 66.6832 62.7557 65.8727V65.0623C62.7557 64.2518 62.4862 63.7115 61.6777 63.1712L45.2377 53.7157C44.4292 53.4456 43.6207 53.9859 43.6207 54.7963Z" fill="#0A0A0A"/>
<path d="M44.9671 53.7156C44.9671 53.9858 44.6976 53.9858 44.6976 54.2559V54.7962C44.6976 55.6067 44.9671 56.147 45.7756 56.6873L62.2156 66.1428H62.4851C62.2156 66.4129 61.6765 66.6831 61.1375 66.4129L44.6976 56.9575C44.1585 56.6873 43.6195 55.8769 43.6195 55.0664V54.5261C43.6195 53.9858 44.1585 53.7156 44.9671 53.7156Z" fill="#8C8C8C"/>
<path d="M43.6207 59.9294V60.4697C43.6207 61.2801 43.8902 61.8204 44.6987 62.3608L61.1387 71.8162C61.9472 72.0864 62.7557 71.8162 62.7557 71.0057V70.4654C62.7557 69.655 62.4862 69.1146 61.6777 68.5743L45.2377 59.1189C44.4292 58.8487 43.6207 59.1189 43.6207 59.9294Z" fill="#0A0A0A"/>
<path d="M44.9671 59.119C44.9671 59.3892 44.6976 59.3892 44.6976 59.6593V60.1996C44.6976 61.0101 44.9671 61.5504 45.7756 62.0907L62.2156 71.5462H62.4851C62.2156 71.8163 61.6765 72.0865 61.1375 71.8163L44.6976 62.3609C44.1585 62.0907 43.6195 61.2803 43.6195 60.4698V59.9295C43.6195 59.3892 44.1585 58.8489 44.9671 59.119Z" fill="#8C8C8C"/>
<path d="M43.6207 65.3313V65.8717C43.6207 66.6821 43.8902 67.2224 44.6987 67.7627L61.1387 76.948C61.9472 77.2182 62.7557 76.948 62.7557 76.1376V75.5973C62.7557 74.7868 62.4862 74.2465 61.6777 73.7062L45.2377 64.2507C44.4292 63.9806 43.6207 64.5209 43.6207 65.3313Z" fill="#0A0A0A"/>
<path d="M44.9671 64.2518C44.9671 64.5219 44.6976 64.5219 44.6976 64.7921V65.3324C44.6976 66.1429 44.9671 66.6832 45.7756 67.2235L62.2156 76.6789H62.4851C62.2156 76.9491 61.6765 77.2192 61.1375 76.9491L44.6976 67.4936C44.1585 67.2235 43.6195 66.413 43.6195 65.6026V65.0622C43.6195 64.5219 44.1585 63.9816 44.9671 64.2518Z" fill="#8C8C8C"/>
<path d="M30.1439 27.7808V37.5064L39.5766 43.1797V33.1839L30.1439 27.7808Z" fill="url(#paint3_linear)"/>
<path d="M32.2999 28.8614V36.6959L39.5766 40.7483V43.1797L30.1439 37.5064V27.7808L32.2999 28.8614Z" fill="#5F5F5F"/>
<path d="M30.1449 37.5063L32.301 36.6958L39.5777 40.7482V43.1796L30.1449 37.5063Z" fill="#7E7E7E"/>
<path d="M30.1439 38.8571V48.8529L39.5766 54.256V44.5304L30.1439 38.8571Z" fill="url(#paint4_linear)"/>
<path d="M32.2999 40.2079V47.7723L39.5766 52.0948V54.256L30.1439 48.8529V38.8571L32.2999 40.2079Z" fill="#5F5F5F"/>
<path d="M30.1449 48.8526L32.301 47.772L39.5777 52.0945V54.2557L30.1449 48.8526Z" fill="#7E7E7E"/>
<path d="M30.1439 50.2039V59.9295L39.5766 65.6028V55.607L30.1439 50.2039Z" fill="url(#paint5_linear)"/>
<path d="M32.2999 51.2846V58.8489L39.5766 63.1714V65.6028L30.1439 59.9295V50.2039L32.2999 51.2846Z" fill="#5F5F5F"/>
<path d="M30.1449 59.9293L32.301 58.8487L39.5777 63.1712V65.6026L30.1449 59.9293Z" fill="#7E7E7E"/>
<path d="M27.1799 32.3735C26.6409 32.3735 25.5629 31.8332 24.7544 30.4824C23.9458 28.8615 23.9458 27.5107 24.4849 26.9704H24.7544C25.2934 26.9704 26.3714 27.5107 27.1799 28.8615C27.9885 30.4824 27.9885 31.8332 27.4494 32.3735H27.1799Z" fill="url(#paint6_radial)"/>
<path d="M27.1799 44.8006C26.6409 44.8006 25.5629 44.2603 24.7544 42.9095C23.9458 41.2886 23.9458 39.9378 24.4849 39.3975H24.7544C25.2934 39.3975 26.3714 39.9378 27.1799 41.2886C27.9885 42.9095 27.9885 44.2603 27.4494 44.8006H27.1799Z" fill="url(#paint7_radial)"/>
<path d="M27.1799 57.2278C26.6409 57.2278 25.5629 56.6875 24.7544 55.3367C23.9458 53.7157 23.9458 52.365 24.4849 51.8246H24.7544C25.2934 51.8246 26.3714 52.365 27.1799 53.7157C27.9885 55.3367 27.9885 56.6874 27.4494 57.2278H27.1799Z" fill="url(#paint8_radial)"/>
<path d="M105.877 79.9209C105.338 79.9209 104.26 79.3806 103.451 78.0299C102.643 76.4089 102.643 75.0581 103.182 74.5178H103.451C103.99 74.5178 105.068 75.0582 105.877 76.4089C106.685 78.0299 106.685 79.3806 106.146 79.9209C106.146 79.9209 106.146 79.9209 105.877 79.9209Z" fill="url(#paint9_radial)"/>
<path d="M105.877 90.9972C105.338 90.9972 104.26 90.4569 103.451 89.1061C102.643 87.4852 102.643 86.1344 103.182 85.5941H103.451C103.99 85.5941 105.068 86.1344 105.877 87.4851C106.685 89.1061 106.685 90.4569 106.146 90.9972C106.146 90.9972 106.146 90.9972 105.877 90.9972Z" fill="url(#paint10_radial)"/>
<path d="M105.877 102.884C105.338 102.884 104.26 102.344 103.451 100.993C102.642 99.372 102.642 98.0212 103.181 97.4809H103.451C103.99 97.4809 105.068 98.0212 105.877 99.372C106.955 100.993 106.955 102.614 106.416 102.884C106.146 102.884 106.146 102.884 105.877 102.884Z" fill="url(#paint11_radial)"/>
</g>
<defs>
<linearGradient id="paint0_linear" x1="113.192" y1="77.7316" x2="113.12" y2="85.0641" gradientUnits="userSpaceOnUse">
<stop stop-color="#535353"/>
<stop offset="1" stop-color="#585858"/>
</linearGradient>
<linearGradient id="paint1_linear" x1="113.153" y1="89.0665" x2="113.153" y2="95.6729" gradientUnits="userSpaceOnUse">
<stop stop-color="#535353"/>
<stop offset="1" stop-color="#585858"/>
</linearGradient>
<linearGradient id="paint2_linear" x1="113.153" y1="98.5042" x2="113.153" y2="106.055" gradientUnits="userSpaceOnUse">
<stop stop-color="#535353"/>
<stop offset="1" stop-color="#585858"/>
</linearGradient>
<linearGradient id="paint3_linear" x1="34.9958" y1="30.9159" x2="34.923" y2="37.8127" gradientUnits="userSpaceOnUse">
<stop stop-color="#535353"/>
<stop offset="1" stop-color="#585858"/>
</linearGradient>
<linearGradient id="paint4_linear" x1="35.0384" y1="42.2287" x2="34.893" y2="49.3435" gradientUnits="userSpaceOnUse">
<stop stop-color="#535353"/>
<stop offset="1" stop-color="#585858"/>
</linearGradient>
<linearGradient id="paint5_linear" x1="35.0856" y1="53.1211" x2="34.8673" y2="60.526" gradientUnits="userSpaceOnUse">
<stop stop-color="#535353"/>
<stop offset="1" stop-color="#585858"/>
</linearGradient>
<radialGradient id="paint6_radial" cx="0" cy="0" r="1" gradientUnits="userSpaceOnUse" gradientTransform="translate(25.747 28.1515) scale(2.68484 2.69129)">
<stop stop-color="#C9C9C9"/>
<stop offset="1" stop-color="#8A8A8A"/>
</radialGradient>
<radialGradient id="paint7_radial" cx="0" cy="0" r="1" gradientUnits="userSpaceOnUse" gradientTransform="translate(25.747 40.6259) scale(2.68484 2.69129)">
<stop stop-color="#C9C9C9"/>
<stop offset="1" stop-color="#8A8A8A"/>
</radialGradient>
<radialGradient id="paint8_radial" cx="0" cy="0" r="1" gradientUnits="userSpaceOnUse" gradientTransform="translate(25.747 53.1003) scale(2.68484 2.69129)">
<stop stop-color="#C9C9C9"/>
<stop offset="1" stop-color="#8A8A8A"/>
</radialGradient>
<radialGradient id="paint9_radial" cx="0" cy="0" r="1" gradientUnits="userSpaceOnUse" gradientTransform="translate(104.58 75.7108) scale(2.68484 2.69129)">
<stop stop-color="#C9C9C9"/>
<stop offset="1" stop-color="#8A8A8A"/>
</radialGradient>
<radialGradient id="paint10_radial" cx="0" cy="0" r="1" gradientUnits="userSpaceOnUse" gradientTransform="translate(104.58 86.7881) scale(2.68484 2.69129)">
<stop stop-color="#C9C9C9"/>
<stop offset="1" stop-color="#8A8A8A"/>
</radialGradient>
<radialGradient id="paint11_radial" cx="0" cy="0" r="1" gradientUnits="userSpaceOnUse" gradientTransform="translate(104.58 98.726) scale(2.68484 2.69129)">
<stop stop-color="#C9C9C9"/>
<stop offset="1" stop-color="#8A8A8A"/>
</radialGradient>
</defs>
</svg>
